<svg width="157" height="31" viewBox="0 0 157 31" fill="none" xmlns="http://www.w3.org/2000/svg">
<path d="M10.8438 16.4297C10.9805 16.7031 11.1343 16.9595 11.3052 17.1987C11.4761 17.438 11.5957 17.7285 11.6641 18.0703C11.7552 18.1956 11.8008 18.321 11.8008 18.4463C11.8008 18.5944 11.8236 18.7311 11.8691 18.8564C12.0286 19.4261 12.228 19.9787 12.4673 20.5142C12.7065 21.0496 12.9401 21.5566 13.168 22.0352C13.2135 22.4225 13.3332 22.7358 13.5269 22.9751C13.7205 23.2144 13.8402 23.5277 13.8857 23.915C14.068 24.348 14.2731 24.7581 14.501 25.1455C14.7288 25.5329 14.9567 25.9202 15.1846 26.3076L15.5264 26.5127C15.5833 26.5469 15.6403 26.5811 15.6973 26.6152C15.7656 26.6608 15.834 26.7064 15.9023 26.752C16.0163 26.8203 16.096 26.8716 16.1416 26.9058C16.2214 26.9627 16.3125 27.014 16.415 27.0596C16.5404 27.1165 16.6486 27.1507 16.7397 27.1621C16.8309 27.1735 16.9391 27.2077 17.0645 27.2646C17.1784 27.333 17.2524 27.39 17.2866 27.4355C17.3208 27.4811 17.3835 27.5381 17.4746 27.6064C17.5544 27.6178 17.6455 27.6463 17.748 27.6919C17.8278 27.7261 17.9189 27.7318 18.0215 27.709C18.3975 27.8913 18.7279 28.0166 19.0127 28.085C19.1494 28.1191 19.2804 28.1533 19.4058 28.1875C19.5425 28.2331 19.6735 28.2786 19.7988 28.3242C19.9128 28.3698 20.0552 28.4154 20.2261 28.4609C20.397 28.5065 20.5394 28.5293 20.6533 28.5293C20.8698 28.6318 21.0179 28.7686 21.0977 28.9395C21.1888 29.1104 21.297 29.2699 21.4224 29.418C21.5477 29.5661 21.7699 29.6572 22.0889 29.6914C22.1686 29.7484 22.2199 29.811 22.2427 29.8794C22.2655 29.9478 22.3281 30.0218 22.4307 30.1016C22.6471 30.2839 22.744 30.3978 22.7212 30.4434C22.6756 30.5117 22.6471 30.5687 22.6357 30.6143C22.4762 30.637 22.3167 30.6598 22.1572 30.6826C21.9977 30.7054 21.8838 30.7738 21.8154 30.8877C21.7471 30.8877 21.673 30.8877 21.5933 30.8877C21.5249 30.8877 21.4451 30.8934 21.354 30.9048C21.2059 30.9162 21.0635 30.8763 20.9268 30.7852C20.5166 30.8079 20.1634 30.7852 19.8672 30.7168C19.5824 30.6598 19.195 30.6029 18.7051 30.5459C18.5798 30.5459 18.4544 30.5459 18.3291 30.5459C18.2152 30.5573 18.1012 30.5687 17.9873 30.5801C17.748 30.6029 17.543 30.5801 17.3721 30.5117C16.8708 30.3066 16.472 30.1243 16.1758 29.9648C15.8796 29.8053 15.5719 29.6344 15.2529 29.4521C15.0137 29.3382 14.7858 29.2015 14.5693 29.042C14.3529 28.8825 14.125 28.7458 13.8857 28.6318C13.5667 28.2673 13.2591 27.9141 12.9629 27.5723C12.6667 27.2305 12.3932 26.8545 12.1426 26.4443L11.9204 26.0684C11.8976 26.0228 11.8691 25.9772 11.835 25.9316C11.8122 25.8861 11.7894 25.8405 11.7666 25.7949C11.6868 25.6012 11.6071 25.4759 11.5273 25.4189C11.4704 25.3734 11.4134 25.305 11.3564 25.2139C11.2995 25.1227 11.2425 24.986 11.1855 24.8037C11.1628 24.724 11.14 24.6442 11.1172 24.5645C11.0944 24.4847 11.0716 24.4049 11.0488 24.3252C11.0033 24.1201 10.9577 23.9207 10.9121 23.7271C10.8665 23.5334 10.8096 23.3454 10.7412 23.1631C10.6842 23.0036 10.6216 22.884 10.5532 22.8042C10.4735 22.7017 10.4222 22.5706 10.3994 22.4111C10.3083 22.1605 10.2228 21.9041 10.1431 21.6421C10.0633 21.38 10.0007 21.1009 9.95508 20.8047C9.88672 20.3717 9.80127 20.0356 9.69873 19.7964C9.60758 19.5913 9.53353 19.3577 9.47656 19.0957C9.32845 18.7425 9.13477 18.3438 8.89551 17.8994C8.77018 17.6715 8.65055 17.4608 8.53662 17.2671C8.43408 17.062 8.33724 16.874 8.24609 16.7031C8.22331 16.6462 8.20622 16.5949 8.19482 16.5493C8.18343 16.5037 8.17204 16.4639 8.16064 16.4297C8.14925 16.3613 8.10938 16.3044 8.04102 16.2588C7.91569 16.3841 7.81315 16.5778 7.7334 16.8398C7.66504 17.0791 7.57389 17.2842 7.45996 17.4551C7.20931 17.8538 7.0498 18.1785 6.98145 18.4292C6.91309 18.6799 6.81055 18.9134 6.67383 19.1299C6.60547 19.597 6.48014 19.9958 6.29785 20.3262C6.24089 20.6566 6.12695 20.8958 5.95605 21.0439C5.84212 21.4541 5.7054 21.8643 5.5459 22.2744C5.46615 22.4795 5.38639 22.6846 5.30664 22.8896C5.23828 23.0833 5.16992 23.277 5.10156 23.4707C5.0446 23.71 4.98763 23.9036 4.93066 24.0518C4.8623 24.2227 4.83952 24.4049 4.8623 24.5986C4.8623 24.7695 4.83382 24.929 4.77686 25.0771C4.71989 25.2253 4.66862 25.3848 4.62305 25.5557C4.50911 25.8747 4.26416 26.0684 3.88818 26.1367C3.70589 26.1709 3.5236 26.2051 3.34131 26.2393C3.15902 26.2848 2.98242 26.3304 2.81152 26.376C2.74316 26.3988 2.66911 26.4215 2.58936 26.4443C2.5096 26.4671 2.42415 26.4899 2.33301 26.5127C2.05957 26.5811 1.76904 26.7007 1.46143 26.8716C1.14242 27.0425 0.829102 27.1051 0.521484 27.0596C0.316406 27.014 0.24235 26.8944 0.299316 26.7007C0.356283 26.507 0.441732 26.3646 0.555664 26.2734C0.669596 26.0228 0.789225 25.7721 0.914551 25.5215C1.03988 25.2708 1.1709 25.0316 1.30762 24.8037C1.36458 24.5872 1.44434 24.4277 1.54688 24.3252C1.6722 24.2454 1.76335 24.1201 1.82031 23.9492C1.86589 23.9036 1.90576 23.8467 1.93994 23.7783C1.97412 23.71 2.0026 23.653 2.02539 23.6074C2.05957 23.5277 2.08805 23.408 2.11084 23.2485C2.13363 23.089 2.16211 22.9694 2.19629 22.8896C2.23047 22.7985 2.26465 22.7074 2.29883 22.6162C2.33301 22.5137 2.36149 22.4168 2.38428 22.3257C2.44124 22.1092 2.52669 21.8984 2.64062 21.6934L2.79443 21.2832C2.81722 21.2148 2.8457 21.1408 2.87988 21.061C2.91406 20.9813 2.94824 20.8958 2.98242 20.8047C3.03939 20.6566 3.10775 20.5256 3.1875 20.4116C3.27865 20.2749 3.3584 20.1439 3.42676 20.0186C3.56348 19.6882 3.66602 19.4318 3.73438 19.2495C3.81413 19.0444 3.90527 18.8564 4.00781 18.6855C4.21289 18.1615 4.42367 17.7228 4.64014 17.3696C4.76546 17.1759 4.88509 16.9709 4.99902 16.7544C5.11296 16.5379 5.22689 16.3158 5.34082 16.0879C5.36361 16.0537 5.38639 16.0195 5.40918 15.9854C5.43197 15.9512 5.45475 15.9227 5.47754 15.8999C5.52311 15.8543 5.55729 15.7803 5.58008 15.6777C5.67122 15.6208 5.73958 15.541 5.78516 15.4385C5.83073 15.3359 5.89909 15.2562 5.99023 15.1992C6.08138 15.0625 6.14974 14.9258 6.19531 14.7891C6.25228 14.641 6.32064 14.527 6.40039 14.4473C6.62826 14.0257 6.84473 13.57 7.0498 13.0801C7.07259 13.0231 7.08968 12.9718 7.10107 12.9263C7.11247 12.8693 7.12386 12.818 7.13525 12.7725C7.15804 12.6357 7.18652 12.5446 7.2207 12.499C7.34603 12.3509 7.43148 12.2256 7.47705 12.123C7.52262 12.0091 7.5625 11.9294 7.59668 11.8838C7.64225 11.804 7.68783 11.73 7.7334 11.6616C7.79036 11.5819 7.84163 11.5021 7.88721 11.4224C7.94417 11.3426 7.99544 11.2629 8.04102 11.1831C8.08659 11.1034 8.13216 11.0179 8.17773 10.9268C8.29167 10.5964 8.44548 10.283 8.63916 9.98682C8.83285 9.6792 8.98665 9.37728 9.10059 9.08105C9.2373 8.87598 9.31706 8.76204 9.33984 8.73926C9.36263 8.71647 9.37402 8.68229 9.37402 8.63672C9.67025 8.06706 9.93799 7.53727 10.1772 7.04736C10.4165 6.55745 10.6615 6.05046 10.9121 5.52637C10.6387 5.58333 10.4165 5.69727 10.2456 5.86816C10.0747 6.03906 9.87533 6.16439 9.64746 6.24414C9.5791 6.33529 9.53353 6.39225 9.51074 6.41504L9.37402 6.55176C8.80436 6.8252 8.28027 7.13281 7.80176 7.47461C7.32324 7.81641 6.90169 8.23796 6.53711 8.73926C6.3776 8.80762 6.25798 8.87028 6.17822 8.92725C6.12126 8.97282 6.05859 9.0127 5.99023 9.04688C5.93327 9.08105 5.8763 9.11523 5.81934 9.14941C5.65983 9.21777 5.45475 9.26335 5.2041 9.28613C4.95345 9.30892 4.75977 9.22917 4.62305 9.04688C4.54329 8.38607 4.60026 7.89616 4.79395 7.57715C5.01042 7.23535 5.2041 6.91634 5.375 6.62012C5.63704 6.38086 5.95605 6.1359 6.33203 5.88525L7.32324 5.25293C7.61947 5.04785 7.80745 4.91113 7.88721 4.84277C7.94417 4.7972 8.02962 4.74023 8.14355 4.67188C8.41699 4.48958 8.69613 4.3016 8.98096 4.10791C9.26579 3.90283 9.55632 3.69206 9.85254 3.47559C10.2057 3.15658 10.6045 2.91732 11.0488 2.75781C11.2653 2.68945 11.4647 2.63249 11.647 2.58691C11.8293 2.52995 11.9945 2.47868 12.1426 2.43311C12.2907 2.38753 12.4331 2.34196 12.5698 2.29639C12.7065 2.25081 12.8376 2.19954 12.9629 2.14258C13.6921 2.00586 14.3643 1.82926 14.9795 1.61279C15.5947 1.39632 16.2214 1.17415 16.8594 0.946289C17.0189 0.923503 17.1727 0.906413 17.3208 0.89502C17.4689 0.883626 17.617 0.872233 17.7651 0.86084L18.7051 0.80957C18.7962 0.87793 18.9272 0.906413 19.0981 0.89502C19.1893 0.883626 19.269 0.883626 19.3374 0.89502C19.4172 0.89502 19.4912 0.900716 19.5596 0.912109C19.6507 0.934896 19.7419 0.957682 19.833 0.980469C19.9242 0.991862 20.0096 1.00895 20.0894 1.03174C20.1805 1.04313 20.266 1.06022 20.3457 1.08301C20.4368 1.10579 20.528 1.12858 20.6191 1.15137C20.7673 1.28809 20.9666 1.38493 21.2173 1.44189C21.4338 1.48747 21.6787 1.56152 21.9521 1.66406C22.1344 1.75521 22.3053 1.84066 22.4648 1.92041C22.6243 2.00016 22.7952 2.08561 22.9775 2.17676C23.137 2.37044 23.2111 2.52995 23.1997 2.65527C23.1883 2.72363 23.1826 2.80908 23.1826 2.91162C23.194 3.00277 23.2054 3.111 23.2168 3.23633L23.2681 3.56104C23.2909 3.69775 23.3079 3.80599 23.3193 3.88574C23.3193 3.97689 23.3364 4.05664 23.3706 4.125C23.4048 4.19336 23.4219 4.26172 23.4219 4.33008C23.4333 4.52376 23.4447 4.71745 23.4561 4.91113C23.4788 5.09342 23.4959 5.28141 23.5073 5.4751C23.5415 5.87386 23.5358 6.25553 23.4902 6.62012C23.4333 6.92773 23.3535 7.1613 23.251 7.3208C23.194 7.41195 23.137 7.51449 23.0801 7.62842C23.0231 7.74235 22.9661 7.86198 22.9092 7.9873C22.7725 8.21517 22.6243 8.44303 22.4648 8.6709C22.3053 8.89876 22.1344 9.13802 21.9521 9.38867C21.918 9.41146 21.8838 9.43424 21.8496 9.45703C21.8154 9.46842 21.7869 9.48551 21.7642 9.5083C21.6958 9.55387 21.6559 9.61654 21.6445 9.69629C21.3255 9.93555 21.0521 10.1178 20.8242 10.2432C20.6077 10.3571 20.3913 10.4938 20.1748 10.6533C20.0837 10.6989 19.9925 10.7445 19.9014 10.79C19.8102 10.8356 19.7191 10.8812 19.6279 10.9268C19.5254 11.0293 19.4115 11.1204 19.2861 11.2002C19.2178 11.2458 19.1494 11.2913 19.0811 11.3369C19.0241 11.3825 18.9671 11.4281 18.9102 11.4736C18.7279 11.6559 18.5684 11.7812 18.4316 11.8496C18.3063 11.918 18.2152 12.0319 18.1582 12.1914C17.6569 12.4648 17.1898 12.8009 16.7568 13.1997C16.3695 13.5529 15.9251 13.9004 15.4238 14.2422C15.3327 14.3219 15.2415 14.4017 15.1504 14.4814C15.0706 14.5612 14.9852 14.641 14.894 14.7207C14.7345 14.8688 14.5352 15.0055 14.2959 15.1309C13.9769 15.2676 13.7433 15.3929 13.5952 15.5068C13.4585 15.6094 13.2591 15.6891 12.9971 15.7461C12.3932 16.1107 11.6755 16.3385 10.8438 16.4297ZM18.4658 3.09961C18.3519 3.1224 18.238 3.13379 18.124 3.13379C17.9645 3.13379 17.8164 3.15658 17.6797 3.20215C17.5658 3.22493 17.4461 3.25911 17.3208 3.30469C17.1955 3.33887 17.0645 3.38444 16.9277 3.44141C16.791 3.49837 16.6543 3.54964 16.5176 3.59521C16.3809 3.62939 16.2441 3.65788 16.1074 3.68066C15.9251 3.72624 15.7599 3.77181 15.6118 3.81738C15.4751 3.85156 15.3498 3.88574 15.2358 3.91992C14.9966 3.99967 14.8428 4.05664 14.7744 4.09082C14.7402 4.125 14.7118 4.20475 14.689 4.33008C14.6662 4.4668 14.6377 4.55794 14.6035 4.60352C14.5124 4.83138 14.3984 5.04215 14.2617 5.23584C14.125 5.41813 14.0225 5.60612 13.9541 5.7998C13.7148 6.06185 13.5326 6.35238 13.4072 6.67139C13.3503 6.8195 13.2933 6.96191 13.2363 7.09863C13.1794 7.22396 13.1224 7.34928 13.0654 7.47461C12.9173 7.66829 12.7863 7.85059 12.6724 8.02148C12.5584 8.19238 12.4616 8.35189 12.3818 8.5L12.1768 8.72217C12.154 8.74495 12.1426 8.77344 12.1426 8.80762C11.8691 9.08105 11.647 9.38867 11.4761 9.73047C11.3052 10.0723 11.0944 10.3685 10.8438 10.6191C10.7526 10.7559 10.6729 10.8869 10.6045 11.0122C10.5475 11.1261 10.4963 11.2344 10.4507 11.3369C10.3595 11.5648 10.2285 11.7471 10.0576 11.8838L9.80127 12.4136C9.7557 12.4933 9.71012 12.5788 9.66455 12.6699C9.63037 12.7611 9.59049 12.8522 9.54492 12.9434C9.35124 13.3763 9.10059 13.8206 8.79297 14.2764C8.79297 14.3789 8.76449 14.4701 8.70752 14.5498C8.67334 14.5954 8.62207 14.6751 8.55371 14.7891C8.64486 14.8574 8.736 14.8688 8.82715 14.8232C8.91829 14.7777 8.99805 14.7321 9.06641 14.6865C9.60189 14.3903 10.1715 14.134 10.7754 13.9175C11.4248 13.6896 11.9831 13.4105 12.4502 13.0801C12.8831 12.8294 13.2819 12.5959 13.6465 12.3794C14.0111 12.1629 14.3643 11.9294 14.7061 11.6787L15.4922 11.2515C15.5833 11.1945 15.6802 11.1432 15.7827 11.0977C15.8966 11.0521 16.0163 11.0065 16.1416 10.9609C16.3467 10.79 16.5404 10.6533 16.7227 10.5508C16.9163 10.4368 17.0758 10.3001 17.2012 10.1406C17.429 9.95833 17.6569 9.72477 17.8848 9.43994C18.1126 9.15511 18.3291 8.91016 18.5342 8.70508C18.6481 8.69368 18.7165 8.65381 18.7393 8.58545C18.762 8.52848 18.8304 8.5 18.9443 8.5C19.138 8.23796 19.3602 8.01579 19.6108 7.8335C19.8729 7.63981 20.0723 7.41764 20.209 7.16699C20.3343 6.97331 20.4198 6.79102 20.4653 6.62012C20.5223 6.42643 20.6077 6.22135 20.7217 6.00488C20.6761 5.83398 20.716 5.646 20.8413 5.44092C20.9666 5.23584 21.0065 5.05924 20.9609 4.91113C20.904 4.72884 20.8128 4.58643 20.6875 4.48389C20.5508 4.36995 20.4482 4.23893 20.3799 4.09082C20.3343 3.89714 20.283 3.76042 20.2261 3.68066C20.1805 3.60091 20.1292 3.48698 20.0723 3.33887C20.0267 3.31608 19.9811 3.29329 19.9355 3.27051C19.9014 3.24772 19.8672 3.22493 19.833 3.20215C19.776 3.15658 19.6621 3.14518 19.4912 3.16797C19.3773 3.111 19.2235 3.09391 19.0298 3.1167C18.9386 3.12809 18.8418 3.13379 18.7393 3.13379C18.6481 3.1224 18.557 3.111 18.4658 3.09961ZM20.1406 18.4463C20.2887 18.3665 20.471 18.1956 20.6875 17.9336C20.904 17.6602 21.1147 17.3981 21.3198 17.1475C21.5249 16.8854 21.6787 16.7373 21.7812 16.7031C21.8496 16.5892 21.9123 16.4924 21.9692 16.4126C22.0262 16.3328 22.1117 16.2588 22.2256 16.1904C22.4079 15.86 22.6471 15.5809 22.9434 15.353C23.251 15.1138 23.5358 14.8574 23.7979 14.584C24.0143 14.4928 24.2308 14.3903 24.4473 14.2764C24.6751 14.1624 24.8973 14.0314 25.1138 13.8833C25.5581 13.5871 26.0537 13.4333 26.6006 13.4219C26.8512 13.5358 27.0962 13.57 27.3354 13.5244C27.5633 13.4788 27.7855 13.5358 28.002 13.6953C28.1273 13.9118 28.2298 14.0428 28.3096 14.0884C28.3893 14.134 28.4577 14.1966 28.5146 14.2764C28.6058 14.5612 28.6742 14.7492 28.7197 14.8403C28.7767 14.9315 28.8109 15.0283 28.8223 15.1309C28.8337 15.3018 28.8451 15.4499 28.8564 15.5752C28.8678 15.6891 28.8792 15.786 28.8906 15.8657C28.902 16.0138 28.902 16.1562 28.8906 16.293C28.8223 16.874 28.7083 17.4551 28.5488 18.0361C28.526 18.1045 28.5033 18.1729 28.4805 18.2412C28.4577 18.3096 28.4349 18.3836 28.4121 18.4634C28.3665 18.6115 28.3096 18.7425 28.2412 18.8564C28.0703 19.0729 27.9507 19.2495 27.8823 19.3862C27.7798 19.5685 27.7057 19.6882 27.6602 19.7451C27.5234 19.8818 27.3924 20.0072 27.2671 20.1211C27.1532 20.235 27.0449 20.3376 26.9424 20.4287C26.8398 20.4857 26.7373 20.5483 26.6348 20.6167C26.5322 20.6737 26.4297 20.7363 26.3271 20.8047C26.1335 20.93 25.9056 21.0212 25.6436 21.0781L25.3359 21.2661C25.2334 21.3345 25.1195 21.3743 24.9941 21.3857C24.7891 21.5339 24.5612 21.6535 24.3105 21.7446C24.1966 21.7902 24.077 21.8358 23.9517 21.8813C23.8377 21.9269 23.7181 21.9782 23.5928 22.0352C23.4219 22.1035 23.2738 22.1833 23.1484 22.2744C23.0231 22.3656 22.8636 22.4567 22.6699 22.5479C22.5674 22.582 22.4022 22.6219 22.1743 22.6675C21.9578 22.7017 21.804 22.7415 21.7129 22.7871C21.8268 23.015 21.8724 23.2998 21.8496 23.6416C21.8382 23.9606 21.8952 24.2454 22.0205 24.4961C22.3167 24.5645 22.6414 24.6157 22.9946 24.6499C23.3478 24.6841 23.6839 24.6784 24.0029 24.6328C24.0599 24.6214 24.1169 24.6043 24.1738 24.5815C24.2422 24.5588 24.3105 24.536 24.3789 24.5132C24.4473 24.4904 24.5156 24.4676 24.584 24.4448C24.6523 24.422 24.7207 24.4049 24.7891 24.3936C25.0397 24.348 25.2847 24.291 25.5239 24.2227C25.7632 24.1543 25.974 24.0632 26.1562 23.9492C26.8171 23.7214 27.4551 23.4137 28.0703 23.0264C28.6855 22.639 29.221 22.2174 29.6768 21.7617C29.9502 21.5794 30.2521 21.3288 30.5825 21.0098C30.9129 20.6908 31.1693 20.3945 31.3516 20.1211C31.6934 19.7565 31.9953 19.4717 32.2573 19.2666C32.5194 19.0615 32.7643 18.9704 32.9922 18.9932C33.1745 18.9932 33.3511 19.1014 33.522 19.3179C33.6929 19.5343 33.6758 19.7679 33.4707 20.0186C33.2542 20.1553 33.015 20.3604 32.7529 20.6338C32.5023 20.9072 32.2402 21.1009 31.9668 21.2148C31.7731 21.3402 31.5168 21.5908 31.1978 21.9668C30.8901 22.32 30.6338 22.5934 30.4287 22.7871C30.3831 22.8327 30.3319 22.884 30.2749 22.9409C30.2179 22.9979 30.1496 23.0549 30.0698 23.1118C29.9217 23.2257 29.8021 23.3454 29.7109 23.4707C29.3577 23.7669 29.016 24.0176 28.6855 24.2227C28.5602 24.1771 28.4577 24.1999 28.3779 24.291C28.2754 24.4163 28.1842 24.5075 28.1045 24.5645C28.0703 24.5872 28.0361 24.61 28.002 24.6328C27.9678 24.6556 27.9279 24.6784 27.8823 24.7012C27.8368 24.724 27.7969 24.7467 27.7627 24.7695C27.7285 24.7923 27.6943 24.8151 27.6602 24.8379C27.4779 24.9974 27.2785 25.1569 27.062 25.3164C26.8455 25.4759 26.6234 25.6126 26.3955 25.7266C26.1676 25.8633 25.9398 25.9886 25.7119 26.1025C25.484 26.2279 25.2562 26.3361 25.0283 26.4272C24.8005 26.5184 24.5726 26.6266 24.3447 26.752C24.1283 26.8773 23.9118 27.014 23.6953 27.1621L23.3193 27.2134C23.2624 27.2248 23.2054 27.2305 23.1484 27.2305C23.0915 27.2419 23.0345 27.2533 22.9775 27.2646C22.8522 27.3102 22.7326 27.333 22.6187 27.333C22.5047 27.333 22.3623 27.3102 22.1914 27.2646C21.4395 27.0596 20.8242 26.695 20.3457 26.1709C20.2773 26.1025 20.2033 26.0399 20.1235 25.9829C20.0552 25.9146 19.9811 25.8519 19.9014 25.7949C19.7191 25.6582 19.5938 25.5329 19.5254 25.4189C19.4229 25.248 19.3203 24.9803 19.2178 24.6157C19.1038 24.2511 19.007 23.8809 18.9272 23.5049C18.8475 23.1175 18.8076 22.8213 18.8076 22.6162C18.876 22.4795 18.95 22.2459 19.0298 21.9155C19.1095 21.5737 19.1779 21.2376 19.2349 20.9072C19.2918 20.5654 19.3203 20.3262 19.3203 20.1895C19.3659 20.1439 19.457 19.9958 19.5938 19.7451C19.7191 19.4831 19.8387 19.221 19.9526 18.959C20.078 18.6855 20.1406 18.5146 20.1406 18.4463ZM25.6436 16.2588C25.484 16.4639 25.3245 16.6576 25.165 16.8398C25.0055 17.0221 24.8232 17.193 24.6182 17.3525C24.4814 17.6032 24.3219 17.8311 24.1396 18.0361C23.9574 18.2412 23.7751 18.4349 23.5928 18.6172C23.5016 18.7995 23.3991 18.9419 23.2852 19.0444C23.1712 19.147 23.0459 19.2552 22.9092 19.3691C22.7611 19.6198 22.5788 19.859 22.3623 20.0869C22.1458 20.3148 22.1003 20.5768 22.2256 20.873C22.4762 20.9186 22.7269 20.8844 22.9775 20.7705C23.2282 20.6566 23.4447 20.554 23.627 20.4629C23.7181 20.4059 23.8092 20.3547 23.9004 20.3091C24.0029 20.2635 24.0998 20.2179 24.1909 20.1724C24.2821 20.1268 24.3732 20.0812 24.4644 20.0356C24.5555 19.9901 24.641 19.9388 24.7207 19.8818L25.6094 18.9932C25.7461 18.8678 25.8828 18.7197 26.0195 18.5488C26.0765 18.4691 26.1335 18.3893 26.1904 18.3096C26.2588 18.2184 26.3271 18.1273 26.3955 18.0361C26.4525 17.7855 26.5436 17.5519 26.6689 17.3354C26.8057 17.1076 26.8626 16.874 26.8398 16.6348C26.8285 16.5322 26.7886 16.4126 26.7202 16.2759C26.6519 16.1392 26.612 16.0309 26.6006 15.9512C26.3613 15.9512 26.1847 15.991 26.0708 16.0708C26.0138 16.1164 25.9455 16.1562 25.8657 16.1904C25.7974 16.2132 25.7233 16.236 25.6436 16.2588ZM36.0684 14.1738C36.2507 14.1283 36.3532 14.1226 36.376 14.1567C36.3988 14.1909 36.4443 14.208 36.5127 14.208C36.6038 14.3333 36.6152 14.5156 36.5469 14.7549C36.4671 15.1195 36.3076 15.467 36.0684 15.7974C35.8291 16.1278 35.6468 16.4525 35.5215 16.7715C35.4417 16.931 35.3677 17.0734 35.2993 17.1987C35.2424 17.3127 35.1911 17.4152 35.1455 17.5063C35.0999 17.5861 35.0544 17.6715 35.0088 17.7627C34.9746 17.8538 34.9404 17.945 34.9062 18.0361C34.7923 18.2868 34.6784 18.5659 34.5645 18.8735C34.4505 19.1812 34.3366 19.4945 34.2227 19.8135L34.0176 20.2578C33.9036 20.5085 33.8125 20.7306 33.7441 20.9243C33.6758 21.118 33.6302 21.363 33.6074 21.6592V22.582C33.6302 22.7415 33.6473 22.9067 33.6587 23.0776C33.6701 23.2485 33.6815 23.4251 33.6929 23.6074C33.7157 23.9834 33.7897 24.291 33.915 24.5303C34.1999 24.3936 34.5075 24.16 34.8379 23.8296C34.9974 23.6701 35.1455 23.5277 35.2822 23.4023C35.4303 23.2656 35.5671 23.1517 35.6924 23.0605C35.8519 22.8327 36.0285 22.6219 36.2222 22.4282C36.4272 22.2231 36.5924 22.001 36.7178 21.7617C36.9912 21.5339 37.1735 21.2376 37.2646 20.873C37.3786 20.7477 37.4868 20.6053 37.5894 20.4458C37.6463 20.366 37.6976 20.292 37.7432 20.2236C37.8001 20.1439 37.8571 20.0641 37.9141 19.9844C38.085 19.7451 38.2331 19.4603 38.3584 19.1299C38.4268 18.9362 38.4552 18.7539 38.4438 18.583C38.4325 18.4919 38.4268 18.4007 38.4268 18.3096C38.4268 18.2184 38.4268 18.1273 38.4268 18.0361C38.4382 17.8424 38.4723 17.6488 38.5293 17.4551C38.5749 17.2956 38.5863 17.1133 38.5635 16.9082C38.5977 16.8512 38.6375 16.7544 38.6831 16.6177C38.7287 16.481 38.7686 16.3727 38.8027 16.293C38.8483 16.179 38.9338 16.0537 39.0591 15.917C39.1844 15.7803 39.304 15.6549 39.418 15.541C39.4977 15.4385 39.5718 15.3359 39.6401 15.2334C39.7199 15.1309 39.7939 15.0283 39.8623 14.9258C39.9876 14.7321 40.1585 14.5726 40.375 14.4473L40.7852 14.2764C40.9561 14.1966 41.0928 14.151 41.1953 14.1396C41.3662 14.1169 41.5941 14.0656 41.8789 13.9858C42.1751 13.8947 42.403 13.8776 42.5625 13.9346C42.6536 13.946 42.7391 13.9972 42.8188 14.0884C42.8986 14.1567 42.9954 14.151 43.1094 14.0713C43.2917 14.265 43.3828 14.4359 43.3828 14.584C43.3828 14.7207 43.3372 14.8688 43.2461 15.0283C43.098 15.2448 43.0182 15.3758 43.0068 15.4214C42.9954 15.4442 42.984 15.4727 42.9727 15.5068C42.9613 15.5296 42.9499 15.5524 42.9385 15.5752C42.7334 15.917 42.5283 16.293 42.3232 16.7031C42.1182 17.1133 41.9473 17.5007 41.8105 17.8652C42.0384 17.9792 42.3403 18.0304 42.7163 18.019C43.0923 18.0076 43.4284 17.9678 43.7246 17.8994C43.7702 17.888 43.8101 17.8766 43.8442 17.8652C43.8898 17.8538 43.9354 17.8424 43.981 17.8311C44.0265 17.8197 44.0664 17.8083 44.1006 17.7969C44.1462 17.7855 44.1917 17.7741 44.2373 17.7627C44.3854 17.7171 44.6076 17.6772 44.9038 17.6431C45.1431 17.6089 45.3652 17.5462 45.5703 17.4551C45.8324 17.3184 45.9919 17.25 46.0488 17.25C46.1286 17.25 46.2083 17.2272 46.2881 17.1816C46.5046 17.1247 46.7039 17.0677 46.8862 17.0107C47.0685 16.9538 47.2337 16.8968 47.3818 16.8398C47.4616 16.8171 47.5413 16.7943 47.6211 16.7715C47.7008 16.7373 47.7806 16.6974 47.8604 16.6519C48.0199 16.5607 48.168 16.5436 48.3047 16.6006C48.3503 16.6462 48.3674 16.7259 48.356 16.8398C48.3446 16.9424 48.373 17.0563 48.4414 17.1816C48.2591 17.3298 48.1224 17.3981 48.0312 17.3867C47.849 17.4779 47.661 17.5633 47.4673 17.6431C47.2736 17.7228 47.0685 17.8026 46.8521 17.8823L45.6387 18.3096C45.3652 18.4349 45.1829 18.4862 45.0918 18.4634C45.012 18.4406 44.9095 18.4577 44.7842 18.5146C44.4082 18.6855 44.0835 18.8109 43.8101 18.8906C43.5822 18.959 43.3828 19.0387 43.2119 19.1299C43.1208 19.1982 43.0581 19.2495 43.0239 19.2837C42.967 19.3407 42.8929 19.3805 42.8018 19.4033C42.4144 19.4717 42.084 19.5002 41.8105 19.4888C41.5257 19.4774 41.2295 19.5514 40.9219 19.7109C40.8535 19.8477 40.7624 20.0015 40.6484 20.1724C40.5345 20.3433 40.4092 20.4857 40.2725 20.5996C40.1585 20.8275 40.0389 21.0212 39.9136 21.1807C39.7882 21.3402 39.6458 21.5111 39.4863 21.6934C39.2812 21.8757 39.0762 22.0693 38.8711 22.2744C38.666 22.4795 38.4723 22.6732 38.29 22.8555C37.971 23.3796 37.6007 23.8638 37.1792 24.3081C36.7576 24.7524 36.319 25.1911 35.8633 25.624C35.7493 25.6354 35.6411 25.6867 35.5386 25.7778C35.4588 25.8462 35.3506 25.9089 35.2139 25.9658C35.0658 26.0114 34.9461 26.0456 34.855 26.0684C34.7752 26.1025 34.724 26.1253 34.7012 26.1367C34.6556 26.1481 34.5872 26.1823 34.4961 26.2393C34.3366 26.3076 34.217 26.3703 34.1372 26.4272C34.0688 26.4728 34.0176 26.5127 33.9834 26.5469C33.9264 26.5924 33.8581 26.6152 33.7783 26.6152C33.7214 26.6152 33.6644 26.6608 33.6074 26.752C33.3226 26.695 33.1517 26.7292 33.0947 26.8545C33.0036 26.8545 32.9124 26.8659 32.8213 26.8887C32.7529 26.9115 32.6732 26.9115 32.582 26.8887C32.5137 26.8317 32.4624 26.7804 32.4282 26.7349C32.3826 26.6665 32.3428 26.6152 32.3086 26.5811C31.9668 26.4443 31.7617 26.2962 31.6934 26.1367C31.6136 25.9658 31.5111 25.8405 31.3857 25.7607C31.2832 25.5215 31.2205 25.248 31.1978 24.9404C31.1864 24.8037 31.175 24.667 31.1636 24.5303C31.1522 24.3822 31.1351 24.234 31.1123 24.0859C31.1009 24.0404 31.0895 24.0005 31.0781 23.9663C31.0667 23.9207 31.0553 23.8752 31.0439 23.8296C31.0326 23.784 31.0212 23.7441 31.0098 23.71C30.9984 23.6644 30.987 23.6188 30.9756 23.5732C30.93 23.391 30.9129 23.2087 30.9243 23.0264C30.9357 22.8555 30.9072 22.6732 30.8389 22.4795C30.9528 22.1149 30.9642 21.7617 30.873 21.4199C30.9186 21.2604 30.9756 21.0496 31.0439 20.7876C31.1123 20.5256 31.1579 20.3034 31.1807 20.1211C31.2376 19.6426 31.3231 19.2438 31.437 18.9248C31.5623 18.6058 31.7503 18.207 32.001 17.7285C32.0921 17.5234 32.1947 17.3184 32.3086 17.1133C32.3656 17.0107 32.4225 16.9082 32.4795 16.8057C32.5365 16.6917 32.5934 16.5778 32.6504 16.4639C32.7074 16.3499 32.7529 16.2588 32.7871 16.1904C32.8327 16.1107 32.8612 16.0537 32.8726 16.0195C32.9181 15.9398 32.9922 15.8145 33.0947 15.6436L33.2656 15.3359C33.334 15.222 33.4137 15.1195 33.5049 15.0283C33.6872 14.846 33.8581 14.7036 34.0176 14.6011C34.1771 14.4985 34.3708 14.3903 34.5986 14.2764C34.8151 14.3219 35.0942 14.2821 35.436 14.1567C35.7778 14.0314 35.9886 14.0371 36.0684 14.1738ZM52.1328 8.87598L52.4746 8.97852C52.5202 9.03548 52.543 9.10384 52.543 9.18359C52.543 9.24056 52.5771 9.29753 52.6455 9.35449C52.5999 9.55957 52.5601 9.77035 52.5259 9.98682C52.4917 10.2033 52.4746 10.4141 52.4746 10.6191C52.4746 10.6989 52.5031 10.7786 52.5601 10.8584C52.617 10.9382 52.6455 11.0065 52.6455 11.0635C52.5316 11.3255 52.4461 11.485 52.3892 11.542C52.3322 11.599 52.3037 11.6559 52.3037 11.7129C52.1898 11.7585 52.1043 11.8268 52.0474 11.918C51.9904 12.0091 51.8936 12.0547 51.7568 12.0547C51.7113 12.123 51.66 12.1743 51.603 12.2085C51.5347 12.2541 51.4948 12.3167 51.4834 12.3965C51.1074 12.556 50.6973 12.5446 50.2529 12.3623C50.1276 12.1458 49.9681 11.9977 49.7744 11.918C49.4782 11.485 49.4668 10.9723 49.7402 10.3799C49.7858 10.266 49.8371 10.1463 49.894 10.021C49.951 9.89567 50.0023 9.81022 50.0479 9.76465C50.2871 9.59375 50.4694 9.47982 50.5947 9.42285C50.6403 9.40007 50.6859 9.37728 50.7314 9.35449C50.7884 9.32031 50.8397 9.28613 50.8853 9.25195C50.965 9.19499 51.0846 9.13802 51.2441 9.08105C51.3125 9.05827 51.3752 9.04688 51.4321 9.04688C51.5233 9.04688 51.6087 9.02409 51.6885 8.97852C51.734 8.96712 51.7739 8.95573 51.8081 8.94434C51.8537 8.93294 51.8936 8.92155 51.9277 8.91016C52.0189 8.88737 52.0872 8.87598 52.1328 8.87598ZM47.0059 24.0176L47.1768 24.0859C47.3818 23.9948 47.6325 23.9606 47.9287 23.9834C48.2363 24.0062 48.4756 23.9606 48.6465 23.8467C48.7604 23.7555 48.8402 23.6872 48.8857 23.6416C48.9541 23.5732 49.0339 23.5505 49.125 23.5732C49.4896 23.4365 49.7972 23.2998 50.0479 23.1631C50.3099 23.0264 50.5833 22.9238 50.8682 22.8555C51.0505 22.7871 51.21 22.6846 51.3467 22.5479C51.8138 22.3997 52.2069 22.189 52.5259 21.9155C52.8563 21.6421 53.2152 21.3516 53.6025 21.0439C53.9215 20.8617 54.1893 20.7021 54.4058 20.5654C54.6222 20.4287 54.8558 20.2578 55.1064 20.0527C55.1634 19.9274 55.2261 19.842 55.2944 19.7964C55.3514 19.7622 55.4141 19.6882 55.4824 19.5742C55.8926 19.5742 56.1204 19.7337 56.166 20.0527C56.0521 20.3034 55.8983 20.5085 55.7046 20.668C55.4995 20.8389 55.3229 21.0212 55.1748 21.2148C54.9925 21.3288 54.8444 21.4313 54.7305 21.5225C54.6165 21.6136 54.5026 21.7503 54.3887 21.9326C54.3773 21.9326 54.3089 21.9839 54.1836 22.0864C54.0697 22.189 54.0013 22.2402 53.9785 22.2402C53.7962 22.4567 53.6595 22.5877 53.5684 22.6333C53.4772 22.6789 53.3177 22.7985 53.0898 22.9922C52.9417 23.2428 52.7367 23.4479 52.4746 23.6074C51.9847 24.0745 51.4663 24.4676 50.9194 24.7866C50.6346 24.9461 50.3669 25.1113 50.1162 25.2822C49.8656 25.4417 49.6263 25.6012 49.3984 25.7607C49.2845 25.8291 49.2048 25.8918 49.1592 25.9487C49.1136 26.0057 49.0339 26.0798 48.9199 26.1709C48.806 26.262 48.6294 26.3532 48.3901 26.4443C48.1509 26.5355 47.9401 26.6152 47.7578 26.6836C47.6097 26.7747 47.4844 26.8431 47.3818 26.8887C46.8691 26.9115 46.4818 26.8317 46.2197 26.6494C45.9235 26.4899 45.6956 26.3646 45.5361 26.2734C45.3766 26.1823 45.2399 26.0342 45.126 25.8291C44.8639 25.7038 44.7101 25.493 44.6646 25.1968C44.6418 25.0373 44.6133 24.8835 44.5791 24.7354C44.5449 24.5872 44.5107 24.4391 44.4766 24.291C44.4538 24.1771 44.431 24.0461 44.4082 23.8979C44.3854 23.7498 44.3854 23.596 44.4082 23.4365C44.4652 23.1745 44.4993 22.9067 44.5107 22.6333C44.5221 22.3826 44.5791 22.1377 44.6816 21.8984C44.7842 21.6706 44.8468 21.4199 44.8696 21.1465C44.8924 20.873 44.9551 20.6224 45.0576 20.3945C45.2057 20.1667 45.2684 20.0413 45.2456 20.0186C45.2342 20.0072 45.2399 19.973 45.2627 19.916L45.4165 19.7109C45.4507 19.6654 45.502 19.5856 45.5703 19.4717L45.7754 18.959C45.8779 18.7653 45.9805 18.6058 46.083 18.4805C46.1855 18.3438 46.2767 18.1501 46.3564 17.8994C46.4134 17.7399 46.4761 17.6146 46.5444 17.5234C46.59 17.4665 46.6299 17.4095 46.6641 17.3525C46.7096 17.2842 46.7552 17.2158 46.8008 17.1475C46.8577 17.0335 46.9147 16.8911 46.9717 16.7202C46.9945 16.6405 47.0173 16.5664 47.04 16.498C47.0742 16.4183 47.1084 16.3385 47.1426 16.2588C47.2109 16.0765 47.2964 15.8942 47.3989 15.7119C47.5015 15.5296 47.6097 15.3473 47.7236 15.165C47.8148 14.9827 47.8945 14.846 47.9629 14.7549C48.0312 14.6637 48.168 14.6068 48.373 14.584C48.4756 14.5612 48.5781 14.5669 48.6807 14.6011C48.806 14.6353 48.9199 14.6296 49.0225 14.584C49.3187 14.4473 49.5238 14.3789 49.6377 14.3789C49.7516 14.3789 49.8314 14.3447 49.877 14.2764C50.1162 14.2878 50.2985 14.3675 50.4238 14.5156C50.5492 14.6523 50.6859 14.7891 50.834 14.9258C50.6973 15.5866 50.5435 16.0936 50.3726 16.4468C50.2017 16.8 50.0137 17.1702 49.8086 17.5576C49.6947 17.7399 49.5807 17.945 49.4668 18.1729C49.3529 18.4007 49.2503 18.6058 49.1592 18.7881C49.0452 19.0387 48.9256 19.2609 48.8003 19.4546C48.6522 19.6825 48.5439 19.9046 48.4756 20.1211L48.3218 20.4458C48.2534 20.5825 48.2021 20.6908 48.168 20.7705C48.1452 20.8503 48.1167 20.93 48.0825 21.0098C48.0597 21.0781 48.0256 21.1408 47.98 21.1978C47.9344 21.2547 47.8945 21.3174 47.8604 21.3857C47.8262 21.4427 47.792 21.4997 47.7578 21.5566C47.6895 21.6934 47.6211 21.8301 47.5527 21.9668C47.4844 22.1035 47.4274 22.2516 47.3818 22.4111C47.2679 22.6618 47.1995 22.827 47.1768 22.9067C47.1654 22.9295 47.154 22.958 47.1426 22.9922C47.1312 23.015 47.1198 23.0378 47.1084 23.0605C47.0628 23.3112 46.9945 23.5163 46.9033 23.6758C46.8122 23.8353 46.8464 23.9492 47.0059 24.0176ZM53.9785 18.4463C54.1266 18.3665 54.3089 18.1956 54.5254 17.9336C54.7419 17.6602 54.9526 17.3981 55.1577 17.1475C55.3628 16.8854 55.5166 16.7373 55.6191 16.7031C55.6875 16.5892 55.7502 16.4924 55.8071 16.4126C55.8641 16.3328 55.9495 16.2588 56.0635 16.1904C56.2458 15.86 56.485 15.5809 56.7812 15.353C57.0889 15.1138 57.3737 14.8574 57.6357 14.584C57.8522 14.4928 58.0687 14.3903 58.2852 14.2764C58.513 14.1624 58.7352 14.0314 58.9517 13.8833C59.396 13.5871 59.8916 13.4333 60.4385 13.4219C60.6891 13.5358 60.9341 13.57 61.1733 13.5244C61.4012 13.4788 61.6234 13.5358 61.8398 13.6953C61.9652 13.9118 62.0677 14.0428 62.1475 14.0884C62.2272 14.134 62.2956 14.1966 62.3525 14.2764C62.4437 14.5612 62.512 14.7492 62.5576 14.8403C62.6146 14.9315 62.6488 15.0283 62.6602 15.1309C62.6715 15.3018 62.6829 15.4499 62.6943 15.5752C62.7057 15.6891 62.7171 15.786 62.7285 15.8657C62.7399 16.0138 62.7399 16.1562 62.7285 16.293C62.6602 16.874 62.5462 17.4551 62.3867 18.0361C62.3639 18.1045 62.3411 18.1729 62.3184 18.2412C62.2956 18.3096 62.2728 18.3836 62.25 18.4634C62.2044 18.6115 62.1475 18.7425 62.0791 18.8564C61.9082 19.0729 61.7886 19.2495 61.7202 19.3862C61.6177 19.5685 61.5436 19.6882 61.498 19.7451C61.3613 19.8818 61.2303 20.0072 61.105 20.1211C60.991 20.235 60.8828 20.3376 60.7803 20.4287C60.6777 20.4857 60.5752 20.5483 60.4727 20.6167C60.3701 20.6737 60.2676 20.7363 60.165 20.8047C59.9714 20.93 59.7435 21.0212 59.4814 21.0781L59.1738 21.2661C59.0713 21.3345 58.9574 21.3743 58.832 21.3857C58.627 21.5339 58.3991 21.6535 58.1484 21.7446C58.0345 21.7902 57.9149 21.8358 57.7896 21.8813C57.6756 21.9269 57.556 21.9782 57.4307 22.0352C57.2598 22.1035 57.1117 22.1833 56.9863 22.2744C56.861 22.3656 56.7015 22.4567 56.5078 22.5479C56.4053 22.582 56.2401 22.6219 56.0122 22.6675C55.7957 22.7017 55.6419 22.7415 55.5508 22.7871C55.6647 23.015 55.7103 23.2998 55.6875 23.6416C55.6761 23.9606 55.7331 24.2454 55.8584 24.4961C56.1546 24.5645 56.4793 24.6157 56.8325 24.6499C57.1857 24.6841 57.5218 24.6784 57.8408 24.6328C57.8978 24.6214 57.9548 24.6043 58.0117 24.5815C58.0801 24.5588 58.1484 24.536 58.2168 24.5132C58.2852 24.4904 58.3535 24.4676 58.4219 24.4448C58.4902 24.422 58.5586 24.4049 58.627 24.3936C58.8776 24.348 59.1226 24.291 59.3618 24.2227C59.6011 24.1543 59.8118 24.0632 59.9941 23.9492C60.6549 23.7214 61.293 23.4137 61.9082 23.0264C62.5234 22.639 63.0589 22.2174 63.5146 21.7617C63.7881 21.5794 64.09 21.3288 64.4204 21.0098C64.7508 20.6908 65.0072 20.3945 65.1895 20.1211C65.5312 19.7565 65.8332 19.4717 66.0952 19.2666C66.3573 19.0615 66.6022 18.9704 66.8301 18.9932C67.0124 18.9932 67.189 19.1014 67.3599 19.3179C67.5308 19.5343 67.5137 19.7679 67.3086 20.0186C67.0921 20.1553 66.8529 20.3604 66.5908 20.6338C66.3402 20.9072 66.0781 21.1009 65.8047 21.2148C65.611 21.3402 65.3547 21.5908 65.0356 21.9668C64.728 22.32 64.4717 22.5934 64.2666 22.7871C64.221 22.8327 64.1698 22.884 64.1128 22.9409C64.0558 22.9979 63.9875 23.0549 63.9077 23.1118C63.7596 23.2257 63.64 23.3454 63.5488 23.4707C63.1956 23.7669 62.8538 24.0176 62.5234 24.2227C62.3981 24.1771 62.2956 24.1999 62.2158 24.291C62.1133 24.4163 62.0221 24.5075 61.9424 24.5645C61.9082 24.5872 61.874 24.61 61.8398 24.6328C61.8057 24.6556 61.7658 24.6784 61.7202 24.7012C61.6746 24.724 61.6348 24.7467 61.6006 24.7695C61.5664 24.7923 61.5322 24.8151 61.498 24.8379C61.3158 24.9974 61.1164 25.1569 60.8999 25.3164C60.6834 25.4759 60.4613 25.6126 60.2334 25.7266C60.0055 25.8633 59.7777 25.9886 59.5498 26.1025C59.3219 26.2279 59.0941 26.3361 58.8662 26.4272C58.6383 26.5184 58.4105 26.6266 58.1826 26.752C57.9661 26.8773 57.7497 27.014 57.5332 27.1621L57.1572 27.2134C57.1003 27.2248 57.0433 27.2305 56.9863 27.2305C56.9294 27.2419 56.8724 27.2533 56.8154 27.2646C56.6901 27.3102 56.5705 27.333 56.4565 27.333C56.3426 27.333 56.2002 27.3102 56.0293 27.2646C55.2773 27.0596 54.6621 26.695 54.1836 26.1709C54.1152 26.1025 54.0412 26.0399 53.9614 25.9829C53.8931 25.9146 53.819 25.8519 53.7393 25.7949C53.557 25.6582 53.4316 25.5329 53.3633 25.4189C53.2607 25.248 53.1582 24.9803 53.0557 24.6157C52.9417 24.2511 52.8449 23.8809 52.7651 23.5049C52.6854 23.1175 52.6455 22.8213 52.6455 22.6162C52.7139 22.4795 52.7879 22.2459 52.8677 21.9155C52.9474 21.5737 53.0158 21.2376 53.0728 20.9072C53.1297 20.5654 53.1582 20.3262 53.1582 20.1895C53.2038 20.1439 53.2949 19.9958 53.4316 19.7451C53.557 19.4831 53.6766 19.221 53.7905 18.959C53.9159 18.6855 53.9785 18.5146 53.9785 18.4463ZM59.4814 16.2588C59.3219 16.4639 59.1624 16.6576 59.0029 16.8398C58.8434 17.0221 58.6611 17.193 58.4561 17.3525C58.3193 17.6032 58.1598 17.8311 57.9775 18.0361C57.7952 18.2412 57.613 18.4349 57.4307 18.6172C57.3395 18.7995 57.237 18.9419 57.123 19.0444C57.0091 19.147 56.8838 19.2552 56.7471 19.3691C56.599 19.6198 56.4167 19.859 56.2002 20.0869C55.9837 20.3148 55.9382 20.5768 56.0635 20.873C56.3141 20.9186 56.5648 20.8844 56.8154 20.7705C57.0661 20.6566 57.2826 20.554 57.4648 20.4629C57.556 20.4059 57.6471 20.3547 57.7383 20.3091C57.8408 20.2635 57.9377 20.2179 58.0288 20.1724C58.12 20.1268 58.2111 20.0812 58.3022 20.0356C58.3934 19.9901 58.4788 19.9388 58.5586 19.8818L59.4473 18.9932C59.584 18.8678 59.7207 18.7197 59.8574 18.5488C59.9144 18.4691 59.9714 18.3893 60.0283 18.3096C60.0967 18.2184 60.165 18.1273 60.2334 18.0361C60.2904 17.7855 60.3815 17.5519 60.5068 17.3354C60.6436 17.1076 60.7005 16.874 60.6777 16.6348C60.6663 16.5322 60.6265 16.4126 60.5581 16.2759C60.4897 16.1392 60.4499 16.0309 60.4385 15.9512C60.1992 15.9512 60.0226 15.991 59.9087 16.0708C59.8517 16.1164 59.7834 16.1562 59.7036 16.1904C59.6353 16.2132 59.5612 16.236 59.4814 16.2588ZM67.3428 23.5732C67.639 23.4479 67.9124 23.2884 68.1631 23.0947C68.3454 22.8441 68.5391 22.6048 68.7441 22.377C68.9492 22.1491 69.1657 21.9212 69.3936 21.6934C69.4619 21.625 69.5303 21.5566 69.5986 21.4883C69.667 21.4199 69.7297 21.3516 69.7866 21.2832C69.8436 21.2148 69.9062 21.1465 69.9746 21.0781C70.0544 20.9984 70.1341 20.9186 70.2139 20.8389C70.2708 20.7819 70.3164 20.742 70.3506 20.7192C70.3848 20.6965 70.4303 20.6452 70.4873 20.5654C70.6126 20.4059 70.7152 20.2521 70.7949 20.104C70.8747 19.9673 70.9886 19.8135 71.1367 19.6426C71.2848 19.5628 71.4329 19.4375 71.5811 19.2666C71.6494 19.1868 71.7178 19.1128 71.7861 19.0444C71.8545 18.9647 71.9229 18.8906 71.9912 18.8223L72.145 18.6855C72.1678 18.6628 72.1906 18.64 72.2134 18.6172C72.2476 18.5944 72.276 18.5716 72.2988 18.5488C72.3672 18.4805 72.4185 18.4007 72.4526 18.3096C72.4754 18.264 72.4925 18.2184 72.5039 18.1729C72.5267 18.1273 72.5495 18.0817 72.5723 18.0361C72.7773 17.6943 72.9596 17.4095 73.1191 17.1816C73.6204 16.9082 74.1331 16.6689 74.6572 16.4639C75.1813 16.2588 75.6826 16.1676 76.1611 16.1904C76.1839 16.2132 76.2523 16.2588 76.3662 16.3271C76.4574 16.3841 76.5257 16.4639 76.5713 16.5664C76.6852 16.7487 76.708 16.9652 76.6396 17.2158C76.5713 17.4665 76.4574 17.6488 76.2979 17.7627C76.1156 18.2868 75.9902 18.8792 75.9219 19.54C75.8535 20.2008 75.8307 20.8275 75.8535 21.4199C75.7965 21.4883 75.7795 21.5851 75.8022 21.7104C75.8136 21.8244 75.7852 21.9098 75.7168 21.9668C75.8079 22.1491 75.9219 22.3314 76.0586 22.5137C76.1953 22.696 76.389 22.7871 76.6396 22.7871C76.9131 22.7188 77.084 22.6846 77.1523 22.6846C77.1979 22.6846 77.2549 22.6732 77.3232 22.6504C77.4372 22.582 77.5112 22.5308 77.5454 22.4966C77.6138 22.4282 77.6764 22.3883 77.7334 22.377C77.8018 22.263 77.8473 22.1947 77.8701 22.1719C77.8929 22.1491 77.9385 22.0921 78.0068 22.001C78.2575 21.6934 78.4797 21.3971 78.6733 21.1123L79.3057 20.1895C79.374 20.0755 79.4367 19.973 79.4937 19.8818C79.562 19.7793 79.619 19.6882 79.6646 19.6084C79.7215 19.5286 79.7728 19.4318 79.8184 19.3179C79.8753 19.2039 79.9323 19.0729 79.9893 18.9248L80.1431 18.5659C80.1772 18.4862 80.2285 18.3551 80.2969 18.1729C80.3538 18.0361 80.3538 17.8481 80.2969 17.6089C80.2513 17.3696 80.2513 17.193 80.2969 17.0791C80.4108 16.931 80.4678 16.7943 80.4678 16.6689C80.6273 16.4069 80.707 16.2588 80.707 16.2246C80.707 16.2018 80.7184 16.1562 80.7412 16.0879C80.7868 16.0423 80.8324 15.991 80.8779 15.9341C80.9235 15.8771 80.9463 15.8031 80.9463 15.7119C81.3223 15.3359 81.7894 15.0397 82.3477 14.8232C82.735 14.7549 83.0939 14.658 83.4243 14.5327C83.7319 14.4188 83.9769 14.4587 84.1592 14.6523C84.1022 14.7207 84.1136 14.7834 84.1934 14.8403C84.2617 14.8859 84.2959 14.9486 84.2959 15.0283C84.3187 15.1536 84.313 15.2448 84.2788 15.3018C84.2446 15.3701 84.2275 15.4385 84.2275 15.5068C84.0908 15.7575 84.0111 15.8828 83.9883 15.8828C83.9655 15.8828 83.9427 15.8942 83.9199 15.917C83.8857 15.974 83.8459 16.0822 83.8003 16.2417C83.7889 16.2987 83.7718 16.3613 83.749 16.4297C83.7262 16.498 83.7035 16.5664 83.6807 16.6348C83.6123 16.8171 83.5326 17.0164 83.4414 17.2329C83.3503 17.4494 83.2363 17.6602 83.0996 17.8652C82.9857 18.1387 82.9686 18.3153 83.0483 18.395C83.1281 18.4748 83.168 18.5716 83.168 18.6855C83.2363 18.7425 83.3104 18.7767 83.3901 18.7881C83.4699 18.7995 83.5439 18.8337 83.6123 18.8906C83.7035 18.959 83.7661 19.016 83.8003 19.0615C83.8459 19.1185 83.9313 19.1755 84.0566 19.2324C84.1592 19.2552 84.256 19.2609 84.3472 19.2495C84.4269 19.2381 84.5579 19.2438 84.7402 19.2666C84.9225 19.2894 85.0422 19.2894 85.0991 19.2666C85.1561 19.2438 85.2415 19.1868 85.3555 19.0957C85.6175 18.959 85.7713 18.8564 85.8169 18.7881C85.8511 18.7425 85.9023 18.6855 85.9707 18.6172C86.0732 18.5716 86.1815 18.5488 86.2954 18.5488C86.4093 18.5488 86.5062 18.526 86.5859 18.4805C86.8366 18.3893 87.1157 18.2754 87.4233 18.1387C87.731 18.002 88.0101 17.8652 88.2607 17.7285C88.3747 17.6829 88.4829 17.6374 88.5854 17.5918C88.688 17.5462 88.762 17.4665 88.8076 17.3525C88.8988 17.3298 88.9614 17.3127 88.9956 17.3013C89.0184 17.2899 89.0924 17.2842 89.2178 17.2842C89.2747 17.4209 89.3317 17.5234 89.3887 17.5918C89.457 17.6829 89.4229 17.7969 89.2861 17.9336C89.0241 18.1956 88.7222 18.4235 88.3804 18.6172C88.05 18.8109 87.748 19.0501 87.4746 19.335C87.3379 19.3919 87.2069 19.4546 87.0815 19.5229C86.9562 19.5799 86.8366 19.6483 86.7227 19.728C86.5062 19.8761 86.2327 19.9958 85.9023 20.0869C85.7314 20.1895 85.5833 20.2806 85.458 20.3604C85.3327 20.4287 85.2301 20.4914 85.1504 20.5483C84.9909 20.6623 84.8542 20.7249 84.7402 20.7363C84.5352 20.7363 84.3358 20.742 84.1421 20.7534C83.9598 20.7534 83.7832 20.7591 83.6123 20.7705C83.487 20.7933 83.3901 20.7819 83.3218 20.7363C83.2762 20.7135 83.168 20.668 82.9971 20.5996C82.6895 20.5199 82.4616 20.4059 82.3135 20.2578C82.2451 20.1895 82.1768 20.1268 82.1084 20.0698C82.04 20.0015 81.9717 19.9388 81.9033 19.8818C81.8236 20.0072 81.7438 20.1382 81.6641 20.2749C81.5957 20.4116 81.533 20.554 81.4761 20.7021C81.3507 20.9984 81.1969 21.249 81.0146 21.4541C80.9349 21.7048 80.8438 21.8984 80.7412 22.0352C80.6273 22.1833 80.5247 22.3883 80.4336 22.6504C80.3197 22.7757 80.2114 22.9067 80.1089 23.0435C80.0177 23.1802 79.9323 23.3283 79.8525 23.4878C79.693 23.8068 79.488 24.0745 79.2373 24.291C78.7246 24.9404 78.0524 25.4987 77.2207 25.9658C77.0726 25.9202 76.9131 25.943 76.7422 26.0342C76.5827 26.1253 76.446 26.1367 76.332 26.0684C75.8535 26.1823 75.5402 26.1481 75.3921 25.9658C75.244 25.7835 75.0902 25.6582 74.9307 25.5898C74.7256 25.2594 74.606 24.9746 74.5718 24.7354C74.5376 24.4961 74.4863 24.2454 74.418 23.9834C74.3724 23.8467 74.3211 23.7271 74.2642 23.6245C74.2186 23.522 74.2015 23.4137 74.2129 23.2998C74.1331 22.958 74.0591 22.7131 73.9907 22.5649C73.9451 22.4738 73.9053 22.3713 73.8711 22.2573C73.8483 22.1434 73.8255 22.0238 73.8027 21.8984C73.7913 21.7959 73.7799 21.6934 73.7686 21.5908C73.7686 21.4883 73.7743 21.3857 73.7856 21.2832C73.797 21.0895 73.7686 20.873 73.7002 20.6338C73.29 20.7021 73.0337 20.8446 72.9312 21.061C72.8286 21.2775 72.6862 21.4427 72.5039 21.5566C72.4242 21.7959 72.2988 21.9839 72.1279 22.1206C71.9798 22.2345 71.8431 22.4225 71.7178 22.6846C71.4671 22.8213 71.245 23.0036 71.0513 23.2314C70.8462 23.4707 70.624 23.6872 70.3848 23.8809C70.1797 24.0062 70.0259 24.1201 69.9233 24.2227C69.8322 24.3138 69.7354 24.3822 69.6328 24.4277C69.5645 24.5417 69.4733 24.6499 69.3594 24.7524C69.2796 24.8208 69.1657 24.929 69.0176 25.0771C68.8695 25.2253 68.7669 25.3335 68.71 25.4019C68.6074 25.5158 68.5049 25.6126 68.4023 25.6924C68.3112 25.8063 68.2257 25.8918 68.146 25.9487C68.0662 26.0057 67.9922 26.057 67.9238 26.1025C67.8327 26.1709 67.7643 26.2336 67.7188 26.2905C67.6504 26.3817 67.5934 26.4329 67.5479 26.4443C67.3883 26.5469 67.2459 26.6323 67.1206 26.7007C66.9953 26.7804 66.887 26.8488 66.7959 26.9058C66.6136 27.0083 66.4541 27.0254 66.3174 26.957C66.1351 27.0026 65.9642 26.9741 65.8047 26.8716C65.6452 26.769 65.4971 26.6722 65.3604 26.5811C65.3034 26.5013 65.2464 26.4215 65.1895 26.3418C65.1325 26.2734 65.0755 26.2051 65.0186 26.1367C64.916 26.0114 64.8363 25.8519 64.7793 25.6582C64.6426 25.4759 64.5173 25.2651 64.4033 25.0259C64.2894 24.7866 64.1868 24.5417 64.0957 24.291C64.0843 23.8239 64.0501 23.4821 63.9932 23.2656C63.9476 23.0719 63.9362 22.8441 63.959 22.582C63.9704 22.32 64.0558 22.075 64.2153 21.8472C64.3748 21.6193 64.4945 21.3971 64.5742 21.1807C64.5628 20.987 64.597 20.8503 64.6768 20.7705C64.7679 20.6794 64.8021 20.5654 64.7793 20.4287C64.973 19.9046 65.1895 19.4888 65.4287 19.1812C65.6566 18.8849 65.8275 18.5488 65.9414 18.1729C66.0553 17.7855 66.1978 17.4494 66.3687 17.1646C66.5282 16.8911 66.6706 16.5664 66.7959 16.1904C66.8984 15.9967 66.9725 15.8258 67.0181 15.6777C67.0636 15.5068 67.1491 15.3245 67.2744 15.1309C67.3656 15.0397 67.4282 14.9714 67.4624 14.9258C67.4966 14.8802 67.5592 14.8232 67.6504 14.7549C67.8441 14.6979 68.0036 14.6182 68.1289 14.5156C68.2542 14.4131 68.4137 14.3333 68.6074 14.2764C68.7441 14.2308 68.8752 14.208 69.0005 14.208C69.103 14.208 69.2113 14.1738 69.3252 14.1055C69.61 13.9232 69.8094 13.8206 69.9233 13.7979C70.0145 13.7865 70.1227 13.7523 70.248 13.6953C70.4076 13.832 70.5329 13.9744 70.624 14.1226C70.7152 14.2707 70.738 14.4587 70.6924 14.6865C70.5443 14.8346 70.4645 14.9429 70.4531 15.0112C70.4417 15.091 70.4076 15.165 70.3506 15.2334C70.2936 15.3245 70.2253 15.4043 70.1455 15.4727C70.0658 15.541 69.9974 15.6208 69.9404 15.7119C69.9176 15.7575 69.8949 15.8031 69.8721 15.8486C69.8607 15.8828 69.8436 15.917 69.8208 15.9512C69.7752 16.0423 69.7354 16.1107 69.7012 16.1562L69.5474 16.293C69.479 16.3613 69.4277 16.4183 69.3936 16.4639C69.3366 16.5208 69.3024 16.5778 69.291 16.6348C69.2796 16.7031 69.2454 16.7715 69.1885 16.8398C69.1201 16.9424 69.0119 17.0449 68.8638 17.1475C68.7612 17.2272 68.6758 17.3184 68.6074 17.4209C68.5732 17.5234 68.5334 17.6886 68.4878 17.9165C68.4764 18.0076 68.4593 18.1045 68.4365 18.207C68.4137 18.2982 68.391 18.3893 68.3682 18.4805C68.2884 18.7311 68.1631 19.0216 67.9922 19.3521C67.7985 19.728 67.6618 20.0299 67.582 20.2578C67.5592 20.3604 67.5365 20.4629 67.5137 20.5654C67.5023 20.668 67.4852 20.7648 67.4624 20.856C67.451 20.9471 67.4339 21.0439 67.4111 21.1465C67.3883 21.2376 67.3656 21.3288 67.3428 21.4199C67.32 21.5111 67.2858 21.5908 67.2402 21.6592C67.1947 21.7275 67.1605 21.7959 67.1377 21.8643C67.0238 22.1833 66.9611 22.5251 66.9497 22.8896C66.9383 23.2542 67.0693 23.4821 67.3428 23.5732ZM88.6025 21.6592C88.7165 21.6478 88.8076 21.5965 88.876 21.5054C88.9215 21.4484 89.0013 21.3743 89.1152 21.2832C89.1494 21.2604 89.1836 21.2376 89.2178 21.2148C89.252 21.1921 89.2918 21.1693 89.3374 21.1465C89.383 21.1237 89.4229 21.1009 89.457 21.0781C89.4912 21.0553 89.5254 21.0326 89.5596 21.0098C89.8558 20.7933 90.1121 20.5654 90.3286 20.3262C90.5451 20.0983 90.79 19.8818 91.0635 19.6768C91.2116 19.5059 91.3597 19.3464 91.5078 19.1982C91.6673 19.0387 91.8211 18.8849 91.9692 18.7368C92.2541 18.4634 92.5332 18.1387 92.8066 17.7627C93.1712 17.4893 93.513 17.193 93.832 16.874C94.0485 16.7373 94.2251 16.6063 94.3618 16.481C94.4985 16.3556 94.6865 16.2246 94.9258 16.0879C95.0397 15.9512 95.165 15.8031 95.3018 15.6436C95.4385 15.484 95.598 15.3473 95.7803 15.2334C95.974 15.0397 96.1733 14.903 96.3784 14.8232C96.5835 14.7435 96.7829 14.6068 96.9766 14.4131C97.3184 14.2308 97.626 14.2023 97.8994 14.3276C98.1729 14.453 98.3893 14.6068 98.5488 14.7891C98.6286 14.9941 98.7653 15.2106 98.959 15.4385C98.9818 15.4727 99.0046 15.5068 99.0273 15.541C99.0501 15.5752 99.0729 15.6037 99.0957 15.6265C99.1413 15.672 99.1641 15.7575 99.1641 15.8828C99.1641 16.1449 99.1299 16.4069 99.0615 16.6689C99.0273 16.7943 98.9932 16.9196 98.959 17.0449C98.9362 17.1702 98.9134 17.2956 98.8906 17.4209C98.8678 17.5804 98.8507 17.7399 98.8394 17.8994C98.828 18.0475 98.8166 18.2013 98.8052 18.3608C98.7938 18.6571 98.7425 18.9704 98.6514 19.3008C98.7767 19.4831 98.8849 19.6768 98.9761 19.8818C99.0672 20.0983 99.1755 20.2692 99.3008 20.3945C99.3805 20.3831 99.4831 20.292 99.6084 20.1211C99.6654 20.0755 99.7223 20.0356 99.7793 20.0015C99.8477 19.9559 99.9217 19.9103 100.001 19.8647C100.161 19.7736 100.292 19.6768 100.395 19.5742C100.486 19.4831 100.571 19.3976 100.651 19.3179C100.731 19.2381 100.81 19.1641 100.89 19.0957C101.061 18.9476 101.215 18.7881 101.352 18.6172C101.431 18.5374 101.511 18.4634 101.591 18.395C101.671 18.3153 101.75 18.2412 101.83 18.1729C101.91 18.1045 101.99 18.0361 102.069 17.9678C102.16 17.888 102.252 17.8083 102.343 17.7285C102.434 17.6374 102.519 17.5462 102.599 17.4551C102.679 17.3525 102.759 17.2557 102.838 17.1646C102.918 17.0734 102.998 16.9823 103.078 16.8911C103.157 16.7886 103.243 16.6917 103.334 16.6006C103.414 16.498 103.488 16.4354 103.556 16.4126C103.636 16.3784 103.699 16.3044 103.744 16.1904C103.915 16.1107 104.069 15.9854 104.206 15.8145C104.331 15.6549 104.507 15.541 104.735 15.4727C104.963 15.4499 105.111 15.4499 105.18 15.4727C105.248 15.4954 105.351 15.5752 105.487 15.7119C105.601 15.7917 105.687 15.9056 105.744 16.0537C105.801 16.2018 105.886 16.3158 106 16.3955C106.205 16.8057 106.365 17.0563 106.479 17.1475C106.558 17.3298 106.575 17.512 106.53 17.6943L106.376 18.2412C106.365 18.3779 106.353 18.4919 106.342 18.583C106.33 18.6628 106.319 18.7254 106.308 18.771C106.296 18.8166 106.285 18.8621 106.273 18.9077C106.262 18.9533 106.251 19.0046 106.239 19.0615C106.103 19.859 105.897 20.6338 105.624 21.3857C105.635 21.5452 105.681 21.7104 105.761 21.8813C105.829 22.0181 105.852 22.2174 105.829 22.4795C105.966 22.5023 106.097 22.5023 106.222 22.4795C106.347 22.4567 106.456 22.4339 106.547 22.4111C107.025 22.2174 107.481 21.9668 107.914 21.6592C108.21 21.4313 108.518 21.2091 108.837 20.9927C109.167 20.7648 109.475 20.5426 109.76 20.3262C109.862 20.2464 109.953 20.161 110.033 20.0698C110.113 19.9787 110.204 19.8932 110.307 19.8135C110.535 19.6312 110.757 19.4831 110.973 19.3691C111.19 19.2552 111.412 19.1413 111.64 19.0273C111.754 18.959 111.845 18.8906 111.913 18.8223C111.981 18.7539 112.061 18.6742 112.152 18.583C112.266 18.4691 112.426 18.3494 112.631 18.2241C112.836 18.0988 113.03 17.9906 113.212 17.8994C113.531 17.888 113.696 17.9393 113.708 18.0532L113.759 18.3779C113.463 18.583 113.183 18.7938 112.921 19.0103C112.659 19.2267 112.392 19.4489 112.118 19.6768C112.05 19.7223 111.987 19.7622 111.93 19.7964C111.873 19.8306 111.788 19.8704 111.674 19.916C111.583 19.9844 111.52 20.047 111.486 20.104C111.452 20.161 111.378 20.2236 111.264 20.292C111.195 20.349 111.127 20.4059 111.059 20.4629C110.99 20.5085 110.922 20.5597 110.854 20.6167C110.717 20.7192 110.591 20.8275 110.478 20.9414C110.318 21.0553 110.17 21.1693 110.033 21.2832C109.896 21.3971 109.771 21.5111 109.657 21.625C109.532 21.7503 109.429 21.8757 109.35 22.001C109.281 22.1149 109.167 22.2402 109.008 22.377C108.894 22.4225 108.797 22.4795 108.717 22.5479L108.461 22.7529C108.415 22.8896 108.381 23.0093 108.358 23.1118C108.347 23.203 108.279 23.3112 108.153 23.4365C107.971 23.596 107.863 23.7043 107.829 23.7612C107.794 23.8182 107.743 23.8809 107.675 23.9492C107.629 23.9834 107.549 24.0233 107.436 24.0688C107.39 24.0802 107.344 24.0973 107.299 24.1201C107.253 24.1429 107.208 24.1657 107.162 24.1885C107.06 24.2454 106.957 24.3252 106.854 24.4277C106.809 24.4733 106.758 24.5189 106.701 24.5645C106.655 24.61 106.604 24.6556 106.547 24.7012C106.456 24.7581 106.37 24.8094 106.291 24.855C106.211 24.9006 106.142 24.9461 106.085 24.9917C105.994 25.0601 105.829 25.1227 105.59 25.1797C105.351 25.3392 105.18 25.4132 105.077 25.4019C105.009 25.3905 104.895 25.3962 104.735 25.4189C104.678 25.4417 104.627 25.4189 104.582 25.3506C104.536 25.2822 104.473 25.248 104.394 25.248C104.245 25.1113 104.132 25.0544 104.052 25.0771C103.961 25.0999 103.881 25.0885 103.812 25.043C103.585 24.7809 103.471 24.5872 103.471 24.4619C103.471 24.3936 103.465 24.3252 103.454 24.2568C103.454 24.1771 103.448 24.0973 103.437 24.0176C103.391 23.6758 103.345 23.3283 103.3 22.9751C103.254 22.6219 103.22 22.2516 103.197 21.8643C103.197 21.7048 103.214 21.5566 103.249 21.4199C103.294 21.249 103.323 21.1009 103.334 20.9756C103.334 20.9186 103.323 20.8332 103.3 20.7192C103.277 20.6053 103.266 20.5312 103.266 20.4971C103.288 20.3034 103.323 20.1325 103.368 19.9844C103.414 19.8477 103.425 19.6882 103.402 19.5059C103.254 19.6768 103.123 19.8249 103.009 19.9502C102.895 20.0641 102.799 20.161 102.719 20.2407C102.639 20.3205 102.559 20.4002 102.479 20.48C102.411 20.5597 102.343 20.6452 102.274 20.7363C101.921 20.9414 101.625 21.1408 101.386 21.3345C101.135 21.5396 100.827 21.7048 100.463 21.8301C100.303 21.9896 100.144 22.1434 99.9844 22.2915C99.8363 22.4282 99.6882 22.5592 99.54 22.6846C99.3919 22.8099 99.2381 22.9466 99.0786 23.0947C98.9305 23.2314 98.7767 23.3796 98.6172 23.5391C98.2412 24.029 97.8311 24.3936 97.3867 24.6328C97.2272 24.6784 97.1019 24.7069 97.0107 24.7183C96.9196 24.7297 96.8285 24.7012 96.7373 24.6328C96.2588 24.3594 95.974 24.0062 95.8828 23.5732C95.7917 23.1403 95.8031 22.6618 95.917 22.1377C95.8145 21.9212 95.8258 21.6136 95.9512 21.2148C96.0879 20.8047 96.1107 20.5085 96.0195 20.3262C96.0537 20.1553 96.0936 19.9844 96.1392 19.8135C96.1847 19.6312 96.236 19.4489 96.293 19.2666C96.3499 19.0843 96.3955 18.9077 96.4297 18.7368C96.4753 18.5545 96.5094 18.3779 96.5322 18.207C96.6462 18.0475 96.6632 17.9222 96.5835 17.8311C96.5037 17.7399 96.4297 17.6602 96.3613 17.5918C95.974 17.8197 95.6037 18.0874 95.2505 18.395C94.8973 18.7026 94.5384 19.016 94.1738 19.335C94.0827 19.4147 93.9915 19.4945 93.9004 19.5742C93.8206 19.6426 93.7352 19.7166 93.644 19.7964C93.5643 19.8761 93.4788 19.9559 93.3877 20.0356C93.2965 20.104 93.2054 20.1781 93.1143 20.2578L92.5674 20.7192C92.3737 20.8787 92.2142 21.0439 92.0889 21.2148C91.9408 21.4199 91.8211 21.5566 91.73 21.625L91.5078 21.7959C91.4053 21.8529 91.3141 21.9212 91.2344 22.001C91.1888 22.0465 91.1204 22.1035 91.0293 22.1719C90.9609 22.2288 90.8698 22.2801 90.7559 22.3257L90.4482 22.4453C90.3115 22.5365 90.1691 22.6561 90.021 22.8042C89.8729 22.9523 89.7419 23.0833 89.6279 23.1973C89.5368 23.2884 89.4342 23.3796 89.3203 23.4707C89.195 23.5732 89.1038 23.6644 89.0469 23.7441C88.9102 23.9378 88.745 24.1429 88.5513 24.3594C88.4715 24.4505 88.3861 24.5474 88.2949 24.6499C88.2152 24.741 88.1354 24.8379 88.0557 24.9404C88.0443 25.043 87.9816 25.1512 87.8677 25.2651L87.543 25.5898C87.4974 25.6354 87.4518 25.6867 87.4062 25.7437C87.3607 25.7892 87.3094 25.8405 87.2524 25.8975C87.1613 26 87.0531 26.0798 86.9277 26.1367L86.6885 26.188C86.5632 26.2108 86.472 26.2393 86.415 26.2734C86.3467 26.2962 86.2783 26.319 86.21 26.3418C86.1302 26.376 86.0505 26.4102 85.9707 26.4443C85.8226 26.5127 85.6517 26.5355 85.458 26.5127L85.0479 26.4614C84.9453 26.45 84.8314 26.3988 84.7061 26.3076C84.7061 26.1253 84.6491 26 84.5352 25.9316C84.5921 25.624 84.6662 25.3506 84.7573 25.1113C84.8485 24.8607 84.9225 24.5986 84.9795 24.3252C85.1504 24.0859 85.2814 23.8296 85.3726 23.5562C85.4637 23.2827 85.5833 23.0036 85.7314 22.7188C85.834 22.4339 85.9536 22.1377 86.0903 21.8301L86.4492 21.0098C86.4948 20.873 86.5347 20.742 86.5688 20.6167C86.6144 20.4914 86.6543 20.3717 86.6885 20.2578C86.7568 20.0186 86.848 19.8135 86.9619 19.6426C87.11 19.4033 87.1898 19.2324 87.2012 19.1299C87.4518 18.8337 87.5771 18.526 87.5771 18.207C87.7025 18.0703 87.7936 17.8766 87.8506 17.626C87.9076 17.3867 87.9759 17.1702 88.0557 16.9766C88.1012 16.8854 88.1411 16.8057 88.1753 16.7373C88.2095 16.6689 88.238 16.5778 88.2607 16.4639C88.2835 16.3158 88.2892 16.2075 88.2778 16.1392C88.2664 16.048 88.2949 15.9398 88.3633 15.8145C88.4089 15.7575 88.4544 15.7062 88.5 15.6606C88.5456 15.6151 88.5911 15.5695 88.6367 15.5239C88.6823 15.4784 88.7279 15.4328 88.7734 15.3872C88.819 15.3416 88.8646 15.2904 88.9102 15.2334C89.0127 15.222 89.0924 15.165 89.1494 15.0625C89.2064 14.9714 89.2747 14.903 89.3545 14.8574C89.6051 14.7777 89.7476 14.7207 89.7817 14.6865C89.8273 14.641 89.8558 14.6182 89.8672 14.6182L90.3799 14.3618C90.4141 14.339 90.4482 14.3219 90.4824 14.3105C90.528 14.2878 90.5736 14.265 90.6191 14.2422C90.6647 14.2194 90.7046 14.2023 90.7388 14.1909C90.7729 14.1795 90.8014 14.1681 90.8242 14.1567C90.847 14.1453 90.8755 14.134 90.9097 14.1226C90.9438 14.1112 90.9837 14.0941 91.0293 14.0713C91.0863 14.0143 91.1774 13.946 91.3027 13.8662C91.4281 13.7865 91.5192 13.7181 91.5762 13.6611C91.804 13.7523 91.9977 13.8947 92.1572 14.0884C92.3167 14.2821 92.3623 14.5384 92.2939 14.8574C92.2712 14.9714 92.237 15.0796 92.1914 15.1821C92.1458 15.2847 92.1003 15.3815 92.0547 15.4727C92.0205 15.5524 91.992 15.6606 91.9692 15.7974C91.9465 15.9341 91.918 16.0309 91.8838 16.0879C91.7243 16.3727 91.6217 16.5835 91.5762 16.7202C91.5192 16.8911 91.4622 17.0335 91.4053 17.1475C91.3141 17.2956 91.2344 17.4437 91.166 17.5918C91.0977 17.7741 91.035 17.9222 90.978 18.0361C90.9211 18.1501 90.8356 18.264 90.7217 18.3779C90.6305 18.4919 90.5622 18.5716 90.5166 18.6172C90.4368 18.6969 90.3685 18.7881 90.3115 18.8906C90.2318 18.9932 90.152 19.1014 90.0723 19.2153C89.9925 19.3293 89.9128 19.4489 89.833 19.5742C89.6849 19.8135 89.514 20.0413 89.3203 20.2578L88.9614 20.9414C88.8475 21.1579 88.7279 21.3971 88.6025 21.6592ZM127.226 16.1221C127.34 16.1335 127.414 16.179 127.448 16.2588C127.482 16.3271 127.545 16.3613 127.636 16.3613C127.681 16.5778 127.636 16.7316 127.499 16.8228C127.362 16.9025 127.317 17.0335 127.362 17.2158C127.157 17.3525 126.907 17.438 126.61 17.4722C126.303 17.5063 126.075 17.626 125.927 17.8311C125.528 18.0247 125.112 18.1444 124.679 18.1899C124.463 18.2127 124.235 18.2469 123.996 18.2925C123.768 18.3267 123.534 18.3665 123.295 18.4121C123.044 18.583 122.89 18.6742 122.833 18.6855C122.754 18.6969 122.668 18.7311 122.577 18.7881C122.338 18.6969 122.099 18.6514 121.859 18.6514C121.62 18.6514 121.369 18.6172 121.107 18.5488C120.982 18.5944 120.851 18.6172 120.714 18.6172C120.578 18.6172 120.447 18.64 120.321 18.6855C120.23 18.8906 120.185 19.0957 120.185 19.3008C120.185 19.5173 120.15 19.7223 120.082 19.916L119.877 20.3262L119.826 20.6509C119.803 20.7876 119.774 20.8958 119.74 20.9756C119.695 21.0439 119.643 21.1237 119.586 21.2148C119.529 21.306 119.501 21.4085 119.501 21.5225C119.341 21.7275 119.228 21.9383 119.159 22.1548C119.091 22.4054 118.965 22.6048 118.783 22.7529C118.715 22.9922 118.607 23.1745 118.458 23.2998C118.31 23.4365 118.168 23.596 118.031 23.7783C117.781 24.1201 117.558 24.4163 117.365 24.667C117.171 24.9176 116.915 25.1341 116.596 25.3164C116.482 25.4987 116.345 25.624 116.186 25.6924C116.072 25.8063 115.98 25.9202 115.912 26.0342L115.229 26.4443C114.955 26.6152 114.693 26.7292 114.442 26.7861C114.055 26.8773 113.679 26.8659 113.314 26.752C112.95 26.638 112.608 26.4785 112.289 26.2734C112.073 26.2962 111.907 26.2563 111.793 26.1538C111.68 26.0627 111.526 25.9886 111.332 25.9316C111.081 25.7038 110.808 25.4987 110.512 25.3164C110.204 25.1227 109.988 24.8721 109.862 24.5645L109.708 23.8125C109.663 23.5846 109.612 23.3568 109.555 23.1289C109.509 22.9352 109.503 22.7188 109.538 22.4795C109.572 22.2744 109.577 22.0465 109.555 21.7959C109.555 21.6706 109.555 21.5566 109.555 21.4541C109.555 21.3402 109.549 21.2433 109.538 21.1636C109.526 20.9927 109.577 20.7819 109.691 20.5312C109.76 20.3831 109.817 20.2464 109.862 20.1211C109.908 19.9958 109.942 19.8875 109.965 19.7964C109.988 19.7052 110.01 19.6198 110.033 19.54C110.056 19.4489 110.079 19.3691 110.102 19.3008C110.136 19.2438 110.17 19.1868 110.204 19.1299C110.238 19.0615 110.272 18.9932 110.307 18.9248C110.341 18.8564 110.375 18.7938 110.409 18.7368C110.455 18.6685 110.5 18.6058 110.546 18.5488C110.683 18.3438 110.842 18.1387 111.024 17.9336C111.207 17.7285 111.389 17.5348 111.571 17.3525C111.697 17.1816 111.822 17.0335 111.947 16.9082C112.152 16.7031 112.346 16.5322 112.528 16.3955C112.711 16.2588 112.916 16.0765 113.144 15.8486C113.189 15.7803 113.246 15.7233 113.314 15.6777L113.52 15.541C113.747 15.4043 113.958 15.2904 114.152 15.1992C114.346 15.1081 114.568 15.0055 114.818 14.8916C115.035 14.7891 115.211 14.7264 115.348 14.7036C115.439 14.6808 115.53 14.6637 115.622 14.6523C115.724 14.6296 115.832 14.6068 115.946 14.584H116.356C116.482 14.584 116.596 14.5612 116.698 14.5156C116.63 14.3333 116.71 14.208 116.938 14.1396C117.165 14.0713 117.336 14.0485 117.45 14.0713C117.678 14.0713 117.86 14.1226 117.997 14.2251C118.134 14.3276 118.259 14.4473 118.373 14.584C118.601 14.7435 118.852 14.9827 119.125 15.3018C119.182 15.3587 119.239 15.3929 119.296 15.4043C119.353 15.4157 119.41 15.4499 119.467 15.5068C119.558 15.6436 119.621 15.7689 119.655 15.8828C119.689 16.0195 119.763 16.1449 119.877 16.2588C119.945 16.3044 120.014 16.3613 120.082 16.4297C120.15 16.498 120.196 16.5892 120.219 16.7031C120.458 16.7943 120.674 16.8626 120.868 16.9082C120.971 16.9538 121.09 16.9652 121.227 16.9424C121.352 16.9196 121.495 16.9196 121.654 16.9424C121.757 16.9538 121.859 16.9823 121.962 17.0278C122.053 17.062 122.156 17.0791 122.27 17.0791C122.44 17.0677 122.628 17.0221 122.833 16.9424C123.027 16.874 123.249 16.8626 123.5 16.9082C123.842 16.988 124.201 16.9538 124.577 16.8057C124.953 16.6462 125.334 16.5436 125.722 16.498C125.836 16.498 125.915 16.4924 125.961 16.481C126.007 16.4696 126.086 16.4639 126.2 16.4639C126.314 16.3727 126.462 16.3044 126.645 16.2588C126.827 16.2132 127.021 16.1676 127.226 16.1221ZM117.45 17.1475C117.222 16.9424 117.091 16.8114 117.057 16.7544C117.012 16.686 116.972 16.6462 116.938 16.6348C116.835 16.5322 116.721 16.4753 116.596 16.4639C116.527 16.4525 116.459 16.4411 116.391 16.4297C116.334 16.4183 116.277 16.4069 116.22 16.3955C115.855 16.3271 115.553 16.367 115.314 16.5151C115.2 16.5949 115.08 16.6689 114.955 16.7373C114.841 16.8057 114.727 16.874 114.613 16.9424C114.249 17.1702 113.93 17.4551 113.656 17.7969C113.588 17.9108 113.514 18.0361 113.434 18.1729C113.354 18.3096 113.292 18.4577 113.246 18.6172C113.155 18.7995 113.075 18.9647 113.007 19.1128C112.938 19.2609 112.882 19.4375 112.836 19.6426C112.722 19.859 112.654 20.047 112.631 20.2065C112.619 20.2863 112.608 20.3604 112.597 20.4287C112.585 20.4857 112.574 20.5426 112.562 20.5996C112.551 20.7135 112.534 20.8332 112.511 20.9585C112.488 21.0724 112.466 21.1921 112.443 21.3174C112.386 21.6022 112.357 21.8187 112.357 21.9668C112.38 22.0352 112.414 22.1263 112.46 22.2402C112.506 22.3542 112.551 22.4339 112.597 22.4795C112.642 22.5934 112.694 22.7188 112.75 22.8555C112.807 22.9922 112.859 23.0947 112.904 23.1631C113.03 23.3226 113.178 23.4251 113.349 23.4707C113.44 23.4935 113.537 23.522 113.639 23.5562C113.742 23.5789 113.85 23.6074 113.964 23.6416C114.215 23.7783 114.385 23.8353 114.477 23.8125C114.59 23.7897 114.659 23.7783 114.682 23.7783C114.989 23.7214 115.251 23.596 115.468 23.4023C115.661 23.2201 115.889 23.0605 116.151 22.9238C116.243 22.7871 116.334 22.6447 116.425 22.4966C116.527 22.3485 116.636 22.2004 116.75 22.0522C116.863 21.8927 116.966 21.7389 117.057 21.5908C117.16 21.4313 117.257 21.2718 117.348 21.1123C117.405 21.0439 117.462 20.9414 117.519 20.8047C117.541 20.7477 117.564 20.6965 117.587 20.6509C117.61 20.5939 117.632 20.5426 117.655 20.4971C117.815 20.3034 117.889 20.2008 117.877 20.1895C117.866 20.1781 117.872 20.1439 117.895 20.0869C118.043 19.7451 118.111 19.4831 118.1 19.3008C118.088 19.1185 118.088 18.9362 118.1 18.7539C118.043 18.6286 117.991 18.4976 117.946 18.3608C117.9 18.2241 117.855 18.0817 117.809 17.9336C117.718 17.626 117.598 17.3639 117.45 17.1475ZM134.027 16.498L133.993 16.7715C134.016 16.8512 133.993 16.988 133.925 17.1816C133.811 17.3184 133.743 17.4665 133.72 17.626C133.674 17.7171 133.634 17.7969 133.6 17.8652C133.566 17.9336 133.537 18.0247 133.515 18.1387C133.469 18.2754 133.452 18.4349 133.463 18.6172C133.475 18.7083 133.475 18.7995 133.463 18.8906C133.463 18.9704 133.458 19.0501 133.446 19.1299C133.401 19.3805 133.367 19.6255 133.344 19.8647C133.321 20.104 133.298 20.349 133.275 20.5996C133.275 20.8503 133.253 21.1351 133.207 21.4541C133.161 21.7731 133.116 22.0579 133.07 22.3086C133.173 22.4909 133.23 22.6618 133.241 22.8213C133.253 22.9922 133.332 23.1403 133.48 23.2656C133.936 23.1973 134.301 23.089 134.574 22.9409C134.848 22.7928 135.11 22.582 135.36 22.3086C135.543 22.2288 135.685 22.1491 135.788 22.0693C135.879 21.9896 136.01 21.8984 136.181 21.7959L136.454 21.5225C136.728 21.3743 136.881 21.2832 136.916 21.249C136.938 21.2262 136.967 21.2035 137.001 21.1807C137.047 21.1579 137.092 21.1351 137.138 21.1123C137.525 20.8617 137.821 20.5996 138.026 20.3262C138.197 20.1895 138.34 20.047 138.454 19.8989C138.545 19.7736 138.721 19.654 138.983 19.54C139.132 19.3577 139.297 19.2039 139.479 19.0786C139.661 18.9533 139.826 18.7995 139.975 18.6172C140.1 18.6172 140.191 18.64 140.248 18.6855C140.282 18.7083 140.316 18.7311 140.351 18.7539C140.396 18.7767 140.442 18.7995 140.487 18.8223C140.556 19.0046 140.567 19.1925 140.521 19.3862C140.476 19.5799 140.396 19.7565 140.282 19.916C140.168 20.0641 140.111 20.1553 140.111 20.1895C140.111 20.2122 140.1 20.235 140.077 20.2578C140.009 20.3376 139.923 20.423 139.821 20.5142C139.718 20.5939 139.633 20.6794 139.564 20.7705C139.451 20.9756 139.359 21.0781 139.291 21.0781C139.223 21.0781 139.166 21.1009 139.12 21.1465C138.915 21.2718 138.773 21.363 138.693 21.4199C138.602 21.4997 138.471 21.5908 138.3 21.6934C138.061 21.8187 137.912 21.9098 137.855 21.9668C137.799 22.0238 137.753 22.0579 137.719 22.0693C137.445 22.377 137.178 22.6333 136.916 22.8384C136.676 23.0207 136.42 23.277 136.146 23.6074C136.055 23.6758 135.964 23.7441 135.873 23.8125C135.782 23.8809 135.702 23.972 135.634 24.0859C135.429 24.2227 135.264 24.3594 135.138 24.4961C135.013 24.6328 134.87 24.7923 134.711 24.9746C134.574 25.043 134.426 25.1398 134.267 25.2651C134.073 25.4132 133.902 25.5215 133.754 25.5898C133.697 25.624 133.6 25.6753 133.463 25.7437C133.349 25.8006 133.241 25.8291 133.139 25.8291C132.877 25.8747 132.626 25.8519 132.387 25.7607C132.17 25.681 131.954 25.6126 131.737 25.5557C131.646 25.4189 131.532 25.305 131.396 25.2139C131.19 24.9632 131.042 24.667 130.951 24.3252C130.86 23.9834 130.769 23.6188 130.678 23.2314C130.473 23.3682 130.302 23.5163 130.165 23.6758C130.028 23.8467 129.823 23.9948 129.55 24.1201C129.322 24.3366 129.088 24.5531 128.849 24.7695C128.61 24.9746 128.359 25.174 128.097 25.3677C127.847 25.5614 127.59 25.7664 127.328 25.9829C127.066 26.188 126.804 26.3988 126.542 26.6152C126.36 26.7975 126.234 26.8659 126.166 26.8203C125.961 27.071 125.596 27.1507 125.072 27.0596C124.89 26.9684 124.685 26.8887 124.457 26.8203C124.298 26.7747 124.115 26.7064 123.91 26.6152C123.523 26.5469 123.198 26.376 122.936 26.1025C122.674 25.8291 122.452 25.5101 122.27 25.1455C122.201 24.9518 122.15 24.7809 122.116 24.6328C122.104 24.5531 122.087 24.4676 122.064 24.3765C122.042 24.2853 122.019 24.1885 121.996 24.0859C121.985 23.8923 121.951 23.7384 121.894 23.6245C121.848 23.4992 121.848 23.3796 121.894 23.2656C121.848 23.2087 121.837 23.1346 121.859 23.0435C121.882 22.9295 121.894 22.8441 121.894 22.7871C121.871 22.4681 121.899 22.1263 121.979 21.7617C122.059 21.3971 122.167 21.0667 122.304 20.7705C122.372 20.6566 122.463 20.5426 122.577 20.4287C122.634 20.3604 122.668 20.292 122.68 20.2236C122.691 20.1667 122.725 20.1097 122.782 20.0527C122.839 19.9844 122.908 19.916 122.987 19.8477C123.101 19.7565 123.181 19.6882 123.227 19.6426C123.284 19.5628 123.34 19.4888 123.397 19.4204C123.466 19.3407 123.54 19.2723 123.62 19.2153C123.699 19.1584 123.773 19.0957 123.842 19.0273C123.91 18.959 123.979 18.8906 124.047 18.8223C124.127 18.7425 124.189 18.6628 124.235 18.583C124.292 18.4919 124.377 18.4235 124.491 18.3779C124.582 18.2184 124.685 18.0874 124.799 17.9849C124.913 17.8823 125.038 17.7741 125.175 17.6602C125.562 17.193 126.041 16.7943 126.61 16.4639C127.191 16.1335 127.704 15.7689 128.148 15.3701C128.308 15.3018 128.445 15.222 128.559 15.1309C128.673 15.0397 128.786 14.9486 128.9 14.8574C129.185 14.6068 129.493 14.527 129.823 14.6182L130.712 14.8574C130.94 15.0625 131.162 15.2676 131.378 15.4727C131.595 15.6777 131.783 15.9056 131.942 16.1562C132.022 16.1449 132.108 16.1392 132.199 16.1392C132.29 16.1278 132.387 16.1278 132.489 16.1392C132.694 16.1619 132.911 16.1449 133.139 16.0879C133.207 16.0879 133.275 16.0708 133.344 16.0366C133.412 16.0024 133.469 15.9854 133.515 15.9854C133.856 16.0993 134.027 16.2702 134.027 16.498ZM129.516 17.0107C128.9 17.307 128.342 17.6545 127.841 18.0532C127.34 18.452 126.861 18.8792 126.405 19.335C126.348 19.3919 126.286 19.4489 126.217 19.5059C126.16 19.5514 126.103 19.6027 126.046 19.6597C125.989 19.7052 125.932 19.7565 125.875 19.8135C125.819 19.8704 125.767 19.9274 125.722 19.9844C125.631 20.0983 125.545 20.235 125.465 20.3945C125.386 20.554 125.312 20.7021 125.243 20.8389C125.22 20.8844 125.198 20.93 125.175 20.9756C125.152 21.0098 125.129 21.0382 125.106 21.061C125.084 21.0838 125.061 21.1123 125.038 21.1465C125.015 21.1807 124.993 21.2148 124.97 21.249C124.924 21.363 124.907 21.4769 124.918 21.5908C124.93 21.6706 124.936 21.7959 124.936 21.9668V22.3086C124.936 22.377 124.947 22.4909 124.97 22.6504C125.038 22.901 125.072 23.1517 125.072 23.4023C125.072 23.5846 125.089 23.8068 125.124 24.0688C125.158 24.3309 125.243 24.5075 125.38 24.5986C125.528 24.6898 125.67 24.7126 125.807 24.667C125.967 24.61 126.098 24.5758 126.2 24.5645C126.998 23.9492 127.75 23.3055 128.456 22.6333C129.162 21.9611 129.789 21.2035 130.336 20.3604C130.29 19.8021 130.285 19.2267 130.319 18.6343C130.353 18.076 130.302 17.5576 130.165 17.0791C130.074 17.0221 129.966 17.005 129.84 17.0278C129.749 17.0392 129.641 17.0335 129.516 17.0107ZM139.394 23.4023C139.906 22.958 140.39 22.4624 140.846 21.9155C141.074 21.6535 141.308 21.3857 141.547 21.1123C141.786 20.8389 142.037 20.5654 142.299 20.292C142.413 20.1781 142.527 20.0413 142.641 19.8818C142.755 19.7223 142.868 19.5514 142.982 19.3691C143.074 19.2324 143.188 19.1014 143.324 18.9761C143.472 18.8394 143.586 18.7197 143.666 18.6172C143.734 18.5033 143.82 18.4121 143.922 18.3438C143.979 18.3096 144.031 18.2754 144.076 18.2412C144.133 18.1956 144.19 18.1501 144.247 18.1045C144.361 17.9906 144.464 17.8937 144.555 17.814C144.646 17.7342 144.748 17.6488 144.862 17.5576C144.965 17.4779 145.062 17.3981 145.153 17.3184C145.255 17.2272 145.352 17.1418 145.443 17.062C145.626 16.8911 145.842 16.7487 146.093 16.6348C146.229 16.612 146.332 16.5607 146.4 16.481C146.446 16.424 146.526 16.3385 146.64 16.2246C146.776 16.2474 146.879 16.236 146.947 16.1904C146.993 16.1676 147.038 16.1449 147.084 16.1221C147.141 16.0993 147.198 16.0765 147.255 16.0537C147.574 16.1221 147.83 16.2474 148.024 16.4297C148.218 16.612 148.406 16.7943 148.588 16.9766C148.747 17.0449 148.873 17.1076 148.964 17.1646C149.055 17.2215 149.146 17.2842 149.237 17.3525C149.328 17.5348 149.408 17.7057 149.477 17.8652C149.545 18.0247 149.579 18.207 149.579 18.4121C149.579 18.5033 149.568 18.64 149.545 18.8223C149.534 18.8906 149.522 18.959 149.511 19.0273C149.499 19.0957 149.488 19.1641 149.477 19.2324C149.385 19.5059 149.351 19.654 149.374 19.6768C149.397 19.6995 149.408 19.7337 149.408 19.7793C149.431 19.9844 149.368 20.1724 149.22 20.3433C149.072 20.5256 149.032 20.7249 149.101 20.9414C149.123 21.0326 149.095 21.2035 149.015 21.4541C148.935 21.7048 148.907 21.8757 148.93 21.9668C148.975 22.0921 148.998 22.2687 148.998 22.4966C148.998 22.7244 149.055 22.8783 149.169 22.958C149.408 23.0492 149.568 23.0947 149.647 23.0947H149.887C150.16 22.958 150.502 22.7244 150.912 22.394C151.322 22.0636 151.63 21.7845 151.835 21.5566C151.949 21.4655 152.057 21.3743 152.16 21.2832C152.262 21.1921 152.359 21.1066 152.45 21.0269C152.667 20.8332 152.917 20.668 153.202 20.5312C153.498 20.3262 153.681 20.1838 153.749 20.104L154.193 19.6084C154.262 19.54 154.347 19.4717 154.45 19.4033C154.552 19.335 154.649 19.2552 154.74 19.1641C154.923 18.9818 155.105 18.8564 155.287 18.7881H155.68C155.84 18.7881 155.948 18.8337 156.005 18.9248C156.05 19.1071 156.05 19.2666 156.005 19.4033C155.959 19.54 155.902 19.6654 155.834 19.7793C155.754 19.9046 155.652 20.0299 155.526 20.1553C155.435 20.3262 155.333 20.4743 155.219 20.5996C155.162 20.6566 155.099 20.7192 155.031 20.7876C154.974 20.8446 154.911 20.9129 154.843 20.9927C154.706 21.1522 154.547 21.2718 154.364 21.3516C154.307 21.4199 154.25 21.4826 154.193 21.5396C154.148 21.5965 154.097 21.6535 154.04 21.7104L153.715 22.0352C153.59 22.1605 153.487 22.2858 153.407 22.4111C153.327 22.5365 153.225 22.6618 153.1 22.7871C152.974 22.8896 152.849 22.9922 152.724 23.0947C152.61 23.1973 152.49 23.2941 152.365 23.3853C152.125 23.5675 151.903 23.7897 151.698 24.0518C151.596 24.0973 151.505 24.1486 151.425 24.2056C151.379 24.2397 151.299 24.291 151.186 24.3594C150.901 24.4391 150.61 24.6043 150.314 24.855C150.029 25.1056 149.733 25.3392 149.425 25.5557C149.129 25.7607 148.816 25.8519 148.485 25.8291C148.235 25.943 148.018 25.9487 147.836 25.8462C147.654 25.7437 147.471 25.6354 147.289 25.5215C147.038 25.362 146.799 25.1797 146.571 24.9746C146.343 24.7695 146.207 24.4847 146.161 24.1201C146.116 23.5277 146.184 22.9694 146.366 22.4453C146.56 21.9098 146.697 21.3857 146.776 20.873C146.776 20.8161 146.811 20.611 146.879 20.2578C146.959 19.8932 146.97 19.654 146.913 19.54C146.879 19.4945 146.85 19.4147 146.828 19.3008C146.816 19.1868 146.719 19.0729 146.537 18.959C146.435 18.902 146.389 18.8906 146.4 18.9248C146.412 18.9704 146.321 18.9932 146.127 18.9932C145.933 19.0615 145.774 19.1527 145.648 19.2666C145.58 19.3236 145.506 19.3805 145.426 19.4375C145.358 19.4945 145.284 19.5514 145.204 19.6084C144.999 19.8477 144.743 20.0755 144.435 20.292C144.162 20.4857 143.917 20.7249 143.7 21.0098C143.518 21.2148 143.347 21.4199 143.188 21.625C143.051 21.8073 142.868 22.0124 142.641 22.2402C142.003 22.9694 141.376 23.6416 140.761 24.2568C140.681 24.348 140.601 24.4391 140.521 24.5303C140.453 24.6214 140.385 24.7126 140.316 24.8037C140.248 24.8949 140.174 24.986 140.094 25.0771C140.026 25.1683 139.952 25.2594 139.872 25.3506C139.599 25.6924 139.302 26.0228 138.983 26.3418C138.847 26.5697 138.653 26.7861 138.402 26.9912C138.152 27.1963 137.901 27.3444 137.65 27.4355C137.582 27.39 137.508 27.39 137.428 27.4355C137.348 27.4811 137.274 27.5039 137.206 27.5039C137.069 27.4469 136.961 27.4014 136.881 27.3672C136.802 27.3444 136.75 27.3273 136.728 27.3159C136.682 27.2931 136.648 27.2419 136.625 27.1621C136.397 27.0254 136.312 26.8032 136.369 26.4956C136.426 26.188 136.477 25.9202 136.522 25.6924C136.636 25.1797 136.773 24.667 136.933 24.1543C137.092 23.6416 137.269 23.1346 137.462 22.6333C137.656 22.132 137.833 21.6307 137.992 21.1294C138.152 20.6281 138.288 20.1325 138.402 19.6426C138.516 19.2552 138.63 18.8963 138.744 18.5659C138.858 18.2355 138.995 17.888 139.154 17.5234C139.325 17.1589 139.433 16.8341 139.479 16.5493C139.525 16.2645 139.633 15.9398 139.804 15.5752C139.906 15.3929 139.986 15.222 140.043 15.0625C140.111 14.8688 140.18 14.6979 140.248 14.5498C140.51 14.0827 140.749 13.5187 140.966 12.8579C141.194 12.1857 141.433 11.5876 141.684 11.0635C141.957 10.3343 142.242 9.62793 142.538 8.94434C142.834 8.26074 143.165 7.58854 143.529 6.92773C143.746 6.05046 144.099 5.23014 144.589 4.4668C144.817 4.17057 144.971 3.93132 145.05 3.74902C145.153 3.52116 145.25 3.35026 145.341 3.23633C145.614 2.90592 145.922 2.64958 146.264 2.46729C146.594 2.28499 146.89 2.02865 147.152 1.69824C147.346 1.6071 147.523 1.53874 147.682 1.49316C147.773 1.47038 147.859 1.44759 147.938 1.4248C148.018 1.39062 148.098 1.35645 148.178 1.32227C148.246 1.39062 148.28 1.52734 148.28 1.73242C148.326 1.73242 148.337 1.80078 148.314 1.9375C148.292 2.07422 148.292 2.18815 148.314 2.2793C148.314 2.59831 148.286 2.82617 148.229 2.96289L148.075 3.33887C148.052 3.52116 148.041 3.64079 148.041 3.69775C148.041 3.77751 148.03 3.87435 148.007 3.98828C147.938 4.20475 147.91 4.32438 147.921 4.34717C147.933 4.36995 147.938 4.40983 147.938 4.4668C147.938 4.51237 147.927 4.61491 147.904 4.77441C147.882 4.93392 147.87 5.04785 147.87 5.11621C147.859 5.34408 147.796 5.60612 147.682 5.90234C147.591 6.15299 147.506 6.40365 147.426 6.6543C147.289 6.8138 147.209 6.93913 147.187 7.03027C147.164 7.12142 147.118 7.17839 147.05 7.20117C146.981 7.39486 146.913 7.58854 146.845 7.78223C146.788 7.96452 146.731 8.14681 146.674 8.3291C146.56 8.68229 146.389 9.02409 146.161 9.35449C146.081 9.59375 145.962 9.8387 145.802 10.0894C145.722 10.2033 145.648 10.3229 145.58 10.4482C145.523 10.5622 145.466 10.6761 145.409 10.79L145.255 11.1147C145.187 11.2515 145.136 11.3597 145.102 11.4395C144.942 11.7357 144.777 12.0376 144.606 12.3452C144.435 12.6528 144.236 12.932 144.008 13.1826C143.598 14.0485 143.165 14.9201 142.709 15.7974C142.253 16.6746 141.809 17.5234 141.376 18.3438C141.296 18.4691 141.228 18.5887 141.171 18.7026C141.114 18.8052 141.068 18.902 141.034 18.9932C140.977 19.1185 140.937 19.2609 140.915 19.4204C140.892 19.5571 140.829 19.6768 140.727 19.7793C140.692 19.8818 140.658 19.9844 140.624 20.0869C140.59 20.1781 140.561 20.2692 140.539 20.3604C140.493 20.5426 140.408 20.7135 140.282 20.873C140.202 21.3174 140.06 21.7446 139.855 22.1548C139.661 22.5422 139.507 22.958 139.394 23.4023Z" fill="black"/>
</svg>
