<svg width="224" height="44" viewBox="0 0 224 44" fill="none" xmlns="http://www.w3.org/2000/svg">
<path d="M16.0625 22.3281C16.2578 22.7188 16.4775 23.085 16.7217 23.4268C16.9658 23.7686 17.1367 24.1836 17.2344 24.6719C17.3646 24.8509 17.4297 25.0299 17.4297 25.209C17.4297 25.4206 17.4622 25.6159 17.5273 25.7949C17.7552 26.6087 18.04 27.3981 18.3818 28.1631C18.7236 28.9281 19.0573 29.6523 19.3828 30.3359C19.4479 30.8893 19.6188 31.3369 19.8955 31.6787C20.1722 32.0205 20.3431 32.4681 20.4082 33.0215C20.6686 33.64 20.9616 34.2259 21.2871 34.7793C21.6126 35.3327 21.9382 35.8861 22.2637 36.4395L22.752 36.7324C22.8333 36.7812 22.9147 36.8301 22.9961 36.8789C23.0938 36.944 23.1914 37.0091 23.2891 37.0742C23.4518 37.1719 23.5658 37.2451 23.6309 37.2939C23.7448 37.3753 23.875 37.4486 24.0215 37.5137C24.2005 37.5951 24.3551 37.6439 24.4854 37.6602C24.6156 37.6764 24.7702 37.7253 24.9492 37.8066C25.112 37.9043 25.2178 37.9857 25.2666 38.0508C25.3154 38.1159 25.4049 38.1973 25.5352 38.2949C25.6491 38.3112 25.7793 38.3519 25.9258 38.417C26.0397 38.4658 26.1699 38.474 26.3164 38.4414C26.8535 38.7018 27.3255 38.8809 27.7324 38.9785C27.9277 39.0273 28.1149 39.0762 28.2939 39.125C28.4893 39.1901 28.6764 39.2552 28.8555 39.3203C29.0182 39.3854 29.2217 39.4505 29.4658 39.5156C29.71 39.5807 29.9134 39.6133 30.0762 39.6133C30.3854 39.7598 30.597 39.9551 30.7109 40.1992C30.8411 40.4434 30.9958 40.6712 31.1748 40.8828C31.3538 41.0944 31.6712 41.2246 32.127 41.2734C32.2409 41.3548 32.3141 41.4443 32.3467 41.542C32.3792 41.6396 32.4688 41.7454 32.6152 41.8594C32.9245 42.1198 33.0628 42.2826 33.0303 42.3477C32.9652 42.4453 32.9245 42.5267 32.9082 42.5918C32.6803 42.6243 32.4525 42.6569 32.2246 42.6895C31.9967 42.722 31.834 42.8197 31.7363 42.9824C31.6387 42.9824 31.5329 42.9824 31.4189 42.9824C31.3213 42.9824 31.2074 42.9906 31.0771 43.0068C30.8656 43.0231 30.6621 42.9661 30.4668 42.8359C29.8809 42.8685 29.3763 42.8359 28.9531 42.7383C28.5462 42.6569 27.9928 42.5755 27.293 42.4941C27.1139 42.4941 26.9349 42.4941 26.7559 42.4941C26.5931 42.5104 26.4303 42.5267 26.2676 42.543C25.9258 42.5755 25.6328 42.543 25.3887 42.4453C24.6725 42.1523 24.1029 41.8919 23.6797 41.6641C23.2565 41.4362 22.8171 41.1921 22.3613 40.9316C22.0195 40.7689 21.694 40.5736 21.3848 40.3457C21.0755 40.1178 20.75 39.9225 20.4082 39.7598C19.9525 39.2389 19.513 38.7344 19.0898 38.2461C18.6667 37.7578 18.276 37.2207 17.918 36.6348L17.6006 36.0977C17.568 36.0326 17.5273 35.9674 17.4785 35.9023C17.446 35.8372 17.4134 35.7721 17.3809 35.707C17.2669 35.4303 17.153 35.2513 17.0391 35.1699C16.9577 35.1048 16.8763 35.0072 16.7949 34.877C16.7135 34.7467 16.6322 34.5514 16.5508 34.291C16.5182 34.1771 16.4857 34.0632 16.4531 33.9492C16.4206 33.8353 16.388 33.7214 16.3555 33.6074C16.2904 33.3145 16.2253 33.0296 16.1602 32.7529C16.0951 32.4762 16.0137 32.2077 15.916 31.9473C15.8346 31.7194 15.7451 31.5485 15.6475 31.4346C15.5335 31.2881 15.4603 31.1009 15.4277 30.873C15.2975 30.515 15.1755 30.1488 15.0615 29.7744C14.9476 29.4001 14.8581 29.0013 14.793 28.5781C14.6953 27.9596 14.5732 27.4795 14.4268 27.1377C14.2965 26.8447 14.1908 26.5111 14.1094 26.1367C13.8978 25.6322 13.6211 25.0625 13.2793 24.4277C13.1003 24.1022 12.9294 23.8011 12.7666 23.5244C12.6201 23.2314 12.4818 22.9629 12.3516 22.7188C12.319 22.6374 12.2946 22.5641 12.2783 22.499C12.262 22.4339 12.2458 22.377 12.2295 22.3281C12.2132 22.2305 12.1562 22.1491 12.0586 22.084C11.8796 22.263 11.7331 22.5397 11.6191 22.9141C11.5215 23.2559 11.3913 23.5488 11.2285 23.793C10.8704 24.3626 10.6426 24.8265 10.5449 25.1846C10.4473 25.5426 10.3008 25.8763 10.1055 26.1855C10.0078 26.8529 9.82878 27.4225 9.56836 27.8945C9.48698 28.3665 9.32422 28.7083 9.08008 28.9199C8.91732 29.5059 8.72201 30.0918 8.49414 30.6777C8.38021 30.9707 8.26628 31.2637 8.15234 31.5566C8.05469 31.8333 7.95703 32.11 7.85938 32.3867C7.77799 32.7285 7.69661 33.0052 7.61523 33.2168C7.51758 33.4609 7.48503 33.7214 7.51758 33.998C7.51758 34.2422 7.47689 34.4701 7.39551 34.6816C7.31413 34.8932 7.24089 35.1211 7.17578 35.3652C7.01302 35.821 6.66309 36.0977 6.12598 36.1953C5.86556 36.2441 5.60514 36.293 5.34473 36.3418C5.08431 36.4069 4.83203 36.472 4.58789 36.5371C4.49023 36.5697 4.38444 36.6022 4.27051 36.6348C4.15658 36.6673 4.03451 36.6999 3.9043 36.7324C3.51367 36.8301 3.09863 37.001 2.65918 37.2451C2.20345 37.4893 1.75586 37.5788 1.31641 37.5137C1.02344 37.4486 0.917643 37.2777 0.999023 37.001C1.0804 36.7243 1.20247 36.5208 1.36523 36.3906C1.52799 36.0326 1.69889 35.6745 1.87793 35.3164C2.05697 34.9583 2.24414 34.6165 2.43945 34.291C2.52083 33.9818 2.63477 33.7539 2.78125 33.6074C2.96029 33.4935 3.09049 33.3145 3.17188 33.0703C3.23698 33.0052 3.29395 32.9238 3.34277 32.8262C3.3916 32.7285 3.43229 32.6471 3.46484 32.582C3.51367 32.4681 3.55436 32.2972 3.58691 32.0693C3.61947 31.8415 3.66016 31.6706 3.70898 31.5566C3.75781 31.4264 3.80664 31.2962 3.85547 31.166C3.9043 31.0195 3.94499 30.8812 3.97754 30.751C4.05892 30.4417 4.18099 30.1406 4.34375 29.8477L4.56348 29.2617C4.59603 29.1641 4.63672 29.0583 4.68555 28.9443C4.73438 28.8304 4.7832 28.7083 4.83203 28.5781C4.91341 28.3665 5.01107 28.1794 5.125 28.0166C5.25521 27.8213 5.36914 27.6341 5.4668 27.4551C5.66211 26.9831 5.80859 26.6169 5.90625 26.3564C6.02018 26.0635 6.15039 25.7949 6.29688 25.5508C6.58984 24.8021 6.89095 24.1755 7.2002 23.6709C7.37923 23.3942 7.55013 23.1012 7.71289 22.792C7.87565 22.4827 8.03841 22.1654 8.20117 21.8398C8.23372 21.791 8.26628 21.7422 8.29883 21.6934C8.33138 21.6445 8.36393 21.6038 8.39648 21.5713C8.46159 21.5062 8.51042 21.4004 8.54297 21.2539C8.67318 21.1725 8.77083 21.0586 8.83594 20.9121C8.90104 20.7656 8.9987 20.6517 9.12891 20.5703C9.25911 20.375 9.35677 20.1797 9.42188 19.9844C9.50326 19.7728 9.60091 19.61 9.71484 19.4961C10.0404 18.8939 10.3496 18.2428 10.6426 17.543C10.6751 17.4616 10.6995 17.3883 10.7158 17.3232C10.7321 17.2419 10.7484 17.1686 10.7646 17.1035C10.7972 16.9082 10.8379 16.778 10.8867 16.7129C11.0658 16.5013 11.1878 16.3223 11.2529 16.1758C11.318 16.013 11.375 15.8991 11.4238 15.834C11.4889 15.7201 11.554 15.6143 11.6191 15.5166C11.7005 15.4027 11.7738 15.2887 11.8389 15.1748C11.9202 15.0609 11.9935 14.9469 12.0586 14.833C12.1237 14.7191 12.1888 14.597 12.2539 14.4668C12.4167 13.9948 12.6364 13.5472 12.9131 13.124C13.1898 12.6846 13.4095 12.2533 13.5723 11.8301C13.7676 11.5371 13.8815 11.3743 13.9141 11.3418C13.9466 11.3092 13.9629 11.2604 13.9629 11.1953C14.3861 10.3815 14.7686 9.62467 15.1104 8.9248C15.4521 8.22493 15.8021 7.50065 16.1602 6.75195C15.7695 6.83333 15.4521 6.99609 15.208 7.24023C14.9639 7.48438 14.679 7.66341 14.3535 7.77734C14.2559 7.90755 14.1908 7.98893 14.1582 8.02148L13.9629 8.2168C13.1491 8.60742 12.4004 9.04688 11.7168 9.53516C11.0332 10.0234 10.431 10.6257 9.91016 11.3418C9.68229 11.4395 9.51139 11.529 9.39746 11.6104C9.31608 11.6755 9.22656 11.7324 9.12891 11.7812C9.04753 11.8301 8.96615 11.8789 8.88477 11.9277C8.6569 12.0254 8.36393 12.0905 8.00586 12.123C7.64779 12.1556 7.37109 12.0417 7.17578 11.7812C7.06185 10.8372 7.14323 10.1374 7.41992 9.68164C7.72917 9.19336 8.00586 8.73763 8.25 8.31445C8.62435 7.97266 9.08008 7.62272 9.61719 7.26465L11.0332 6.36133C11.4564 6.06836 11.7249 5.87305 11.8389 5.77539C11.9202 5.71029 12.0423 5.62891 12.2051 5.53125C12.5957 5.27083 12.9945 5.00228 13.4014 4.72559C13.8083 4.43262 14.2233 4.13151 14.6465 3.82227C15.151 3.36654 15.7207 3.02474 16.3555 2.79688C16.6647 2.69922 16.9495 2.61784 17.21 2.55273C17.4704 2.47135 17.7064 2.39811 17.918 2.33301C18.1296 2.2679 18.333 2.2028 18.5283 2.1377C18.7236 2.07259 18.9108 1.99935 19.0898 1.91797C20.1315 1.72266 21.0918 1.47038 21.9707 1.16113C22.8496 0.851888 23.7448 0.534505 24.6562 0.208984C24.8841 0.176432 25.1038 0.152018 25.3154 0.135742C25.527 0.119466 25.7386 0.10319 25.9502 0.0869141L27.293 0.0136719C27.4232 0.111328 27.6104 0.152018 27.8545 0.135742C27.9847 0.119466 28.0986 0.119466 28.1963 0.135742C28.3102 0.135742 28.416 0.14388 28.5137 0.160156C28.6439 0.192708 28.7741 0.22526 28.9043 0.257812C29.0345 0.274089 29.1566 0.298503 29.2705 0.331055C29.4007 0.347331 29.5228 0.371745 29.6367 0.404297C29.7669 0.436849 29.8971 0.469401 30.0273 0.501953C30.2389 0.697266 30.5238 0.835612 30.8818 0.916992C31.1911 0.982096 31.541 1.08789 31.9316 1.23438C32.1921 1.36458 32.4362 1.48665 32.6641 1.60059C32.8919 1.71452 33.1361 1.83659 33.3965 1.9668C33.6243 2.24349 33.7301 2.47135 33.7139 2.65039C33.6976 2.74805 33.6895 2.87012 33.6895 3.0166C33.7057 3.14681 33.722 3.30143 33.7383 3.48047L33.8115 3.94434C33.8441 4.13965 33.8685 4.29427 33.8848 4.4082C33.8848 4.53841 33.9092 4.65234 33.958 4.75C34.0068 4.84766 34.0312 4.94531 34.0312 5.04297C34.0475 5.31966 34.0638 5.59635 34.0801 5.87305C34.1126 6.13346 34.137 6.40202 34.1533 6.67871C34.2021 7.24837 34.194 7.79362 34.1289 8.31445C34.0475 8.75391 33.9336 9.08757 33.7871 9.31543C33.7057 9.44564 33.6243 9.59212 33.543 9.75488C33.4616 9.91764 33.3802 10.0885 33.2988 10.2676C33.1035 10.5931 32.8919 10.9186 32.6641 11.2441C32.4362 11.5697 32.1921 11.9115 31.9316 12.2695C31.8828 12.3021 31.834 12.3346 31.7852 12.3672C31.7363 12.3835 31.6956 12.4079 31.6631 12.4404C31.5654 12.5055 31.5085 12.5951 31.4922 12.709C31.0365 13.0508 30.6458 13.3112 30.3203 13.4902C30.0111 13.653 29.7018 13.8483 29.3926 14.0762C29.2624 14.1413 29.1322 14.2064 29.002 14.2715C28.8717 14.3366 28.7415 14.4017 28.6113 14.4668C28.4648 14.6133 28.3021 14.7435 28.123 14.8574C28.0254 14.9225 27.9277 14.9876 27.8301 15.0527C27.7487 15.1178 27.6673 15.1829 27.5859 15.248C27.3255 15.5085 27.0977 15.6875 26.9023 15.7852C26.7233 15.8828 26.5931 16.0456 26.5117 16.2734C25.7956 16.6641 25.1283 17.1442 24.5098 17.7139C23.9564 18.2184 23.3216 18.7148 22.6055 19.2031C22.4753 19.3171 22.3451 19.431 22.2148 19.5449C22.1009 19.6589 21.9788 19.7728 21.8486 19.8867C21.6208 20.0983 21.3359 20.2936 20.9941 20.4727C20.5384 20.668 20.2048 20.847 19.9932 21.0098C19.7979 21.1562 19.513 21.2702 19.1387 21.3516C18.276 21.8724 17.2507 22.1979 16.0625 22.3281ZM26.9512 3.28516C26.7884 3.31771 26.6257 3.33398 26.4629 3.33398C26.235 3.33398 26.0234 3.36654 25.8281 3.43164C25.6654 3.46419 25.4945 3.51302 25.3154 3.57812C25.1364 3.62695 24.9492 3.69206 24.7539 3.77344C24.5586 3.85482 24.3633 3.92806 24.168 3.99316C23.9727 4.04199 23.7773 4.08268 23.582 4.11523C23.3216 4.18034 23.0856 4.24544 22.874 4.31055C22.6787 4.35938 22.4997 4.4082 22.3369 4.45703C21.9951 4.57096 21.7754 4.65234 21.6777 4.70117C21.6289 4.75 21.5882 4.86393 21.5557 5.04297C21.5231 5.23828 21.4824 5.36849 21.4336 5.43359C21.3034 5.75911 21.1406 6.06022 20.9453 6.33691C20.75 6.59733 20.6035 6.86589 20.5059 7.14258C20.1641 7.51693 19.9036 7.93197 19.7246 8.3877C19.6432 8.59928 19.5618 8.80273 19.4805 8.99805C19.3991 9.17708 19.3177 9.35612 19.2363 9.53516C19.0247 9.81185 18.8376 10.0723 18.6748 10.3164C18.512 10.5605 18.3737 10.7884 18.2598 11L17.9668 11.3174C17.9342 11.3499 17.918 11.3906 17.918 11.4395C17.5273 11.8301 17.21 12.2695 16.9658 12.7578C16.7217 13.2461 16.4206 13.6693 16.0625 14.0273C15.9323 14.2227 15.8184 14.4098 15.7207 14.5889C15.6393 14.7516 15.5661 14.9062 15.501 15.0527C15.3708 15.3783 15.1836 15.6387 14.9395 15.834L14.5732 16.5908C14.5081 16.7048 14.443 16.8268 14.3779 16.957C14.3291 17.0872 14.2721 17.2174 14.207 17.3477C13.9303 17.9661 13.5723 18.6009 13.1328 19.252C13.1328 19.3984 13.0921 19.5286 13.0107 19.6426C12.9619 19.7077 12.8887 19.8216 12.791 19.9844C12.9212 20.082 13.0514 20.0983 13.1816 20.0332C13.3118 19.9681 13.4258 19.903 13.5234 19.8379C14.2884 19.4147 15.1022 19.0485 15.9648 18.7393C16.8926 18.4137 17.6901 18.015 18.3574 17.543C18.9759 17.1849 19.5456 16.8512 20.0664 16.542C20.5872 16.2327 21.0918 15.8991 21.5801 15.541L22.7031 14.9307C22.8333 14.8493 22.9717 14.776 23.1182 14.7109C23.2809 14.6458 23.4518 14.5807 23.6309 14.5156C23.9238 14.2715 24.2005 14.0762 24.4609 13.9297C24.7376 13.7669 24.9655 13.5716 25.1445 13.3438C25.4701 13.0833 25.7956 12.7497 26.1211 12.3428C26.4466 11.9359 26.7559 11.5859 27.0488 11.293C27.2116 11.2767 27.3092 11.2197 27.3418 11.1221C27.3743 11.0407 27.472 11 27.6348 11C27.9115 10.6257 28.2288 10.3083 28.5869 10.0479C28.9613 9.77116 29.2461 9.45378 29.4414 9.0957C29.6204 8.81901 29.7425 8.55859 29.8076 8.31445C29.889 8.03776 30.0111 7.74479 30.1738 7.43555C30.1087 7.19141 30.1657 6.92285 30.3447 6.62988C30.5238 6.33691 30.5807 6.08464 30.5156 5.87305C30.4342 5.61263 30.304 5.40918 30.125 5.2627C29.9297 5.09993 29.7832 4.91276 29.6855 4.70117C29.6204 4.42448 29.5472 4.22917 29.4658 4.11523C29.4007 4.0013 29.3275 3.83854 29.2461 3.62695C29.181 3.5944 29.1159 3.56185 29.0508 3.5293C29.002 3.49674 28.9531 3.46419 28.9043 3.43164C28.8229 3.36654 28.6602 3.35026 28.416 3.38281C28.2533 3.30143 28.0335 3.27702 27.7568 3.30957C27.6266 3.32585 27.4883 3.33398 27.3418 3.33398C27.2116 3.31771 27.0814 3.30143 26.9512 3.28516ZM29.3438 25.209C29.5553 25.0951 29.8158 24.8509 30.125 24.4766C30.4342 24.0859 30.7354 23.7116 31.0283 23.3535C31.3213 22.9792 31.541 22.7676 31.6875 22.7188C31.7852 22.556 31.8747 22.4176 31.9561 22.3037C32.0374 22.1898 32.1595 22.084 32.3223 21.9863C32.5827 21.5143 32.9245 21.1156 33.3477 20.79C33.7871 20.4482 34.194 20.082 34.5684 19.6914C34.8776 19.5612 35.1868 19.4147 35.4961 19.252C35.8216 19.0892 36.139 18.902 36.4482 18.6904C37.083 18.2673 37.791 18.0475 38.5723 18.0312C38.9303 18.194 39.2803 18.2428 39.6221 18.1777C39.9476 18.1126 40.265 18.194 40.5742 18.4219C40.7533 18.7311 40.8997 18.9183 41.0137 18.9834C41.1276 19.0485 41.2253 19.138 41.3066 19.252C41.4368 19.6589 41.5345 19.9274 41.5996 20.0576C41.681 20.1878 41.7298 20.3262 41.7461 20.4727C41.7624 20.7168 41.7786 20.9284 41.7949 21.1074C41.8112 21.2702 41.8275 21.4085 41.8438 21.5225C41.86 21.734 41.86 21.9375 41.8438 22.1328C41.7461 22.9629 41.5833 23.793 41.3555 24.623C41.3229 24.7207 41.2904 24.8184 41.2578 24.916C41.2253 25.0137 41.1927 25.1195 41.1602 25.2334C41.0951 25.445 41.0137 25.6322 40.916 25.7949C40.6719 26.1042 40.501 26.3564 40.4033 26.5518C40.2568 26.8122 40.151 26.9831 40.0859 27.0645C39.8906 27.2598 39.7035 27.4388 39.5244 27.6016C39.3617 27.7643 39.207 27.9108 39.0605 28.041C38.9141 28.1224 38.7676 28.2119 38.6211 28.3096C38.4746 28.391 38.3281 28.4805 38.1816 28.5781C37.9049 28.7572 37.5794 28.8874 37.2051 28.9688L36.7656 29.2373C36.6191 29.335 36.4564 29.3919 36.2773 29.4082C35.9844 29.6198 35.6589 29.7907 35.3008 29.9209C35.138 29.986 34.9671 30.0511 34.7881 30.1162C34.6253 30.1813 34.4544 30.2546 34.2754 30.3359C34.0312 30.4336 33.8197 30.5475 33.6406 30.6777C33.4616 30.8079 33.2337 30.9382 32.957 31.0684C32.8105 31.1172 32.5745 31.1742 32.249 31.2393C31.9398 31.2881 31.7201 31.3451 31.5898 31.4102C31.7526 31.7357 31.8177 32.1426 31.7852 32.6309C31.7689 33.0866 31.8503 33.4935 32.0293 33.8516C32.4525 33.9492 32.9163 34.0225 33.4209 34.0713C33.9255 34.1201 34.4056 34.112 34.8613 34.0469C34.9427 34.0306 35.0241 34.0062 35.1055 33.9736C35.2031 33.9411 35.3008 33.9085 35.3984 33.876C35.4961 33.8434 35.5938 33.8109 35.6914 33.7783C35.7891 33.7458 35.8867 33.7214 35.9844 33.7051C36.3424 33.64 36.6924 33.5586 37.0342 33.4609C37.376 33.3633 37.6771 33.2331 37.9375 33.0703C38.8815 32.7448 39.793 32.3053 40.6719 31.752C41.5508 31.1986 42.3158 30.5964 42.9668 29.9453C43.3574 29.6849 43.7887 29.3268 44.2607 28.8711C44.7327 28.4154 45.099 27.9922 45.3594 27.6016C45.8477 27.0807 46.279 26.6738 46.6533 26.3809C47.0277 26.0879 47.3776 25.9577 47.7031 25.9902C47.9635 25.9902 48.2158 26.1449 48.46 26.4541C48.7041 26.7633 48.6797 27.097 48.3867 27.4551C48.0775 27.6504 47.7357 27.9434 47.3613 28.334C47.0033 28.7246 46.6289 29.0013 46.2383 29.1641C45.9616 29.3431 45.5954 29.7012 45.1396 30.2383C44.7002 30.7428 44.334 31.1335 44.041 31.4102C43.9759 31.4753 43.9027 31.5485 43.8213 31.6299C43.7399 31.7113 43.6423 31.7926 43.5283 31.874C43.3167 32.0368 43.1458 32.2077 43.0156 32.3867C42.5111 32.8099 42.0228 33.168 41.5508 33.4609C41.3717 33.3958 41.2253 33.4284 41.1113 33.5586C40.9648 33.7376 40.8346 33.8678 40.7207 33.9492C40.6719 33.9818 40.623 34.0143 40.5742 34.0469C40.5254 34.0794 40.4684 34.112 40.4033 34.1445C40.3382 34.1771 40.2812 34.2096 40.2324 34.2422C40.1836 34.2747 40.1348 34.3073 40.0859 34.3398C39.8255 34.5677 39.5407 34.7956 39.2314 35.0234C38.9222 35.2513 38.6048 35.4466 38.2793 35.6094C37.9538 35.8047 37.6283 35.9837 37.3027 36.1465C36.9772 36.3255 36.6517 36.4801 36.3262 36.6104C36.0007 36.7406 35.6751 36.8952 35.3496 37.0742C35.0404 37.2533 34.7311 37.4486 34.4219 37.6602L33.8848 37.7334C33.8034 37.7497 33.722 37.7578 33.6406 37.7578C33.5592 37.7741 33.4779 37.7904 33.3965 37.8066C33.2174 37.8717 33.0465 37.9043 32.8838 37.9043C32.721 37.9043 32.5176 37.8717 32.2734 37.8066C31.1992 37.5137 30.3203 36.9928 29.6367 36.2441C29.5391 36.1465 29.4333 36.057 29.3193 35.9756C29.2217 35.8779 29.1159 35.7884 29.002 35.707C28.7415 35.5117 28.5625 35.3327 28.4648 35.1699C28.3184 34.9258 28.1719 34.5433 28.0254 34.0225C27.8626 33.5016 27.7243 32.9727 27.6104 32.4355C27.4964 31.8822 27.4395 31.459 27.4395 31.166C27.5371 30.9707 27.6429 30.637 27.7568 30.165C27.8708 29.6768 27.9684 29.1966 28.0498 28.7246C28.1312 28.2363 28.1719 27.8945 28.1719 27.6992C28.237 27.6341 28.3672 27.4225 28.5625 27.0645C28.7415 26.6901 28.9124 26.3158 29.0752 25.9414C29.2542 25.5508 29.3438 25.3066 29.3438 25.209ZM37.2051 22.084C36.9772 22.377 36.7493 22.6536 36.5215 22.9141C36.2936 23.1745 36.0332 23.4186 35.7402 23.6465C35.5449 24.0046 35.3171 24.3301 35.0566 24.623C34.7962 24.916 34.5358 25.1927 34.2754 25.4531C34.1452 25.7135 33.9987 25.917 33.8359 26.0635C33.6732 26.21 33.4941 26.3646 33.2988 26.5273C33.0872 26.8854 32.8268 27.2272 32.5176 27.5527C32.2083 27.8783 32.1432 28.2526 32.3223 28.6758C32.6803 28.7409 33.0384 28.6921 33.3965 28.5293C33.7546 28.3665 34.0638 28.2201 34.3242 28.0898C34.4544 28.0085 34.5846 27.9352 34.7148 27.8701C34.8613 27.805 34.9997 27.7399 35.1299 27.6748C35.2601 27.6097 35.3903 27.5446 35.5205 27.4795C35.6507 27.4144 35.7728 27.3411 35.8867 27.2598L37.1562 25.9902C37.3516 25.8112 37.5469 25.5996 37.7422 25.3555C37.8236 25.2415 37.9049 25.1276 37.9863 25.0137C38.084 24.8835 38.1816 24.7533 38.2793 24.623C38.3607 24.265 38.4909 23.9313 38.6699 23.6221C38.8652 23.2965 38.9466 22.9629 38.9141 22.6211C38.8978 22.4746 38.8408 22.3037 38.7432 22.1084C38.6455 21.9131 38.5885 21.7585 38.5723 21.6445C38.2305 21.6445 37.9782 21.7015 37.8154 21.8154C37.734 21.8805 37.6364 21.9375 37.5225 21.9863C37.4248 22.0189 37.319 22.0514 37.2051 22.084ZM52.0977 19.1055C52.3581 19.0404 52.5046 19.0322 52.5371 19.0811C52.5697 19.1299 52.6348 19.1543 52.7324 19.1543C52.8626 19.3333 52.8789 19.5938 52.7812 19.9355C52.6673 20.4564 52.4395 20.9528 52.0977 21.4248C51.7559 21.8968 51.4954 22.3607 51.3164 22.8164C51.2025 23.0443 51.0967 23.2477 50.999 23.4268C50.9176 23.5895 50.8444 23.736 50.7793 23.8662C50.7142 23.9801 50.6491 24.1022 50.584 24.2324C50.5352 24.3626 50.4863 24.4928 50.4375 24.623C50.2747 24.9811 50.112 25.3799 49.9492 25.8193C49.7865 26.2588 49.6237 26.7064 49.4609 27.1621L49.168 27.7969C49.0052 28.1549 48.875 28.4723 48.7773 28.749C48.6797 29.0257 48.6146 29.3757 48.582 29.7988V31.1172C48.6146 31.3451 48.639 31.5811 48.6553 31.8252C48.6715 32.0693 48.6878 32.3216 48.7041 32.582C48.7367 33.1191 48.8424 33.5586 49.0215 33.9004C49.4284 33.7051 49.8678 33.3714 50.3398 32.8994C50.5677 32.6715 50.7793 32.4681 50.9746 32.2891C51.1862 32.0938 51.3815 31.931 51.5605 31.8008C51.7884 31.4753 52.0407 31.1742 52.3174 30.8975C52.6104 30.6045 52.8464 30.2871 53.0254 29.9453C53.416 29.6198 53.6764 29.1966 53.8066 28.6758C53.9694 28.4967 54.124 28.2933 54.2705 28.0654C54.3519 27.9515 54.4251 27.8457 54.4902 27.748C54.5716 27.6341 54.653 27.5202 54.7344 27.4062C54.9785 27.0645 55.1901 26.6576 55.3691 26.1855C55.4668 25.9089 55.5075 25.6484 55.4912 25.4043C55.4749 25.2741 55.4668 25.1439 55.4668 25.0137C55.4668 24.8835 55.4668 24.7533 55.4668 24.623C55.4831 24.3464 55.5319 24.0697 55.6133 23.793C55.6784 23.5651 55.6947 23.3047 55.6621 23.0117C55.7109 22.9303 55.7679 22.792 55.833 22.5967C55.8981 22.4014 55.9551 22.2467 56.0039 22.1328C56.069 21.9701 56.1911 21.791 56.3701 21.5957C56.5492 21.4004 56.7201 21.2214 56.8828 21.0586C56.9967 20.9121 57.1025 20.7656 57.2002 20.6191C57.3141 20.4727 57.4199 20.3262 57.5176 20.1797C57.6966 19.903 57.9408 19.6751 58.25 19.4961L58.8359 19.252C59.0801 19.138 59.2754 19.0729 59.4219 19.0566C59.666 19.0241 59.9915 18.9508 60.3984 18.8369C60.8216 18.7067 61.1471 18.6823 61.375 18.7637C61.5052 18.7799 61.6273 18.8532 61.7412 18.9834C61.8551 19.0811 61.9935 19.0729 62.1562 18.959C62.4167 19.2357 62.5469 19.4798 62.5469 19.6914C62.5469 19.8867 62.4818 20.0983 62.3516 20.3262C62.14 20.6354 62.026 20.8226 62.0098 20.8877C61.9935 20.9202 61.9772 20.9609 61.9609 21.0098C61.9447 21.0423 61.9284 21.0749 61.9121 21.1074C61.6191 21.5957 61.3262 22.1328 61.0332 22.7188C60.7402 23.3047 60.4961 23.8581 60.3008 24.3789C60.6263 24.5417 61.0576 24.6149 61.5947 24.5986C62.1318 24.5824 62.612 24.5254 63.0352 24.4277C63.1003 24.4115 63.1572 24.3952 63.2061 24.3789C63.2712 24.3626 63.3363 24.3464 63.4014 24.3301C63.4665 24.3138 63.5234 24.2975 63.5723 24.2812C63.6374 24.265 63.7025 24.2487 63.7676 24.2324C63.9792 24.1673 64.2965 24.1104 64.7197 24.0615C65.0615 24.0127 65.3789 23.9232 65.6719 23.793C66.0462 23.5977 66.2741 23.5 66.3555 23.5C66.4694 23.5 66.5833 23.4674 66.6973 23.4023C67.0065 23.321 67.2913 23.2396 67.5518 23.1582C67.8122 23.0768 68.0482 22.9954 68.2598 22.9141C68.3737 22.8815 68.4876 22.849 68.6016 22.8164C68.7155 22.7676 68.8294 22.7106 68.9434 22.6455C69.1712 22.5153 69.3828 22.4909 69.5781 22.5723C69.6432 22.6374 69.6676 22.7513 69.6514 22.9141C69.6351 23.0605 69.6758 23.2233 69.7734 23.4023C69.513 23.6139 69.3177 23.7116 69.1875 23.6953C68.9271 23.8255 68.6585 23.9476 68.3818 24.0615C68.1051 24.1755 67.8122 24.2894 67.5029 24.4033L65.7695 25.0137C65.3789 25.1927 65.1185 25.266 64.9883 25.2334C64.8743 25.2008 64.7279 25.2253 64.5488 25.3066C64.0117 25.5508 63.5479 25.7298 63.1572 25.8438C62.8317 25.9414 62.5469 26.0553 62.3027 26.1855C62.1725 26.2832 62.083 26.3564 62.0342 26.4053C61.9528 26.4867 61.847 26.5436 61.7168 26.5762C61.1634 26.6738 60.6914 26.7145 60.3008 26.6982C59.8939 26.682 59.4707 26.7878 59.0312 27.0156C58.9336 27.2109 58.8034 27.4307 58.6406 27.6748C58.4779 27.9189 58.2988 28.1224 58.1035 28.2852C57.9408 28.6107 57.7699 28.8874 57.5908 29.1152C57.4118 29.3431 57.2083 29.5872 56.9805 29.8477C56.6875 30.1081 56.3945 30.3848 56.1016 30.6777C55.8086 30.9707 55.5319 31.2474 55.2715 31.5078C54.8158 32.2565 54.2868 32.9482 53.6846 33.583C53.0824 34.2178 52.4557 34.8444 51.8047 35.4629C51.6419 35.4792 51.4873 35.5524 51.3408 35.6826C51.2269 35.7803 51.0723 35.8698 50.877 35.9512C50.6654 36.0163 50.4945 36.0651 50.3643 36.0977C50.2503 36.1465 50.1771 36.179 50.1445 36.1953C50.0794 36.2116 49.9818 36.2604 49.8516 36.3418C49.6237 36.4395 49.4528 36.529 49.3389 36.6104C49.2412 36.6755 49.168 36.7324 49.1191 36.7812C49.0378 36.8464 48.9401 36.8789 48.8262 36.8789C48.7448 36.8789 48.6634 36.944 48.582 37.0742C48.1751 36.9928 47.931 37.0417 47.8496 37.2207C47.7194 37.2207 47.5892 37.237 47.459 37.2695C47.3613 37.3021 47.2474 37.3021 47.1172 37.2695C47.0195 37.1882 46.9463 37.1149 46.8975 37.0498C46.8324 36.9521 46.7754 36.8789 46.7266 36.8301C46.2383 36.6348 45.9453 36.4232 45.8477 36.1953C45.7337 35.9512 45.5872 35.7721 45.4082 35.6582C45.2617 35.3164 45.1722 34.9258 45.1396 34.4863C45.1234 34.291 45.1071 34.0957 45.0908 33.9004C45.0745 33.6888 45.0501 33.4772 45.0176 33.2656C45.0013 33.2005 44.985 33.1436 44.9688 33.0947C44.9525 33.0296 44.9362 32.9645 44.9199 32.8994C44.9036 32.8343 44.8874 32.7773 44.8711 32.7285C44.8548 32.6634 44.8385 32.5983 44.8223 32.5332C44.7572 32.2728 44.7327 32.0124 44.749 31.752C44.7653 31.5078 44.7246 31.2474 44.627 30.9707C44.7897 30.4499 44.806 29.9453 44.6758 29.457C44.7409 29.2292 44.8223 28.9281 44.9199 28.5537C45.0176 28.1794 45.0827 27.862 45.1152 27.6016C45.1966 26.918 45.3187 26.3483 45.4814 25.8926C45.6605 25.4368 45.929 24.8672 46.2871 24.1836C46.4173 23.8906 46.5638 23.5977 46.7266 23.3047C46.8079 23.1582 46.8893 23.0117 46.9707 22.8652C47.0521 22.7025 47.1335 22.5397 47.2148 22.377C47.2962 22.2142 47.3613 22.084 47.4102 21.9863C47.4753 21.8724 47.516 21.791 47.5322 21.7422C47.5973 21.6283 47.7031 21.4492 47.8496 21.2051L48.0938 20.7656C48.1914 20.6029 48.3053 20.4564 48.4355 20.3262C48.696 20.0658 48.9401 19.8623 49.168 19.7158C49.3958 19.5693 49.6725 19.4147 49.998 19.252C50.3073 19.3171 50.7061 19.2601 51.1943 19.0811C51.6826 18.902 51.9837 18.9102 52.0977 19.1055ZM75.0469 11.5371L75.5352 11.6836C75.6003 11.765 75.6328 11.8626 75.6328 11.9766C75.6328 12.0579 75.6816 12.1393 75.7793 12.2207C75.7142 12.5137 75.6572 12.8148 75.6084 13.124C75.5596 13.4333 75.5352 13.7344 75.5352 14.0273C75.5352 14.1413 75.5758 14.2552 75.6572 14.3691C75.7386 14.4831 75.7793 14.5807 75.7793 14.6621C75.6165 15.0365 75.4945 15.2643 75.4131 15.3457C75.3317 15.4271 75.291 15.5085 75.291 15.5898C75.1283 15.6549 75.0062 15.7526 74.9248 15.8828C74.8434 16.013 74.7051 16.0781 74.5098 16.0781C74.4447 16.1758 74.3714 16.249 74.29 16.2979C74.1924 16.363 74.1354 16.4525 74.1191 16.5664C73.582 16.7943 72.9961 16.778 72.3613 16.5176C72.1823 16.2083 71.9544 15.9967 71.6777 15.8828C71.2546 15.2643 71.2383 14.5319 71.6289 13.6855C71.694 13.5228 71.7673 13.3519 71.8486 13.1729C71.93 12.9938 72.0033 12.8717 72.0684 12.8066C72.4102 12.5625 72.6706 12.3997 72.8496 12.3184C72.9147 12.2858 72.9798 12.2533 73.0449 12.2207C73.1263 12.1719 73.1995 12.123 73.2646 12.0742C73.3786 11.9928 73.5495 11.9115 73.7773 11.8301C73.875 11.7975 73.9645 11.7812 74.0459 11.7812C74.1761 11.7812 74.2982 11.7487 74.4121 11.6836C74.4772 11.6673 74.5342 11.651 74.583 11.6348C74.6481 11.6185 74.7051 11.6022 74.7539 11.5859C74.8841 11.5534 74.9818 11.5371 75.0469 11.5371ZM67.7227 33.168L67.9668 33.2656C68.2598 33.1354 68.6178 33.0866 69.041 33.1191C69.4805 33.1517 69.8223 33.0866 70.0664 32.9238C70.2292 32.7936 70.3431 32.696 70.4082 32.6309C70.5059 32.5332 70.6198 32.5007 70.75 32.5332C71.2708 32.3379 71.7103 32.1426 72.0684 31.9473C72.4427 31.752 72.8333 31.6055 73.2402 31.5078C73.5007 31.4102 73.7285 31.2637 73.9238 31.0684C74.5911 30.8568 75.1527 30.5557 75.6084 30.165C76.0804 29.7744 76.5931 29.3594 77.1465 28.9199C77.6022 28.6595 77.9847 28.4316 78.2939 28.2363C78.6032 28.041 78.9368 27.7969 79.2949 27.5039C79.3763 27.3249 79.4658 27.2028 79.5635 27.1377C79.6449 27.0889 79.7344 26.9831 79.832 26.8203C80.418 26.8203 80.7435 27.0482 80.8086 27.5039C80.6458 27.862 80.4261 28.1549 80.1494 28.3828C79.8564 28.627 79.6042 28.8874 79.3926 29.1641C79.1322 29.3268 78.9206 29.4733 78.7578 29.6035C78.5951 29.7337 78.4323 29.929 78.2695 30.1895C78.2533 30.1895 78.1556 30.2627 77.9766 30.4092C77.8138 30.5557 77.7161 30.6289 77.6836 30.6289C77.4232 30.9382 77.2279 31.1253 77.0977 31.1904C76.9674 31.2555 76.7396 31.4264 76.4141 31.7031C76.2025 32.0612 75.9095 32.3542 75.5352 32.582C74.8353 33.2493 74.0947 33.8109 73.3135 34.2666C72.9066 34.4945 72.5241 34.7305 72.166 34.9746C71.8079 35.2025 71.4661 35.4303 71.1406 35.6582C70.9779 35.7559 70.8639 35.8454 70.7988 35.9268C70.7337 36.0081 70.6198 36.1139 70.457 36.2441C70.2943 36.3743 70.042 36.5046 69.7002 36.6348C69.3584 36.765 69.0573 36.8789 68.7969 36.9766C68.5853 37.1068 68.4062 37.2044 68.2598 37.2695C67.5273 37.3021 66.974 37.1882 66.5996 36.9277C66.1764 36.6999 65.8509 36.5208 65.623 36.3906C65.3952 36.2604 65.1999 36.0488 65.0371 35.7559C64.6628 35.5768 64.443 35.2757 64.3779 34.8525C64.3454 34.6247 64.3047 34.4049 64.2559 34.1934C64.207 33.9818 64.1582 33.7702 64.1094 33.5586C64.0768 33.3958 64.0443 33.2087 64.0117 32.9971C63.9792 32.7855 63.9792 32.5658 64.0117 32.3379C64.0931 31.9635 64.1419 31.5811 64.1582 31.1904C64.1745 30.8324 64.2559 30.4824 64.4023 30.1406C64.5488 29.8151 64.6383 29.457 64.6709 29.0664C64.7035 28.6758 64.793 28.3177 64.9395 27.9922C65.151 27.6667 65.2406 27.4876 65.208 27.4551C65.1917 27.4388 65.1999 27.39 65.2324 27.3086L65.4521 27.0156C65.501 26.9505 65.5742 26.8366 65.6719 26.6738L65.9648 25.9414C66.1113 25.6647 66.2578 25.4368 66.4043 25.2578C66.5508 25.0625 66.681 24.7858 66.7949 24.4277C66.8763 24.1999 66.9658 24.0208 67.0635 23.8906C67.1286 23.8092 67.1855 23.7279 67.2344 23.6465C67.2995 23.5488 67.3646 23.4512 67.4297 23.3535C67.5111 23.1908 67.5924 22.9873 67.6738 22.7432C67.7064 22.6292 67.7389 22.5234 67.7715 22.4258C67.8203 22.3118 67.8691 22.1979 67.918 22.084C68.0156 21.8236 68.1377 21.5632 68.2842 21.3027C68.4307 21.0423 68.5853 20.7819 68.748 20.5215C68.8783 20.2611 68.9922 20.0658 69.0898 19.9355C69.1875 19.8053 69.3828 19.724 69.6758 19.6914C69.8223 19.6589 69.9688 19.667 70.1152 19.7158C70.2943 19.7646 70.457 19.7565 70.6035 19.6914C71.0267 19.4961 71.3197 19.3984 71.4824 19.3984C71.6452 19.3984 71.7591 19.3496 71.8242 19.252C72.166 19.2682 72.4264 19.3822 72.6055 19.5938C72.7845 19.7891 72.9798 19.9844 73.1914 20.1797C72.9961 21.1237 72.7764 21.848 72.5322 22.3525C72.2881 22.8571 72.0195 23.3861 71.7266 23.9395C71.5638 24.1999 71.401 24.4928 71.2383 24.8184C71.0755 25.1439 70.929 25.4368 70.7988 25.6973C70.6361 26.0553 70.4652 26.3727 70.2861 26.6494C70.0745 26.9749 69.9199 27.2923 69.8223 27.6016L69.6025 28.0654C69.5049 28.2607 69.4316 28.4154 69.3828 28.5293C69.3503 28.6432 69.3096 28.7572 69.2607 28.8711C69.2282 28.9688 69.1794 29.0583 69.1143 29.1396C69.0492 29.221 68.9922 29.3105 68.9434 29.4082C68.8945 29.4896 68.8457 29.571 68.7969 29.6523C68.6992 29.8477 68.6016 30.043 68.5039 30.2383C68.4062 30.4336 68.3249 30.6452 68.2598 30.873C68.097 31.2311 67.9993 31.4671 67.9668 31.5811C67.9505 31.6136 67.9342 31.6543 67.918 31.7031C67.9017 31.7357 67.8854 31.7682 67.8691 31.8008C67.804 32.1589 67.7064 32.4518 67.5762 32.6797C67.446 32.9076 67.4948 33.0703 67.7227 33.168ZM77.6836 25.209C77.8952 25.0951 78.1556 24.8509 78.4648 24.4766C78.7741 24.0859 79.0752 23.7116 79.3682 23.3535C79.6611 22.9792 79.8809 22.7676 80.0273 22.7188C80.125 22.556 80.2145 22.4176 80.2959 22.3037C80.3773 22.1898 80.4993 22.084 80.6621 21.9863C80.9225 21.5143 81.2643 21.1156 81.6875 20.79C82.127 20.4482 82.5339 20.082 82.9082 19.6914C83.2174 19.5612 83.5267 19.4147 83.8359 19.252C84.1615 19.0892 84.4788 18.902 84.7881 18.6904C85.4229 18.2673 86.1309 18.0475 86.9121 18.0312C87.2702 18.194 87.6201 18.2428 87.9619 18.1777C88.2874 18.1126 88.6048 18.194 88.9141 18.4219C89.0931 18.7311 89.2396 18.9183 89.3535 18.9834C89.4674 19.0485 89.5651 19.138 89.6465 19.252C89.7767 19.6589 89.8743 19.9274 89.9395 20.0576C90.0208 20.1878 90.0697 20.3262 90.0859 20.4727C90.1022 20.7168 90.1185 20.9284 90.1348 21.1074C90.151 21.2702 90.1673 21.4085 90.1836 21.5225C90.1999 21.734 90.1999 21.9375 90.1836 22.1328C90.0859 22.9629 89.9232 23.793 89.6953 24.623C89.6628 24.7207 89.6302 24.8184 89.5977 24.916C89.5651 25.0137 89.5326 25.1195 89.5 25.2334C89.4349 25.445 89.3535 25.6322 89.2559 25.7949C89.0117 26.1042 88.8408 26.3564 88.7432 26.5518C88.5967 26.8122 88.4909 26.9831 88.4258 27.0645C88.2305 27.2598 88.0433 27.4388 87.8643 27.6016C87.7015 27.7643 87.5469 27.9108 87.4004 28.041C87.2539 28.1224 87.1074 28.2119 86.9609 28.3096C86.8145 28.391 86.668 28.4805 86.5215 28.5781C86.2448 28.7572 85.9193 28.8874 85.5449 28.9688L85.1055 29.2373C84.959 29.335 84.7962 29.3919 84.6172 29.4082C84.3242 29.6198 83.9987 29.7907 83.6406 29.9209C83.4779 29.986 83.307 30.0511 83.1279 30.1162C82.9652 30.1813 82.7943 30.2546 82.6152 30.3359C82.3711 30.4336 82.1595 30.5475 81.9805 30.6777C81.8014 30.8079 81.5736 30.9382 81.2969 31.0684C81.1504 31.1172 80.9144 31.1742 80.5889 31.2393C80.2796 31.2881 80.0599 31.3451 79.9297 31.4102C80.0924 31.7357 80.1576 32.1426 80.125 32.6309C80.1087 33.0866 80.1901 33.4935 80.3691 33.8516C80.7923 33.9492 81.2562 34.0225 81.7607 34.0713C82.2653 34.1201 82.7454 34.112 83.2012 34.0469C83.2826 34.0306 83.3639 34.0062 83.4453 33.9736C83.543 33.9411 83.6406 33.9085 83.7383 33.876C83.8359 33.8434 83.9336 33.8109 84.0312 33.7783C84.1289 33.7458 84.2266 33.7214 84.3242 33.7051C84.6823 33.64 85.0322 33.5586 85.374 33.4609C85.7158 33.3633 86.0169 33.2331 86.2773 33.0703C87.2214 32.7448 88.1328 32.3053 89.0117 31.752C89.8906 31.1986 90.6556 30.5964 91.3066 29.9453C91.6973 29.6849 92.1286 29.3268 92.6006 28.8711C93.0726 28.4154 93.4388 27.9922 93.6992 27.6016C94.1875 27.0807 94.6188 26.6738 94.9932 26.3809C95.3675 26.0879 95.7174 25.9577 96.043 25.9902C96.3034 25.9902 96.5557 26.1449 96.7998 26.4541C97.0439 26.7633 97.0195 27.097 96.7266 27.4551C96.4173 27.6504 96.0755 27.9434 95.7012 28.334C95.3431 28.7246 94.9688 29.0013 94.5781 29.1641C94.3014 29.3431 93.9352 29.7012 93.4795 30.2383C93.04 30.7428 92.6738 31.1335 92.3809 31.4102C92.3158 31.4753 92.2425 31.5485 92.1611 31.6299C92.0798 31.7113 91.9821 31.7926 91.8682 31.874C91.6566 32.0368 91.4857 32.2077 91.3555 32.3867C90.8509 32.8099 90.3626 33.168 89.8906 33.4609C89.7116 33.3958 89.5651 33.4284 89.4512 33.5586C89.3047 33.7376 89.1745 33.8678 89.0605 33.9492C89.0117 33.9818 88.9629 34.0143 88.9141 34.0469C88.8652 34.0794 88.8083 34.112 88.7432 34.1445C88.6781 34.1771 88.6211 34.2096 88.5723 34.2422C88.5234 34.2747 88.4746 34.3073 88.4258 34.3398C88.1654 34.5677 87.8805 34.7956 87.5713 35.0234C87.262 35.2513 86.9447 35.4466 86.6191 35.6094C86.2936 35.8047 85.9681 35.9837 85.6426 36.1465C85.3171 36.3255 84.9915 36.4801 84.666 36.6104C84.3405 36.7406 84.015 36.8952 83.6895 37.0742C83.3802 37.2533 83.071 37.4486 82.7617 37.6602L82.2246 37.7334C82.1432 37.7497 82.0618 37.7578 81.9805 37.7578C81.8991 37.7741 81.8177 37.7904 81.7363 37.8066C81.5573 37.8717 81.3864 37.9043 81.2236 37.9043C81.0609 37.9043 80.8574 37.8717 80.6133 37.8066C79.5391 37.5137 78.6602 36.9928 77.9766 36.2441C77.8789 36.1465 77.7731 36.057 77.6592 35.9756C77.5615 35.8779 77.4557 35.7884 77.3418 35.707C77.0814 35.5117 76.9023 35.3327 76.8047 35.1699C76.6582 34.9258 76.5117 34.5433 76.3652 34.0225C76.2025 33.5016 76.0641 32.9727 75.9502 32.4355C75.8363 31.8822 75.7793 31.459 75.7793 31.166C75.877 30.9707 75.9827 30.637 76.0967 30.165C76.2106 29.6768 76.3083 29.1966 76.3896 28.7246C76.471 28.2363 76.5117 27.8945 76.5117 27.6992C76.5768 27.6341 76.707 27.4225 76.9023 27.0645C77.0814 26.6901 77.2523 26.3158 77.415 25.9414C77.5941 25.5508 77.6836 25.3066 77.6836 25.209ZM85.5449 22.084C85.3171 22.377 85.0892 22.6536 84.8613 22.9141C84.6335 23.1745 84.373 23.4186 84.0801 23.6465C83.8848 24.0046 83.6569 24.3301 83.3965 24.623C83.1361 24.916 82.8757 25.1927 82.6152 25.4531C82.485 25.7135 82.3385 25.917 82.1758 26.0635C82.013 26.21 81.834 26.3646 81.6387 26.5273C81.4271 26.8854 81.1667 27.2272 80.8574 27.5527C80.5482 27.8783 80.4831 28.2526 80.6621 28.6758C81.0202 28.7409 81.3783 28.6921 81.7363 28.5293C82.0944 28.3665 82.4036 28.2201 82.6641 28.0898C82.7943 28.0085 82.9245 27.9352 83.0547 27.8701C83.2012 27.805 83.3395 27.7399 83.4697 27.6748C83.5999 27.6097 83.7301 27.5446 83.8604 27.4795C83.9906 27.4144 84.1126 27.3411 84.2266 27.2598L85.4961 25.9902C85.6914 25.8112 85.8867 25.5996 86.082 25.3555C86.1634 25.2415 86.2448 25.1276 86.3262 25.0137C86.4238 24.8835 86.5215 24.7533 86.6191 24.623C86.7005 24.265 86.8307 23.9313 87.0098 23.6221C87.2051 23.2965 87.2865 22.9629 87.2539 22.6211C87.2376 22.4746 87.1807 22.3037 87.083 22.1084C86.9854 21.9131 86.9284 21.7585 86.9121 21.6445C86.5703 21.6445 86.318 21.7015 86.1553 21.8154C86.0739 21.8805 85.9762 21.9375 85.8623 21.9863C85.7646 22.0189 85.6589 22.0514 85.5449 22.084ZM96.7754 32.5332C97.1986 32.3542 97.5892 32.1263 97.9473 31.8496C98.2077 31.4915 98.4844 31.1497 98.7773 30.8242C99.0703 30.4987 99.3796 30.1732 99.7051 29.8477C99.8027 29.75 99.9004 29.6523 99.998 29.5547C100.096 29.457 100.185 29.3594 100.267 29.2617C100.348 29.1641 100.438 29.0664 100.535 28.9688C100.649 28.8548 100.763 28.7409 100.877 28.627C100.958 28.5456 101.023 28.4886 101.072 28.4561C101.121 28.4235 101.186 28.3503 101.268 28.2363C101.447 28.0085 101.593 27.7887 101.707 27.5771C101.821 27.3818 101.984 27.1621 102.195 26.918C102.407 26.804 102.618 26.625 102.83 26.3809C102.928 26.2669 103.025 26.1611 103.123 26.0635C103.221 25.9495 103.318 25.8438 103.416 25.7461L103.636 25.5508C103.668 25.5182 103.701 25.4857 103.733 25.4531C103.782 25.4206 103.823 25.388 103.855 25.3555C103.953 25.2578 104.026 25.1439 104.075 25.0137C104.108 24.9486 104.132 24.8835 104.148 24.8184C104.181 24.7533 104.214 24.6882 104.246 24.623C104.539 24.1348 104.799 23.7279 105.027 23.4023C105.743 23.0117 106.476 22.6699 107.225 22.377C107.973 22.084 108.689 21.9538 109.373 21.9863C109.406 22.0189 109.503 22.084 109.666 22.1816C109.796 22.263 109.894 22.377 109.959 22.5234C110.122 22.7839 110.154 23.0931 110.057 23.4512C109.959 23.8092 109.796 24.0697 109.568 24.2324C109.308 24.9811 109.129 25.8275 109.031 26.7715C108.934 27.7155 108.901 28.6107 108.934 29.457C108.852 29.5547 108.828 29.693 108.86 29.8721C108.877 30.0348 108.836 30.1569 108.738 30.2383C108.868 30.4987 109.031 30.7591 109.227 31.0195C109.422 31.2799 109.699 31.4102 110.057 31.4102C110.447 31.3125 110.691 31.2637 110.789 31.2637C110.854 31.2637 110.936 31.2474 111.033 31.2148C111.196 31.1172 111.302 31.0439 111.351 30.9951C111.448 30.8975 111.538 30.8405 111.619 30.8242C111.717 30.6615 111.782 30.5638 111.814 30.5312C111.847 30.4987 111.912 30.4173 112.01 30.2871C112.368 29.8477 112.685 29.4245 112.962 29.0176L113.865 27.6992C113.963 27.5365 114.052 27.39 114.134 27.2598C114.231 27.1133 114.313 26.9831 114.378 26.8691C114.459 26.7552 114.533 26.6169 114.598 26.4541C114.679 26.2913 114.76 26.1042 114.842 25.8926L115.062 25.3799C115.11 25.266 115.184 25.0788 115.281 24.8184C115.363 24.623 115.363 24.3545 115.281 24.0127C115.216 23.6709 115.216 23.4186 115.281 23.2559C115.444 23.0443 115.525 22.849 115.525 22.6699C115.753 22.2956 115.867 22.084 115.867 22.0352C115.867 22.0026 115.883 21.9375 115.916 21.8398C115.981 21.7747 116.046 21.7015 116.111 21.6201C116.176 21.5387 116.209 21.4329 116.209 21.3027C116.746 20.7656 117.413 20.3424 118.211 20.0332C118.764 19.9355 119.277 19.7972 119.749 19.6182C120.188 19.4554 120.538 19.5124 120.799 19.7891C120.717 19.8867 120.734 19.9762 120.848 20.0576C120.945 20.1227 120.994 20.2122 120.994 20.3262C121.027 20.5052 121.019 20.6354 120.97 20.7168C120.921 20.8145 120.896 20.9121 120.896 21.0098C120.701 21.3678 120.587 21.5469 120.555 21.5469C120.522 21.5469 120.49 21.5632 120.457 21.5957C120.408 21.6771 120.351 21.8317 120.286 22.0596C120.27 22.141 120.245 22.2305 120.213 22.3281C120.18 22.4258 120.148 22.5234 120.115 22.6211C120.018 22.8815 119.904 23.1663 119.773 23.4756C119.643 23.7848 119.48 24.0859 119.285 24.3789C119.122 24.7695 119.098 25.0218 119.212 25.1357C119.326 25.2497 119.383 25.388 119.383 25.5508C119.48 25.6322 119.586 25.681 119.7 25.6973C119.814 25.7135 119.92 25.7624 120.018 25.8438C120.148 25.9414 120.237 26.0228 120.286 26.0879C120.351 26.1693 120.473 26.2507 120.652 26.332C120.799 26.3646 120.937 26.3727 121.067 26.3564C121.181 26.3402 121.368 26.3483 121.629 26.3809C121.889 26.4134 122.06 26.4134 122.142 26.3809C122.223 26.3483 122.345 26.2669 122.508 26.1367C122.882 25.9414 123.102 25.7949 123.167 25.6973C123.216 25.6322 123.289 25.5508 123.387 25.4531C123.533 25.388 123.688 25.3555 123.851 25.3555C124.013 25.3555 124.152 25.3229 124.266 25.2578C124.624 25.1276 125.022 24.9648 125.462 24.7695C125.901 24.5742 126.3 24.3789 126.658 24.1836C126.821 24.1185 126.976 24.0534 127.122 23.9883C127.269 23.9232 127.374 23.8092 127.439 23.6465C127.57 23.6139 127.659 23.5895 127.708 23.5732C127.741 23.557 127.846 23.5488 128.025 23.5488C128.107 23.7441 128.188 23.8906 128.27 23.9883C128.367 24.1185 128.318 24.2812 128.123 24.4766C127.749 24.8509 127.317 25.1764 126.829 25.4531C126.357 25.7298 125.926 26.0716 125.535 26.4785C125.34 26.5599 125.153 26.6494 124.974 26.7471C124.795 26.8285 124.624 26.9261 124.461 27.04C124.152 27.2516 123.761 27.4225 123.289 27.5527C123.045 27.6992 122.833 27.8294 122.654 27.9434C122.475 28.041 122.329 28.1305 122.215 28.2119C121.987 28.3747 121.792 28.4642 121.629 28.4805C121.336 28.4805 121.051 28.4886 120.774 28.5049C120.514 28.5049 120.262 28.513 120.018 28.5293C119.839 28.5618 119.7 28.5456 119.603 28.4805C119.537 28.4479 119.383 28.3828 119.139 28.2852C118.699 28.1712 118.374 28.0085 118.162 27.7969C118.064 27.6992 117.967 27.6097 117.869 27.5283C117.771 27.4307 117.674 27.3411 117.576 27.2598C117.462 27.4388 117.348 27.626 117.234 27.8213C117.137 28.0166 117.047 28.2201 116.966 28.4316C116.787 28.8548 116.567 29.2129 116.307 29.5059C116.193 29.8639 116.062 30.1406 115.916 30.3359C115.753 30.5475 115.607 30.8405 115.477 31.2148C115.314 31.3939 115.159 31.5811 115.013 31.7764C114.882 31.9717 114.76 32.1833 114.646 32.4111C114.419 32.8669 114.126 33.2493 113.768 33.5586C113.035 34.4863 112.075 35.2839 110.887 35.9512C110.675 35.8861 110.447 35.9186 110.203 36.0488C109.975 36.179 109.78 36.1953 109.617 36.0977C108.934 36.2604 108.486 36.2116 108.274 35.9512C108.063 35.6908 107.843 35.5117 107.615 35.4141C107.322 34.9421 107.151 34.5352 107.103 34.1934C107.054 33.8516 106.98 33.4935 106.883 33.1191C106.818 32.9238 106.744 32.7529 106.663 32.6064C106.598 32.46 106.574 32.3053 106.59 32.1426C106.476 31.6543 106.37 31.3044 106.272 31.0928C106.207 30.9626 106.15 30.8161 106.102 30.6533C106.069 30.4906 106.036 30.3197 106.004 30.1406C105.988 29.9941 105.971 29.8477 105.955 29.7012C105.955 29.5547 105.963 29.4082 105.979 29.2617C105.996 28.985 105.955 28.6758 105.857 28.334C105.271 28.4316 104.905 28.6351 104.759 28.9443C104.612 29.2536 104.409 29.4896 104.148 29.6523C104.035 29.9941 103.855 30.2627 103.611 30.458C103.4 30.6208 103.204 30.8893 103.025 31.2637C102.667 31.459 102.35 31.7194 102.073 32.0449C101.78 32.3867 101.463 32.696 101.121 32.9727C100.828 33.1517 100.608 33.3145 100.462 33.4609C100.332 33.5911 100.193 33.6888 100.047 33.7539C99.9492 33.9167 99.819 34.0713 99.6562 34.2178C99.5423 34.3154 99.3796 34.4701 99.168 34.6816C98.9564 34.8932 98.8099 35.0479 98.7285 35.1455C98.582 35.3083 98.4355 35.4466 98.2891 35.5605C98.1589 35.7233 98.0368 35.8454 97.9229 35.9268C97.8089 36.0081 97.7031 36.0814 97.6055 36.1465C97.4753 36.2441 97.3776 36.3337 97.3125 36.415C97.2148 36.5452 97.1335 36.6185 97.0684 36.6348C96.8405 36.7812 96.637 36.9033 96.458 37.001C96.279 37.1149 96.1243 37.2126 95.9941 37.2939C95.7337 37.4404 95.5059 37.4648 95.3105 37.3672C95.0501 37.4323 94.806 37.3916 94.5781 37.2451C94.3503 37.0986 94.1387 36.9603 93.9434 36.8301C93.862 36.7161 93.7806 36.6022 93.6992 36.4883C93.6178 36.3906 93.5365 36.293 93.4551 36.1953C93.3086 36.0163 93.1947 35.7884 93.1133 35.5117C92.918 35.2513 92.7389 34.9502 92.5762 34.6084C92.4134 34.2666 92.2669 33.9167 92.1367 33.5586C92.1204 32.8913 92.0716 32.403 91.9902 32.0938C91.9251 31.8171 91.9089 31.4915 91.9414 31.1172C91.9577 30.7428 92.0798 30.3929 92.3076 30.0674C92.5355 29.7419 92.7064 29.4245 92.8203 29.1152C92.804 28.8385 92.8529 28.6432 92.9668 28.5293C93.097 28.3991 93.1458 28.2363 93.1133 28.041C93.39 27.2923 93.6992 26.6982 94.041 26.2588C94.3665 25.8356 94.6107 25.3555 94.7734 24.8184C94.9362 24.265 95.1396 23.7848 95.3838 23.3779C95.6117 22.9873 95.8151 22.5234 95.9941 21.9863C96.1406 21.7096 96.2464 21.4655 96.3115 21.2539C96.3766 21.0098 96.4987 20.7493 96.6777 20.4727C96.8079 20.3424 96.8975 20.2448 96.9463 20.1797C96.9951 20.1146 97.0846 20.0332 97.2148 19.9355C97.4915 19.8542 97.7194 19.7402 97.8984 19.5938C98.0775 19.4473 98.3053 19.3333 98.582 19.252C98.7773 19.1868 98.9645 19.1543 99.1436 19.1543C99.29 19.1543 99.4447 19.1055 99.6074 19.0078C100.014 18.7474 100.299 18.6009 100.462 18.5684C100.592 18.5521 100.747 18.5033 100.926 18.4219C101.154 18.6172 101.333 18.8206 101.463 19.0322C101.593 19.2438 101.626 19.5124 101.561 19.8379C101.349 20.0495 101.235 20.2041 101.219 20.3018C101.202 20.4157 101.154 20.5215 101.072 20.6191C100.991 20.7493 100.893 20.8633 100.779 20.9609C100.665 21.0586 100.568 21.1725 100.486 21.3027C100.454 21.3678 100.421 21.4329 100.389 21.498C100.372 21.5469 100.348 21.5957 100.315 21.6445C100.25 21.7747 100.193 21.8724 100.145 21.9375L99.9248 22.1328C99.8271 22.2305 99.7539 22.3118 99.7051 22.377C99.6237 22.4583 99.5749 22.5397 99.5586 22.6211C99.5423 22.7188 99.4935 22.8164 99.4121 22.9141C99.3145 23.0605 99.1598 23.207 98.9482 23.3535C98.8018 23.4674 98.6797 23.5977 98.582 23.7441C98.5332 23.8906 98.4762 24.1266 98.4111 24.4521C98.3949 24.5824 98.3704 24.7207 98.3379 24.8672C98.3053 24.9974 98.2728 25.1276 98.2402 25.2578C98.1263 25.6159 97.9473 26.0309 97.7031 26.5029C97.4264 27.04 97.2311 27.4714 97.1172 27.7969C97.0846 27.9434 97.0521 28.0898 97.0195 28.2363C97.0033 28.3828 96.9788 28.5212 96.9463 28.6514C96.93 28.7816 96.9056 28.9199 96.873 29.0664C96.8405 29.1966 96.8079 29.3268 96.7754 29.457C96.7428 29.5872 96.694 29.7012 96.6289 29.7988C96.5638 29.8965 96.515 29.9941 96.4824 30.0918C96.3197 30.5475 96.2301 31.0358 96.2139 31.5566C96.1976 32.0775 96.3848 32.403 96.7754 32.5332ZM127.146 29.7988C127.309 29.7826 127.439 29.7093 127.537 29.5791C127.602 29.4977 127.716 29.3919 127.879 29.2617C127.928 29.2292 127.977 29.1966 128.025 29.1641C128.074 29.1315 128.131 29.099 128.196 29.0664C128.261 29.0339 128.318 29.0013 128.367 28.9688C128.416 28.9362 128.465 28.9036 128.514 28.8711C128.937 28.5618 129.303 28.2363 129.612 27.8945C129.922 27.569 130.271 27.2598 130.662 26.9668C130.874 26.7227 131.085 26.4948 131.297 26.2832C131.525 26.0553 131.744 25.8356 131.956 25.624C132.363 25.2334 132.762 24.7695 133.152 24.2324C133.673 23.8418 134.161 23.4186 134.617 22.9629C134.926 22.7676 135.179 22.5804 135.374 22.4014C135.569 22.2223 135.838 22.0352 136.18 21.8398C136.342 21.6445 136.521 21.4329 136.717 21.2051C136.912 20.9772 137.14 20.7819 137.4 20.6191C137.677 20.3424 137.962 20.1471 138.255 20.0332C138.548 19.9193 138.833 19.724 139.109 19.4473C139.598 19.1868 140.037 19.1462 140.428 19.3252C140.818 19.5042 141.128 19.724 141.355 19.9844C141.469 20.2773 141.665 20.5866 141.941 20.9121C141.974 20.9609 142.007 21.0098 142.039 21.0586C142.072 21.1074 142.104 21.1481 142.137 21.1807C142.202 21.2458 142.234 21.3678 142.234 21.5469C142.234 21.9212 142.186 22.2956 142.088 22.6699C142.039 22.849 141.99 23.028 141.941 23.207C141.909 23.3861 141.876 23.5651 141.844 23.7441C141.811 23.972 141.787 24.1999 141.771 24.4277C141.754 24.6393 141.738 24.859 141.722 25.0869C141.705 25.5101 141.632 25.9577 141.502 26.4297C141.681 26.6901 141.836 26.9668 141.966 27.2598C142.096 27.569 142.251 27.8132 142.43 27.9922C142.544 27.9759 142.69 27.8457 142.869 27.6016C142.951 27.5365 143.032 27.4795 143.113 27.4307C143.211 27.3656 143.317 27.3005 143.431 27.2354C143.659 27.1051 143.846 26.9668 143.992 26.8203C144.122 26.6901 144.244 26.568 144.358 26.4541C144.472 26.3402 144.586 26.2344 144.7 26.1367C144.944 25.9251 145.164 25.6973 145.359 25.4531C145.473 25.3392 145.587 25.2334 145.701 25.1357C145.815 25.0218 145.929 24.916 146.043 24.8184C146.157 24.7207 146.271 24.623 146.385 24.5254C146.515 24.4115 146.645 24.2975 146.775 24.1836C146.906 24.0534 147.028 23.9232 147.142 23.793C147.256 23.6465 147.369 23.5081 147.483 23.3779C147.597 23.2477 147.711 23.1175 147.825 22.9873C147.939 22.8408 148.061 22.7025 148.191 22.5723C148.305 22.4258 148.411 22.3363 148.509 22.3037C148.623 22.2549 148.712 22.1491 148.777 21.9863C149.021 21.8724 149.241 21.6934 149.437 21.4492C149.616 21.2214 149.868 21.0586 150.193 20.9609C150.519 20.9284 150.73 20.9284 150.828 20.9609C150.926 20.9935 151.072 21.1074 151.268 21.3027C151.43 21.4167 151.552 21.5794 151.634 21.791C151.715 22.0026 151.837 22.1654 152 22.2793C152.293 22.8652 152.521 23.2233 152.684 23.3535C152.798 23.6139 152.822 23.8743 152.757 24.1348L152.537 24.916C152.521 25.1113 152.505 25.2741 152.488 25.4043C152.472 25.5182 152.456 25.6077 152.439 25.6729C152.423 25.738 152.407 25.8031 152.391 25.8682C152.374 25.9333 152.358 26.0065 152.342 26.0879C152.146 27.2272 151.854 28.334 151.463 29.4082C151.479 29.6361 151.544 29.8721 151.658 30.1162C151.756 30.3115 151.788 30.5964 151.756 30.9707C151.951 31.0033 152.138 31.0033 152.317 30.9707C152.496 30.9382 152.651 30.9056 152.781 30.873C153.465 30.5964 154.116 30.2383 154.734 29.7988C155.158 29.4733 155.597 29.1559 156.053 28.8467C156.525 28.5212 156.964 28.2038 157.371 27.8945C157.518 27.7806 157.648 27.6585 157.762 27.5283C157.876 27.3981 158.006 27.276 158.152 27.1621C158.478 26.9017 158.795 26.6901 159.104 26.5273C159.414 26.3646 159.731 26.2018 160.057 26.0391C160.219 25.9414 160.35 25.8438 160.447 25.7461C160.545 25.6484 160.659 25.5345 160.789 25.4043C160.952 25.2415 161.18 25.0706 161.473 24.8916C161.766 24.7126 162.042 24.5579 162.303 24.4277C162.758 24.4115 162.994 24.4847 163.011 24.6475L163.084 25.1113C162.661 25.4043 162.262 25.7054 161.888 26.0146C161.513 26.3239 161.131 26.6413 160.74 26.9668C160.643 27.0319 160.553 27.0889 160.472 27.1377C160.39 27.1865 160.268 27.2435 160.105 27.3086C159.975 27.4062 159.886 27.4958 159.837 27.5771C159.788 27.6585 159.682 27.748 159.52 27.8457C159.422 27.9271 159.324 28.0085 159.227 28.0898C159.129 28.1549 159.031 28.2282 158.934 28.3096C158.738 28.4561 158.559 28.6107 158.396 28.7734C158.169 28.9362 157.957 29.099 157.762 29.2617C157.566 29.4245 157.387 29.5872 157.225 29.75C157.046 29.929 156.899 30.1081 156.785 30.2871C156.688 30.4499 156.525 30.6289 156.297 30.8242C156.134 30.8893 155.996 30.9707 155.882 31.0684L155.516 31.3613C155.451 31.5566 155.402 31.7275 155.369 31.874C155.353 32.0042 155.255 32.1589 155.076 32.3379C154.816 32.5658 154.661 32.7204 154.612 32.8018C154.563 32.8831 154.49 32.9727 154.393 33.0703C154.327 33.1191 154.214 33.1761 154.051 33.2412C153.986 33.2575 153.921 33.2819 153.855 33.3145C153.79 33.347 153.725 33.3796 153.66 33.4121C153.514 33.4935 153.367 33.6074 153.221 33.7539C153.156 33.819 153.082 33.8841 153.001 33.9492C152.936 34.0143 152.863 34.0794 152.781 34.1445C152.651 34.2259 152.529 34.2992 152.415 34.3643C152.301 34.4294 152.203 34.4945 152.122 34.5596C151.992 34.6572 151.756 34.7467 151.414 34.8281C151.072 35.056 150.828 35.1618 150.682 35.1455C150.584 35.1292 150.421 35.1374 150.193 35.1699C150.112 35.2025 150.039 35.1699 149.974 35.0723C149.909 34.9746 149.819 34.9258 149.705 34.9258C149.493 34.7305 149.331 34.6491 149.217 34.6816C149.087 34.7142 148.973 34.6979 148.875 34.6328C148.549 34.2585 148.387 33.9818 148.387 33.8027C148.387 33.7051 148.379 33.6074 148.362 33.5098C148.362 33.3958 148.354 33.2819 148.338 33.168C148.273 32.6797 148.208 32.1833 148.143 31.6787C148.077 31.1742 148.029 30.6452 147.996 30.0918C147.996 29.8639 148.021 29.6523 148.069 29.457C148.134 29.2129 148.175 29.0013 148.191 28.8223C148.191 28.7409 148.175 28.6188 148.143 28.4561C148.11 28.2933 148.094 28.1875 148.094 28.1387C148.126 27.862 148.175 27.6178 148.24 27.4062C148.305 27.2109 148.322 26.9831 148.289 26.7227C148.077 26.9668 147.89 27.1784 147.728 27.3574C147.565 27.5202 147.426 27.6585 147.312 27.7725C147.199 27.8864 147.085 28.0003 146.971 28.1143C146.873 28.2282 146.775 28.3503 146.678 28.4805C146.173 28.7734 145.75 29.0583 145.408 29.335C145.05 29.6279 144.611 29.8639 144.09 30.043C143.862 30.2708 143.634 30.4906 143.406 30.7021C143.195 30.8975 142.983 31.0846 142.771 31.2637C142.56 31.4427 142.34 31.638 142.112 31.8496C141.901 32.0449 141.681 32.2565 141.453 32.4844C140.916 33.1842 140.33 33.7051 139.695 34.0469C139.467 34.112 139.288 34.1527 139.158 34.1689C139.028 34.1852 138.898 34.1445 138.768 34.0469C138.084 33.6562 137.677 33.1517 137.547 32.5332C137.417 31.9147 137.433 31.2311 137.596 30.4824C137.449 30.1732 137.465 29.7337 137.645 29.1641C137.84 28.5781 137.872 28.1549 137.742 27.8945C137.791 27.6504 137.848 27.4062 137.913 27.1621C137.978 26.9017 138.051 26.6413 138.133 26.3809C138.214 26.1204 138.279 25.8682 138.328 25.624C138.393 25.3636 138.442 25.1113 138.475 24.8672C138.637 24.6393 138.662 24.4603 138.548 24.3301C138.434 24.1999 138.328 24.0859 138.23 23.9883C137.677 24.3138 137.148 24.6963 136.644 25.1357C136.139 25.5752 135.626 26.0228 135.105 26.4785C134.975 26.5924 134.845 26.7064 134.715 26.8203C134.601 26.918 134.479 27.0238 134.349 27.1377C134.235 27.2516 134.113 27.3656 133.982 27.4795C133.852 27.5771 133.722 27.6829 133.592 27.7969L132.811 28.4561C132.534 28.6839 132.306 28.9199 132.127 29.1641C131.915 29.457 131.744 29.6523 131.614 29.75L131.297 29.9941C131.15 30.0755 131.02 30.1732 130.906 30.2871C130.841 30.3522 130.743 30.4336 130.613 30.5312C130.516 30.6126 130.385 30.6859 130.223 30.751L129.783 30.9219C129.588 31.0521 129.384 31.223 129.173 31.4346C128.961 31.6462 128.774 31.8333 128.611 31.9961C128.481 32.1263 128.335 32.2565 128.172 32.3867C127.993 32.5332 127.863 32.6634 127.781 32.7773C127.586 33.054 127.35 33.347 127.073 33.6562C126.959 33.7865 126.837 33.9248 126.707 34.0713C126.593 34.2015 126.479 34.3398 126.365 34.4863C126.349 34.6328 126.259 34.7874 126.097 34.9502L125.633 35.4141C125.568 35.4792 125.503 35.5524 125.438 35.6338C125.372 35.6989 125.299 35.7721 125.218 35.8535C125.088 36 124.933 36.1139 124.754 36.1953L124.412 36.2686C124.233 36.3011 124.103 36.3418 124.021 36.3906C123.924 36.4232 123.826 36.4557 123.729 36.4883C123.615 36.5371 123.501 36.5859 123.387 36.6348C123.175 36.7324 122.931 36.765 122.654 36.7324L122.068 36.6592C121.922 36.6429 121.759 36.5697 121.58 36.4395C121.58 36.179 121.499 36 121.336 35.9023C121.417 35.4629 121.523 35.0723 121.653 34.7305C121.784 34.3724 121.889 33.998 121.971 33.6074C122.215 33.2656 122.402 32.8994 122.532 32.5088C122.662 32.1182 122.833 31.7194 123.045 31.3125C123.191 30.9056 123.362 30.4824 123.558 30.043L124.07 28.8711C124.135 28.6758 124.192 28.4886 124.241 28.3096C124.306 28.1305 124.363 27.9596 124.412 27.7969C124.51 27.4551 124.64 27.1621 124.803 26.918C125.014 26.5762 125.128 26.332 125.145 26.1855C125.503 25.7624 125.682 25.3229 125.682 24.8672C125.861 24.6719 125.991 24.3952 126.072 24.0371C126.154 23.6953 126.251 23.3861 126.365 23.1094C126.43 22.9792 126.487 22.8652 126.536 22.7676C126.585 22.6699 126.626 22.5397 126.658 22.377C126.691 22.1654 126.699 22.0107 126.683 21.9131C126.666 21.7829 126.707 21.6283 126.805 21.4492C126.87 21.3678 126.935 21.2946 127 21.2295C127.065 21.1644 127.13 21.0993 127.195 21.0342C127.26 20.9691 127.326 20.904 127.391 20.8389C127.456 20.7738 127.521 20.7005 127.586 20.6191C127.732 20.6029 127.846 20.5215 127.928 20.375C128.009 20.2448 128.107 20.1471 128.221 20.082C128.579 19.9681 128.782 19.8867 128.831 19.8379C128.896 19.7728 128.937 19.7402 128.953 19.7402L129.686 19.374C129.734 19.3415 129.783 19.3171 129.832 19.3008C129.897 19.2682 129.962 19.2357 130.027 19.2031C130.092 19.1706 130.149 19.1462 130.198 19.1299C130.247 19.1136 130.288 19.0973 130.32 19.0811C130.353 19.0648 130.394 19.0485 130.442 19.0322C130.491 19.016 130.548 18.9915 130.613 18.959C130.695 18.8776 130.825 18.7799 131.004 18.666C131.183 18.5521 131.313 18.4544 131.395 18.373C131.72 18.5033 131.997 18.7067 132.225 18.9834C132.452 19.2601 132.518 19.6263 132.42 20.082C132.387 20.2448 132.339 20.3994 132.273 20.5459C132.208 20.6924 132.143 20.8307 132.078 20.9609C132.029 21.0749 131.989 21.2295 131.956 21.4248C131.924 21.6201 131.883 21.7585 131.834 21.8398C131.606 22.2467 131.46 22.5479 131.395 22.7432C131.313 22.9873 131.232 23.1908 131.15 23.3535C131.02 23.5651 130.906 23.7767 130.809 23.9883C130.711 24.2487 130.621 24.4603 130.54 24.623C130.459 24.7858 130.337 24.9486 130.174 25.1113C130.044 25.2741 129.946 25.388 129.881 25.4531C129.767 25.5671 129.669 25.6973 129.588 25.8438C129.474 25.9902 129.36 26.1449 129.246 26.3076C129.132 26.4704 129.018 26.6413 128.904 26.8203C128.693 27.1621 128.449 27.4876 128.172 27.7969L127.659 28.7734C127.496 29.0827 127.326 29.4245 127.146 29.7988ZM182.322 21.8887C182.485 21.9049 182.591 21.9701 182.64 22.084C182.688 22.1816 182.778 22.2305 182.908 22.2305C182.973 22.5397 182.908 22.7594 182.713 22.8896C182.518 23.0036 182.452 23.1908 182.518 23.4512C182.225 23.6465 181.867 23.7686 181.443 23.8174C181.004 23.8662 180.678 24.0371 180.467 24.3301C179.897 24.6068 179.303 24.7777 178.685 24.8428C178.375 24.8753 178.05 24.9242 177.708 24.9893C177.382 25.0381 177.049 25.0951 176.707 25.1602C176.349 25.4043 176.129 25.5345 176.048 25.5508C175.934 25.5671 175.812 25.6159 175.682 25.6973C175.34 25.5671 174.998 25.502 174.656 25.502C174.314 25.502 173.956 25.4531 173.582 25.3555C173.403 25.4206 173.216 25.4531 173.021 25.4531C172.825 25.4531 172.638 25.4857 172.459 25.5508C172.329 25.8438 172.264 26.1367 172.264 26.4297C172.264 26.7389 172.215 27.0319 172.117 27.3086L171.824 27.8945L171.751 28.3584C171.718 28.5537 171.678 28.7083 171.629 28.8223C171.564 28.9199 171.491 29.0339 171.409 29.1641C171.328 29.2943 171.287 29.4408 171.287 29.6035C171.059 29.8965 170.896 30.1976 170.799 30.5068C170.701 30.8649 170.522 31.1497 170.262 31.3613C170.164 31.7031 170.009 31.9635 169.798 32.1426C169.586 32.3379 169.383 32.5658 169.188 32.8262C168.829 33.3145 168.512 33.7376 168.235 34.0957C167.959 34.4538 167.592 34.763 167.137 35.0234C166.974 35.2839 166.779 35.4629 166.551 35.5605C166.388 35.7233 166.258 35.8861 166.16 36.0488L165.184 36.6348C164.793 36.8789 164.419 37.0417 164.061 37.123C163.507 37.2533 162.97 37.237 162.449 37.0742C161.928 36.9115 161.44 36.6836 160.984 36.3906C160.675 36.4232 160.439 36.3662 160.276 36.2197C160.114 36.0895 159.894 35.9837 159.617 35.9023C159.259 35.5768 158.868 35.2839 158.445 35.0234C158.006 34.7467 157.697 34.3887 157.518 33.9492L157.298 32.875C157.233 32.5495 157.16 32.224 157.078 31.8984C157.013 31.6217 157.005 31.3125 157.054 30.9707C157.103 30.6777 157.111 30.3522 157.078 29.9941C157.078 29.8151 157.078 29.6523 157.078 29.5059C157.078 29.3431 157.07 29.2048 157.054 29.0908C157.037 28.8467 157.111 28.5456 157.273 28.1875C157.371 27.9759 157.452 27.7806 157.518 27.6016C157.583 27.4225 157.632 27.2679 157.664 27.1377C157.697 27.0075 157.729 26.8854 157.762 26.7715C157.794 26.6413 157.827 26.5273 157.859 26.4297C157.908 26.3483 157.957 26.2669 158.006 26.1855C158.055 26.0879 158.104 25.9902 158.152 25.8926C158.201 25.7949 158.25 25.7054 158.299 25.624C158.364 25.5264 158.429 25.4368 158.494 25.3555C158.689 25.0625 158.917 24.7695 159.178 24.4766C159.438 24.1836 159.699 23.9069 159.959 23.6465C160.138 23.4023 160.317 23.1908 160.496 23.0117C160.789 22.7188 161.066 22.4746 161.326 22.2793C161.587 22.084 161.88 21.8236 162.205 21.498C162.27 21.4004 162.352 21.319 162.449 21.2539L162.742 21.0586C163.068 20.8633 163.369 20.7005 163.646 20.5703C163.922 20.4401 164.24 20.2936 164.598 20.1309C164.907 19.9844 165.159 19.8949 165.354 19.8623C165.485 19.8298 165.615 19.8053 165.745 19.7891C165.892 19.7565 166.046 19.724 166.209 19.6914H166.795C166.974 19.6914 167.137 19.6589 167.283 19.5938C167.186 19.3333 167.299 19.1543 167.625 19.0566C167.951 18.959 168.195 18.9264 168.357 18.959C168.683 18.959 168.943 19.0322 169.139 19.1787C169.334 19.3252 169.513 19.4961 169.676 19.6914C170.001 19.9193 170.359 20.2611 170.75 20.7168C170.831 20.7982 170.913 20.847 170.994 20.8633C171.076 20.8796 171.157 20.9284 171.238 21.0098C171.368 21.2051 171.458 21.3841 171.507 21.5469C171.556 21.7422 171.661 21.9212 171.824 22.084C171.922 22.1491 172.02 22.2305 172.117 22.3281C172.215 22.4258 172.28 22.556 172.312 22.7188C172.654 22.849 172.964 22.9466 173.24 23.0117C173.387 23.0768 173.558 23.0931 173.753 23.0605C173.932 23.028 174.135 23.028 174.363 23.0605C174.51 23.0768 174.656 23.1175 174.803 23.1826C174.933 23.2314 175.079 23.2559 175.242 23.2559C175.486 23.2396 175.755 23.1745 176.048 23.0605C176.325 22.9629 176.642 22.9466 177 23.0117C177.488 23.1257 178.001 23.0768 178.538 22.8652C179.075 22.6374 179.62 22.4909 180.174 22.4258C180.337 22.4258 180.451 22.4176 180.516 22.4014C180.581 22.3851 180.695 22.377 180.857 22.377C181.02 22.2467 181.232 22.1491 181.492 22.084C181.753 22.0189 182.029 21.9538 182.322 21.8887ZM168.357 23.3535C168.032 23.0605 167.845 22.8734 167.796 22.792C167.731 22.6943 167.674 22.6374 167.625 22.6211C167.479 22.4746 167.316 22.3932 167.137 22.377C167.039 22.3607 166.941 22.3444 166.844 22.3281C166.762 22.3118 166.681 22.2956 166.6 22.2793C166.079 22.1816 165.647 22.2386 165.306 22.4502C165.143 22.5641 164.972 22.6699 164.793 22.7676C164.63 22.8652 164.467 22.9629 164.305 23.0605C163.784 23.3861 163.328 23.793 162.938 24.2812C162.84 24.444 162.734 24.623 162.62 24.8184C162.506 25.0137 162.417 25.2253 162.352 25.4531C162.221 25.7135 162.107 25.9495 162.01 26.1611C161.912 26.3727 161.831 26.625 161.766 26.918C161.603 27.2272 161.505 27.4958 161.473 27.7236C161.456 27.8376 161.44 27.9434 161.424 28.041C161.408 28.1224 161.391 28.2038 161.375 28.2852C161.359 28.4479 161.334 28.6188 161.302 28.7979C161.269 28.9606 161.237 29.1315 161.204 29.3105C161.123 29.7174 161.082 30.0267 161.082 30.2383C161.115 30.3359 161.163 30.4661 161.229 30.6289C161.294 30.7917 161.359 30.9056 161.424 30.9707C161.489 31.1335 161.562 31.3125 161.644 31.5078C161.725 31.7031 161.798 31.8496 161.863 31.9473C162.042 32.1751 162.254 32.3216 162.498 32.3867C162.628 32.4193 162.767 32.46 162.913 32.5088C163.06 32.5413 163.214 32.582 163.377 32.6309C163.735 32.8262 163.979 32.9076 164.109 32.875C164.272 32.8424 164.37 32.8262 164.402 32.8262C164.842 32.7448 165.216 32.5658 165.525 32.2891C165.802 32.0286 166.128 31.8008 166.502 31.6055C166.632 31.4102 166.762 31.2067 166.893 30.9951C167.039 30.7835 167.194 30.5719 167.356 30.3604C167.519 30.1325 167.666 29.9128 167.796 29.7012C167.942 29.4733 168.081 29.2454 168.211 29.0176C168.292 28.9199 168.374 28.7734 168.455 28.5781C168.488 28.4967 168.52 28.4235 168.553 28.3584C168.585 28.277 168.618 28.2038 168.65 28.1387C168.878 27.862 168.984 27.7155 168.968 27.6992C168.951 27.6829 168.96 27.6341 168.992 27.5527C169.204 27.0645 169.301 26.6901 169.285 26.4297C169.269 26.1693 169.269 25.9089 169.285 25.6484C169.204 25.4694 169.131 25.2822 169.065 25.0869C169 24.8916 168.935 24.6882 168.87 24.4766C168.74 24.0371 168.569 23.6628 168.357 23.3535ZM192.039 22.4258L191.99 22.8164C192.023 22.9303 191.99 23.1257 191.893 23.4023C191.73 23.5977 191.632 23.8092 191.6 24.0371C191.535 24.1673 191.478 24.2812 191.429 24.3789C191.38 24.4766 191.339 24.6068 191.307 24.7695C191.242 24.9648 191.217 25.1927 191.233 25.4531C191.25 25.5833 191.25 25.7135 191.233 25.8438C191.233 25.9577 191.225 26.0716 191.209 26.1855C191.144 26.5436 191.095 26.8936 191.062 27.2354C191.03 27.5771 190.997 27.9271 190.965 28.2852C190.965 28.6432 190.932 29.0501 190.867 29.5059C190.802 29.9616 190.737 30.3685 190.672 30.7266C190.818 30.987 190.9 31.2311 190.916 31.459C190.932 31.7031 191.046 31.9147 191.258 32.0938C191.909 31.9961 192.43 31.8415 192.82 31.6299C193.211 31.4183 193.585 31.1172 193.943 30.7266C194.204 30.6126 194.407 30.4987 194.554 30.3848C194.684 30.2708 194.871 30.1406 195.115 29.9941L195.506 29.6035C195.896 29.3919 196.116 29.2617 196.165 29.2129C196.198 29.1803 196.238 29.1478 196.287 29.1152C196.352 29.0827 196.417 29.0501 196.482 29.0176C197.036 28.6595 197.459 28.2852 197.752 27.8945C197.996 27.6992 198.2 27.4958 198.362 27.2842C198.493 27.1051 198.745 26.9342 199.119 26.7715C199.331 26.5111 199.567 26.2913 199.827 26.1123C200.088 25.9333 200.324 25.7135 200.535 25.4531C200.714 25.4531 200.844 25.4857 200.926 25.5508C200.975 25.5833 201.023 25.6159 201.072 25.6484C201.137 25.681 201.202 25.7135 201.268 25.7461C201.365 26.0065 201.382 26.2751 201.316 26.5518C201.251 26.8285 201.137 27.0807 200.975 27.3086C200.812 27.5202 200.73 27.6504 200.73 27.6992C200.73 27.7318 200.714 27.7643 200.682 27.7969C200.584 27.9108 200.462 28.0329 200.315 28.1631C200.169 28.277 200.047 28.3991 199.949 28.5293C199.786 28.8223 199.656 28.9688 199.559 28.9688C199.461 28.9688 199.38 29.0013 199.314 29.0664C199.021 29.2454 198.818 29.3757 198.704 29.457C198.574 29.571 198.387 29.7012 198.143 29.8477C197.801 30.0267 197.589 30.1569 197.508 30.2383C197.426 30.3197 197.361 30.3685 197.312 30.3848C196.922 30.8242 196.539 31.1904 196.165 31.4834C195.823 31.7438 195.457 32.11 195.066 32.582C194.936 32.6797 194.806 32.7773 194.676 32.875C194.546 32.9727 194.432 33.1029 194.334 33.2656C194.041 33.4609 193.805 33.6562 193.626 33.8516C193.447 34.0469 193.243 34.2747 193.016 34.5352C192.82 34.6328 192.609 34.7712 192.381 34.9502C192.104 35.1618 191.86 35.3164 191.648 35.4141C191.567 35.4629 191.429 35.5361 191.233 35.6338C191.071 35.7152 190.916 35.7559 190.77 35.7559C190.395 35.821 190.037 35.7884 189.695 35.6582C189.386 35.5443 189.077 35.4466 188.768 35.3652C188.637 35.1699 188.475 35.0072 188.279 34.877C187.986 34.5189 187.775 34.0957 187.645 33.6074C187.514 33.1191 187.384 32.5983 187.254 32.0449C186.961 32.2402 186.717 32.4518 186.521 32.6797C186.326 32.9238 186.033 33.1354 185.643 33.3145C185.317 33.6237 184.983 33.9329 184.642 34.2422C184.3 34.5352 183.942 34.82 183.567 35.0967C183.209 35.3734 182.843 35.6663 182.469 35.9756C182.094 36.2686 181.72 36.5697 181.346 36.8789C181.085 37.1393 180.906 37.237 180.809 37.1719C180.516 37.5299 179.995 37.6439 179.246 37.5137C178.986 37.3835 178.693 37.2695 178.367 37.1719C178.139 37.1068 177.879 37.0091 177.586 36.8789C177.033 36.7812 176.569 36.5371 176.194 36.1465C175.82 35.7559 175.503 35.3001 175.242 34.7793C175.145 34.5026 175.071 34.2585 175.022 34.0469C175.006 33.9329 174.982 33.8109 174.949 33.6807C174.917 33.5505 174.884 33.4121 174.852 33.2656C174.835 32.9889 174.786 32.7692 174.705 32.6064C174.64 32.4274 174.64 32.2565 174.705 32.0938C174.64 32.0124 174.624 31.9066 174.656 31.7764C174.689 31.6136 174.705 31.4915 174.705 31.4102C174.673 30.9544 174.713 30.4661 174.827 29.9453C174.941 29.4245 175.096 28.9525 175.291 28.5293C175.389 28.3665 175.519 28.2038 175.682 28.041C175.763 27.9434 175.812 27.8457 175.828 27.748C175.844 27.6667 175.893 27.5853 175.975 27.5039C176.056 27.4062 176.154 27.3086 176.268 27.2109C176.43 27.0807 176.544 26.9831 176.609 26.918C176.691 26.804 176.772 26.6982 176.854 26.6006C176.951 26.4867 177.057 26.389 177.171 26.3076C177.285 26.2262 177.391 26.1367 177.488 26.0391C177.586 25.9414 177.684 25.8438 177.781 25.7461C177.895 25.6322 177.985 25.5182 178.05 25.4043C178.131 25.2741 178.253 25.1764 178.416 25.1113C178.546 24.8835 178.693 24.6963 178.855 24.5498C179.018 24.4033 179.197 24.2487 179.393 24.0859C179.946 23.4186 180.63 22.849 181.443 22.377C182.273 21.9049 183.006 21.3841 183.641 20.8145C183.868 20.7168 184.064 20.6029 184.227 20.4727C184.389 20.3424 184.552 20.2122 184.715 20.082C185.122 19.724 185.561 19.61 186.033 19.7402L187.303 20.082C187.628 20.375 187.946 20.668 188.255 20.9609C188.564 21.2539 188.833 21.5794 189.061 21.9375C189.174 21.9212 189.297 21.9131 189.427 21.9131C189.557 21.8968 189.695 21.8968 189.842 21.9131C190.135 21.9456 190.444 21.9212 190.77 21.8398C190.867 21.8398 190.965 21.8154 191.062 21.7666C191.16 21.7178 191.242 21.6934 191.307 21.6934C191.795 21.8561 192.039 22.1003 192.039 22.4258ZM185.594 23.1582C184.715 23.5814 183.917 24.0778 183.201 24.6475C182.485 25.2171 181.801 25.8275 181.15 26.4785C181.069 26.5599 180.979 26.6413 180.882 26.7227C180.8 26.7878 180.719 26.861 180.638 26.9424C180.556 27.0075 180.475 27.0807 180.394 27.1621C180.312 27.2435 180.239 27.3249 180.174 27.4062C180.044 27.569 179.922 27.7643 179.808 27.9922C179.694 28.2201 179.588 28.4316 179.49 28.627C179.458 28.6921 179.425 28.7572 179.393 28.8223C179.36 28.8711 179.327 28.9118 179.295 28.9443C179.262 28.9769 179.23 29.0176 179.197 29.0664C179.165 29.1152 179.132 29.1641 179.1 29.2129C179.035 29.3757 179.01 29.5384 179.026 29.7012C179.043 29.8151 179.051 29.9941 179.051 30.2383V30.7266C179.051 30.8242 179.067 30.987 179.1 31.2148C179.197 31.5729 179.246 31.931 179.246 32.2891C179.246 32.5495 179.271 32.8669 179.319 33.2412C179.368 33.6156 179.49 33.8678 179.686 33.998C179.897 34.1283 180.101 34.1608 180.296 34.0957C180.524 34.0143 180.711 33.9655 180.857 33.9492C181.997 33.0703 183.071 32.1507 184.08 31.1904C185.089 30.2301 185.984 29.1478 186.766 27.9434C186.701 27.1458 186.692 26.3239 186.741 25.4775C186.79 24.68 186.717 23.9395 186.521 23.2559C186.391 23.1745 186.237 23.1501 186.058 23.1826C185.927 23.1989 185.773 23.1908 185.594 23.1582ZM199.705 32.2891C200.438 31.6543 201.129 30.9463 201.78 30.165C202.106 29.7907 202.439 29.4082 202.781 29.0176C203.123 28.627 203.481 28.2363 203.855 27.8457C204.018 27.6829 204.181 27.4876 204.344 27.2598C204.507 27.0319 204.669 26.7878 204.832 26.5273C204.962 26.332 205.125 26.1449 205.32 25.9658C205.532 25.7705 205.695 25.5996 205.809 25.4531C205.906 25.2904 206.028 25.1602 206.175 25.0625C206.256 25.0137 206.329 24.9648 206.395 24.916C206.476 24.8509 206.557 24.7858 206.639 24.7207C206.801 24.5579 206.948 24.4196 207.078 24.3057C207.208 24.1917 207.355 24.0697 207.518 23.9395C207.664 23.8255 207.802 23.7116 207.933 23.5977C208.079 23.4674 208.217 23.3454 208.348 23.2314C208.608 22.9873 208.917 22.7839 209.275 22.6211C209.471 22.5885 209.617 22.5153 209.715 22.4014C209.78 22.32 209.894 22.1979 210.057 22.0352C210.252 22.0677 210.398 22.0514 210.496 21.9863C210.561 21.9538 210.626 21.9212 210.691 21.8887C210.773 21.8561 210.854 21.8236 210.936 21.791C211.391 21.8887 211.757 22.0677 212.034 22.3281C212.311 22.5885 212.579 22.849 212.84 23.1094C213.068 23.207 213.247 23.2965 213.377 23.3779C213.507 23.4593 213.637 23.5488 213.768 23.6465C213.898 23.9069 214.012 24.151 214.109 24.3789C214.207 24.6068 214.256 24.8672 214.256 25.1602C214.256 25.2904 214.24 25.4857 214.207 25.7461C214.191 25.8438 214.174 25.9414 214.158 26.0391C214.142 26.1367 214.126 26.2344 214.109 26.332C213.979 26.7227 213.93 26.9342 213.963 26.9668C213.995 26.9993 214.012 27.0482 214.012 27.1133C214.044 27.4062 213.955 27.6748 213.743 27.9189C213.532 28.1794 213.475 28.4642 213.572 28.7734C213.605 28.9036 213.564 29.1478 213.45 29.5059C213.336 29.8639 213.296 30.1081 213.328 30.2383C213.393 30.4173 213.426 30.6696 213.426 30.9951C213.426 31.3206 213.507 31.5404 213.67 31.6543C214.012 31.7845 214.24 31.8496 214.354 31.8496H214.695C215.086 31.6543 215.574 31.3206 216.16 30.8486C216.746 30.3766 217.186 29.9779 217.479 29.6523C217.641 29.5221 217.796 29.3919 217.942 29.2617C218.089 29.1315 218.227 29.0094 218.357 28.8955C218.667 28.6188 219.025 28.3828 219.432 28.1875C219.855 27.8945 220.115 27.6911 220.213 27.5771L220.848 26.8691C220.945 26.7715 221.067 26.6738 221.214 26.5762C221.36 26.4785 221.499 26.3646 221.629 26.2344C221.889 25.974 222.15 25.7949 222.41 25.6973H222.972C223.2 25.6973 223.354 25.7624 223.436 25.8926C223.501 26.153 223.501 26.3809 223.436 26.5762C223.37 26.7715 223.289 26.9505 223.191 27.1133C223.077 27.2923 222.931 27.4714 222.752 27.6504C222.622 27.8945 222.475 28.1061 222.312 28.2852C222.231 28.3665 222.142 28.4561 222.044 28.5537C221.963 28.6351 221.873 28.7327 221.775 28.8467C221.58 29.0745 221.352 29.2454 221.092 29.3594C221.01 29.457 220.929 29.5465 220.848 29.6279C220.783 29.7093 220.709 29.7907 220.628 29.8721L220.164 30.3359C219.985 30.515 219.839 30.694 219.725 30.873C219.611 31.0521 219.464 31.2311 219.285 31.4102C219.106 31.5566 218.927 31.7031 218.748 31.8496C218.585 31.9961 218.414 32.1344 218.235 32.2646C217.894 32.5251 217.576 32.8424 217.283 33.2168C217.137 33.2819 217.007 33.3551 216.893 33.4365C216.827 33.4854 216.714 33.5586 216.551 33.6562C216.144 33.7702 215.729 34.0062 215.306 34.3643C214.899 34.7223 214.476 35.056 214.036 35.3652C213.613 35.6582 213.165 35.7884 212.693 35.7559C212.335 35.9186 212.026 35.9268 211.766 35.7803C211.505 35.6338 211.245 35.4792 210.984 35.3164C210.626 35.0885 210.285 34.8281 209.959 34.5352C209.633 34.2422 209.438 33.8353 209.373 33.3145C209.308 32.4681 209.406 31.6706 209.666 30.9219C209.943 30.1569 210.138 29.4082 210.252 28.6758C210.252 28.5944 210.301 28.3014 210.398 27.7969C210.512 27.276 210.529 26.9342 210.447 26.7715C210.398 26.7064 210.358 26.5924 210.325 26.4297C210.309 26.2669 210.171 26.1042 209.91 25.9414C209.764 25.86 209.699 25.8438 209.715 25.8926C209.731 25.9577 209.601 25.9902 209.324 25.9902C209.048 26.0879 208.82 26.2181 208.641 26.3809C208.543 26.4622 208.437 26.5436 208.323 26.625C208.226 26.7064 208.12 26.7878 208.006 26.8691C207.713 27.2109 207.347 27.5365 206.907 27.8457C206.517 28.1224 206.167 28.4642 205.857 28.8711C205.597 29.1641 205.353 29.457 205.125 29.75C204.93 30.0104 204.669 30.3034 204.344 30.6289C203.432 31.6706 202.537 32.6309 201.658 33.5098C201.544 33.64 201.43 33.7702 201.316 33.9004C201.219 34.0306 201.121 34.1608 201.023 34.291C200.926 34.4212 200.82 34.5514 200.706 34.6816C200.608 34.8118 200.503 34.9421 200.389 35.0723C199.998 35.5605 199.575 36.0326 199.119 36.4883C198.924 36.8138 198.647 37.123 198.289 37.416C197.931 37.709 197.573 37.9206 197.215 38.0508C197.117 37.9857 197.011 37.9857 196.897 38.0508C196.784 38.1159 196.678 38.1484 196.58 38.1484C196.385 38.0671 196.23 38.002 196.116 37.9531C196.002 37.9206 195.929 37.8962 195.896 37.8799C195.831 37.8473 195.783 37.7741 195.75 37.6602C195.424 37.4648 195.302 37.1475 195.384 36.708C195.465 36.2686 195.538 35.8861 195.604 35.5605C195.766 34.8281 195.962 34.0957 196.189 33.3633C196.417 32.6309 196.67 31.9066 196.946 31.1904C197.223 30.4743 197.475 29.7581 197.703 29.042C197.931 28.3258 198.126 27.6178 198.289 26.918C198.452 26.3646 198.615 25.8519 198.777 25.3799C198.94 24.9079 199.135 24.4115 199.363 23.8906C199.607 23.3698 199.762 22.9059 199.827 22.499C199.892 22.0921 200.047 21.6283 200.291 21.1074C200.438 20.847 200.551 20.6029 200.633 20.375C200.73 20.0983 200.828 19.8542 200.926 19.6426C201.3 18.9753 201.642 18.1696 201.951 17.2256C202.277 16.2653 202.618 15.4108 202.977 14.6621C203.367 13.6204 203.774 12.6113 204.197 11.6348C204.62 10.6582 205.092 9.69792 205.613 8.75391C205.923 7.50065 206.427 6.32878 207.127 5.23828C207.452 4.8151 207.672 4.47331 207.786 4.21289C207.933 3.88737 208.071 3.64323 208.201 3.48047C208.592 3.00846 209.031 2.64225 209.52 2.38184C209.992 2.12142 210.415 1.75521 210.789 1.2832C211.066 1.15299 211.318 1.05534 211.546 0.990234C211.676 0.957682 211.798 0.92513 211.912 0.892578C212.026 0.84375 212.14 0.794922 212.254 0.746094C212.352 0.84375 212.4 1.03906 212.4 1.33203C212.465 1.33203 212.482 1.42969 212.449 1.625C212.417 1.82031 212.417 1.98307 212.449 2.11328C212.449 2.56901 212.409 2.89453 212.327 3.08984L212.107 3.62695C212.075 3.88737 212.059 4.05827 212.059 4.13965C212.059 4.25358 212.042 4.39193 212.01 4.55469C211.912 4.86393 211.871 5.03483 211.888 5.06738C211.904 5.09993 211.912 5.1569 211.912 5.23828C211.912 5.30339 211.896 5.44987 211.863 5.67773C211.831 5.9056 211.814 6.06836 211.814 6.16602C211.798 6.49154 211.709 6.86589 211.546 7.28906C211.416 7.64714 211.294 8.00521 211.18 8.36328C210.984 8.59115 210.87 8.77018 210.838 8.90039C210.805 9.0306 210.74 9.11198 210.643 9.14453C210.545 9.42122 210.447 9.69792 210.35 9.97461C210.268 10.235 210.187 10.4954 210.105 10.7559C209.943 11.2604 209.699 11.7487 209.373 12.2207C209.259 12.5625 209.088 12.9124 208.86 13.2705C208.746 13.4333 208.641 13.6042 208.543 13.7832C208.462 13.946 208.38 14.1087 208.299 14.2715L208.079 14.7354C207.981 14.9307 207.908 15.0853 207.859 15.1992C207.632 15.6224 207.396 16.0537 207.151 16.4932C206.907 16.9326 206.622 17.3314 206.297 17.6895C205.711 18.9264 205.092 20.1715 204.441 21.4248C203.79 22.6781 203.156 23.8906 202.537 25.0625C202.423 25.2415 202.326 25.4124 202.244 25.5752C202.163 25.7217 202.098 25.86 202.049 25.9902C201.967 26.1693 201.91 26.3727 201.878 26.6006C201.845 26.7959 201.756 26.9668 201.609 27.1133C201.561 27.2598 201.512 27.4062 201.463 27.5527C201.414 27.6829 201.373 27.8132 201.341 27.9434C201.276 28.2038 201.154 28.4479 200.975 28.6758C200.861 29.3105 200.657 29.9209 200.364 30.5068C200.088 31.0602 199.868 31.6543 199.705 32.2891Z" fill="black"/>
</svg>
