<svg width="313" height="61" viewBox="0 0 313 61" fill="none" xmlns="http://www.w3.org/2000/svg">
<path d="M21.6875 31.8594C21.9609 32.4062 22.2686 32.9189 22.6104 33.3975C22.9521 33.876 23.1914 34.457 23.3281 35.1406C23.5104 35.3913 23.6016 35.6419 23.6016 35.8926C23.6016 36.1888 23.6471 36.4622 23.7383 36.7129C24.0573 37.8522 24.4561 38.9574 24.9346 40.0283C25.4131 41.0993 25.8802 42.1133 26.3359 43.0703C26.4271 43.8451 26.6663 44.4717 27.0537 44.9502C27.4411 45.4287 27.6803 46.0553 27.7715 46.8301C28.1361 47.696 28.5462 48.5163 29.002 49.291C29.4577 50.0658 29.9134 50.8405 30.3691 51.6152L31.0527 52.0254C31.1667 52.0938 31.2806 52.1621 31.3945 52.2305C31.5312 52.3216 31.668 52.4128 31.8047 52.5039C32.0326 52.6406 32.1921 52.7432 32.2832 52.8115C32.4427 52.9255 32.625 53.028 32.8301 53.1191C33.0807 53.2331 33.2972 53.3014 33.4795 53.3242C33.6618 53.347 33.8783 53.4154 34.1289 53.5293C34.3568 53.666 34.5049 53.7799 34.5732 53.8711C34.6416 53.9622 34.7669 54.0762 34.9492 54.2129C35.1087 54.2357 35.291 54.2926 35.4961 54.3838C35.6556 54.4521 35.8379 54.4635 36.043 54.418C36.7949 54.7826 37.4557 55.0332 38.0254 55.1699C38.2988 55.2383 38.5609 55.3066 38.8115 55.375C39.085 55.4661 39.347 55.5573 39.5977 55.6484C39.8255 55.7396 40.1104 55.8307 40.4521 55.9219C40.7939 56.013 41.0788 56.0586 41.3066 56.0586C41.7396 56.2637 42.0358 56.5371 42.1953 56.8789C42.3776 57.2207 42.5941 57.5397 42.8447 57.8359C43.0954 58.1322 43.5397 58.3145 44.1777 58.3828C44.3372 58.4967 44.4398 58.6221 44.4854 58.7588C44.5309 58.8955 44.6562 59.0436 44.8613 59.2031C45.2943 59.5677 45.488 59.7956 45.4424 59.8867C45.3512 60.0234 45.2943 60.1374 45.2715 60.2285C44.9525 60.2741 44.6335 60.3197 44.3145 60.3652C43.9954 60.4108 43.7676 60.5475 43.6309 60.7754C43.4941 60.7754 43.346 60.7754 43.1865 60.7754C43.0498 60.7754 42.8903 60.7868 42.708 60.8096C42.4118 60.8324 42.127 60.7526 41.8535 60.5703C41.0332 60.6159 40.3268 60.5703 39.7344 60.4336C39.1647 60.3197 38.39 60.2057 37.4102 60.0918C37.1595 60.0918 36.9089 60.0918 36.6582 60.0918C36.4303 60.1146 36.2025 60.1374 35.9746 60.1602C35.4961 60.2057 35.0859 60.1602 34.7441 60.0234C33.7415 59.6133 32.944 59.2487 32.3516 58.9297C31.7591 58.6107 31.1439 58.2689 30.5059 57.9043C30.0273 57.6764 29.5716 57.403 29.1387 57.084C28.7057 56.765 28.25 56.4915 27.7715 56.2637C27.1335 55.5345 26.5182 54.8281 25.9258 54.1445C25.3333 53.4609 24.7865 52.709 24.2852 51.8887L23.8408 51.1367C23.7952 51.0456 23.7383 50.9544 23.6699 50.8633C23.6243 50.7721 23.5788 50.681 23.5332 50.5898C23.3737 50.2025 23.2142 49.9518 23.0547 49.8379C22.9408 49.7467 22.8268 49.61 22.7129 49.4277C22.599 49.2454 22.485 48.972 22.3711 48.6074C22.3255 48.4479 22.2799 48.2884 22.2344 48.1289C22.1888 47.9694 22.1432 47.8099 22.0977 47.6504C22.0065 47.2402 21.9154 46.8415 21.8242 46.4541C21.7331 46.0667 21.6191 45.6908 21.4824 45.3262C21.3685 45.0072 21.2432 44.7679 21.1064 44.6084C20.9469 44.4033 20.8444 44.1413 20.7988 43.8223C20.6165 43.321 20.4456 42.8083 20.2861 42.2842C20.1266 41.7601 20.0013 41.2018 19.9102 40.6094C19.7734 39.7435 19.6025 39.0713 19.3975 38.5928C19.2152 38.1826 19.0671 37.7155 18.9531 37.1914C18.6569 36.485 18.2695 35.6875 17.791 34.7988C17.5404 34.3431 17.3011 33.9215 17.0732 33.5342C16.8682 33.124 16.6745 32.748 16.4922 32.4062C16.4466 32.2923 16.4124 32.1898 16.3896 32.0986C16.3669 32.0075 16.3441 31.9277 16.3213 31.8594C16.2985 31.7227 16.2188 31.6087 16.082 31.5176C15.8314 31.7682 15.6263 32.1556 15.4668 32.6797C15.3301 33.1582 15.1478 33.5684 14.9199 33.9102C14.4186 34.7077 14.0996 35.3571 13.9629 35.8584C13.8262 36.3597 13.6211 36.8268 13.3477 37.2598C13.2109 38.194 12.9603 38.9915 12.5957 39.6523C12.4818 40.3132 12.2539 40.7917 11.9121 41.0879C11.6842 41.9082 11.4108 42.7285 11.0918 43.5488C10.9323 43.959 10.7728 44.3691 10.6133 44.7793C10.4766 45.1667 10.3398 45.554 10.2031 45.9414C10.0892 46.4199 9.97526 46.8073 9.86133 47.1035C9.72461 47.4453 9.67904 47.8099 9.72461 48.1973C9.72461 48.5391 9.66764 48.8581 9.55371 49.1543C9.43978 49.4505 9.33724 49.7695 9.24609 50.1113C9.01823 50.7493 8.52832 51.1367 7.77637 51.2734C7.41178 51.3418 7.0472 51.4102 6.68262 51.4785C6.31803 51.5697 5.96484 51.6608 5.62305 51.752C5.48633 51.7975 5.33822 51.8431 5.17871 51.8887C5.01921 51.9342 4.84831 51.9798 4.66602 52.0254C4.11914 52.1621 3.53809 52.4014 2.92285 52.7432C2.28483 53.085 1.6582 53.2103 1.04297 53.1191C0.632812 53.028 0.484701 52.7887 0.598633 52.4014C0.712565 52.014 0.883464 51.7292 1.11133 51.5469C1.33919 51.0456 1.57845 50.5443 1.8291 50.043C2.07975 49.5417 2.3418 49.0632 2.61523 48.6074C2.72917 48.1745 2.88867 47.8555 3.09375 47.6504C3.3444 47.4909 3.52669 47.2402 3.64062 46.8984C3.73177 46.8073 3.81152 46.6934 3.87988 46.5566C3.94824 46.4199 4.00521 46.306 4.05078 46.2148C4.11914 46.0553 4.17611 45.8161 4.22168 45.4971C4.26725 45.1781 4.32422 44.9388 4.39258 44.7793C4.46094 44.597 4.5293 44.4147 4.59766 44.2324C4.66602 44.0273 4.72298 43.8337 4.76855 43.6514C4.88249 43.2184 5.05339 42.7969 5.28125 42.3867L5.58887 41.5664C5.63444 41.4297 5.69141 41.2816 5.75977 41.1221C5.82812 40.9626 5.89648 40.7917 5.96484 40.6094C6.07878 40.3132 6.21549 40.0511 6.375 39.8232C6.55729 39.5498 6.7168 39.2878 6.85352 39.0371C7.12695 38.3763 7.33203 37.8636 7.46875 37.499C7.62826 37.0889 7.81055 36.7129 8.01562 36.3711C8.42578 35.3229 8.84733 34.4456 9.28027 33.7393C9.53092 33.3519 9.77018 32.9417 9.99805 32.5088C10.2259 32.0758 10.4538 31.6315 10.6816 31.1758C10.7272 31.1074 10.7728 31.0391 10.8184 30.9707C10.8639 30.9023 10.9095 30.8454 10.9551 30.7998C11.0462 30.7087 11.1146 30.5605 11.1602 30.3555C11.3424 30.2415 11.4792 30.082 11.5703 29.877C11.6615 29.6719 11.7982 29.5124 11.9805 29.3984C12.1628 29.125 12.2995 28.8516 12.3906 28.5781C12.5046 28.2819 12.6413 28.054 12.8008 27.8945C13.2565 27.0514 13.6895 26.14 14.0996 25.1602C14.1452 25.0462 14.1794 24.9437 14.2021 24.8525C14.2249 24.7386 14.2477 24.6361 14.2705 24.5449C14.3161 24.2715 14.373 24.0892 14.4414 23.998C14.6921 23.7018 14.863 23.4512 14.9541 23.2461C15.0452 23.0182 15.125 22.8587 15.1934 22.7676C15.2845 22.6081 15.3757 22.46 15.4668 22.3232C15.5807 22.1637 15.6833 22.0042 15.7744 21.8447C15.8883 21.6852 15.9909 21.5257 16.082 21.3662C16.1732 21.2067 16.2643 21.0358 16.3555 20.8535C16.5833 20.1927 16.891 19.5661 17.2783 18.9736C17.6657 18.3584 17.9733 17.7546 18.2012 17.1621C18.4746 16.752 18.6341 16.5241 18.6797 16.4785C18.7253 16.4329 18.748 16.3646 18.748 16.2734C19.3405 15.1341 19.876 14.0745 20.3545 13.0947C20.833 12.1149 21.3229 11.1009 21.8242 10.0527C21.2773 10.1667 20.833 10.3945 20.4912 10.7363C20.1494 11.0781 19.7507 11.3288 19.2949 11.4883C19.1582 11.6706 19.0671 11.7845 19.0215 11.8301L18.748 12.1035C17.6087 12.6504 16.5605 13.2656 15.6035 13.9492C14.6465 14.6328 13.8034 15.4759 13.0742 16.4785C12.7552 16.6152 12.516 16.7406 12.3564 16.8545C12.2425 16.9456 12.1172 17.0254 11.9805 17.0938C11.8665 17.1621 11.7526 17.2305 11.6387 17.2988C11.3197 17.4355 10.9095 17.5267 10.4082 17.5723C9.9069 17.6178 9.51953 17.4583 9.24609 17.0938C9.08659 15.7721 9.20052 14.7923 9.58789 14.1543C10.0208 13.4707 10.4082 12.8327 10.75 12.2402C11.2741 11.7617 11.9121 11.2718 12.6641 10.7705L14.6465 9.50586C15.2389 9.0957 15.6149 8.82227 15.7744 8.68555C15.8883 8.5944 16.0592 8.48047 16.2871 8.34375C16.834 7.97917 17.3923 7.60319 17.9619 7.21582C18.5316 6.80566 19.1126 6.38411 19.7051 5.95117C20.4115 5.31315 21.209 4.83464 22.0977 4.51562C22.5306 4.37891 22.9294 4.26497 23.2939 4.17383C23.6585 4.0599 23.9889 3.95736 24.2852 3.86621C24.5814 3.77507 24.8662 3.68392 25.1396 3.59277C25.4131 3.50163 25.6751 3.39909 25.9258 3.28516C27.3841 3.01172 28.7285 2.65853 29.959 2.22559C31.1895 1.79264 32.4427 1.34831 33.7188 0.892578C34.0378 0.847005 34.3454 0.812826 34.6416 0.790039C34.9378 0.767253 35.234 0.744466 35.5303 0.72168L37.4102 0.619141C37.5924 0.755859 37.8545 0.812826 38.1963 0.790039C38.3786 0.767253 38.5381 0.767253 38.6748 0.790039C38.8343 0.790039 38.9824 0.801432 39.1191 0.824219C39.3014 0.869792 39.4837 0.915365 39.666 0.960938C39.8483 0.983724 40.0192 1.0179 40.1787 1.06348C40.361 1.08626 40.5319 1.12044 40.6914 1.16602C40.8737 1.21159 41.056 1.25716 41.2383 1.30273C41.5345 1.57617 41.9333 1.76986 42.4346 1.88379C42.8675 1.97493 43.3574 2.12305 43.9043 2.32812C44.2689 2.51042 44.6107 2.68132 44.9297 2.84082C45.2487 3.00033 45.5905 3.17122 45.9551 3.35352C46.2741 3.74089 46.4222 4.0599 46.3994 4.31055C46.3766 4.44727 46.3652 4.61816 46.3652 4.82324C46.388 5.00553 46.4108 5.22201 46.4336 5.47266L46.5361 6.12207C46.5817 6.39551 46.6159 6.61198 46.6387 6.77148C46.6387 6.95378 46.6729 7.11328 46.7412 7.25C46.8096 7.38672 46.8438 7.52344 46.8438 7.66016C46.8665 8.04753 46.8893 8.4349 46.9121 8.82227C46.9577 9.18685 46.9919 9.56283 47.0146 9.9502C47.083 10.7477 47.0716 11.5111 46.9805 12.2402C46.8665 12.8555 46.707 13.3226 46.502 13.6416C46.388 13.8239 46.2741 14.029 46.1602 14.2568C46.0462 14.4847 45.9323 14.724 45.8184 14.9746C45.5449 15.4303 45.2487 15.8861 44.9297 16.3418C44.6107 16.7975 44.2689 17.276 43.9043 17.7773C43.8359 17.8229 43.7676 17.8685 43.6992 17.9141C43.6309 17.9368 43.5739 17.971 43.5283 18.0166C43.3916 18.1077 43.3118 18.2331 43.2891 18.3926C42.651 18.8711 42.1042 19.2357 41.6484 19.4863C41.2155 19.7142 40.7826 19.9876 40.3496 20.3066C40.1673 20.3978 39.985 20.4889 39.8027 20.5801C39.6204 20.6712 39.4382 20.7624 39.2559 20.8535C39.0508 21.0586 38.8229 21.2409 38.5723 21.4004C38.4355 21.4915 38.2988 21.5827 38.1621 21.6738C38.0482 21.765 37.9342 21.8561 37.8203 21.9473C37.4557 22.3118 37.1367 22.5625 36.8633 22.6992C36.6126 22.8359 36.4303 23.0638 36.3164 23.3828C35.3138 23.9297 34.3796 24.6019 33.5137 25.3994C32.7389 26.1058 31.8503 26.8008 30.8477 27.4844C30.6654 27.6439 30.4831 27.8034 30.3008 27.9629C30.1413 28.1224 29.9704 28.2819 29.7881 28.4414C29.4691 28.7376 29.0703 29.0111 28.5918 29.2617C27.9538 29.5352 27.4867 29.7858 27.1904 30.0137C26.917 30.2188 26.5182 30.3783 25.9941 30.4922C24.7865 31.2214 23.3509 31.6771 21.6875 31.8594ZM36.9316 5.19922C36.7038 5.24479 36.4759 5.26758 36.248 5.26758C35.929 5.26758 35.6328 5.31315 35.3594 5.4043C35.1315 5.44987 34.8923 5.51823 34.6416 5.60938C34.391 5.67773 34.1289 5.76888 33.8555 5.88281C33.582 5.99674 33.3086 6.09928 33.0352 6.19043C32.7617 6.25879 32.4883 6.31576 32.2148 6.36133C31.8503 6.45247 31.5199 6.54362 31.2236 6.63477C30.9502 6.70312 30.6995 6.77148 30.4717 6.83984C29.9932 6.99935 29.6855 7.11328 29.5488 7.18164C29.4805 7.25 29.4235 7.40951 29.3779 7.66016C29.3324 7.93359 29.2754 8.11589 29.207 8.20703C29.0247 8.66276 28.7969 9.08431 28.5234 9.47168C28.25 9.83626 28.0449 10.2122 27.9082 10.5996C27.4297 11.1237 27.0651 11.7048 26.8145 12.3428C26.7005 12.639 26.5866 12.9238 26.4727 13.1973C26.3587 13.4479 26.2448 13.6986 26.1309 13.9492C25.8346 14.3366 25.5726 14.7012 25.3447 15.043C25.1169 15.3848 24.9232 15.7038 24.7637 16L24.3535 16.4443C24.3079 16.4899 24.2852 16.5469 24.2852 16.6152C23.7383 17.1621 23.2939 17.7773 22.9521 18.4609C22.6104 19.1445 22.1888 19.737 21.6875 20.2383C21.5052 20.5117 21.3457 20.7738 21.209 21.0244C21.0951 21.2523 20.9925 21.4688 20.9014 21.6738C20.7191 22.1296 20.457 22.4941 20.1152 22.7676L19.6025 23.8271C19.5114 23.9867 19.4202 24.1576 19.3291 24.3398C19.2607 24.5221 19.181 24.7044 19.0898 24.8867C18.7025 25.7526 18.2012 26.6413 17.5859 27.5527C17.5859 27.7578 17.529 27.9401 17.415 28.0996C17.3467 28.1908 17.2441 28.3503 17.1074 28.5781C17.2897 28.7148 17.472 28.7376 17.6543 28.6465C17.8366 28.5553 17.9961 28.4642 18.1328 28.373C19.2038 27.7806 20.3431 27.2679 21.5508 26.835C22.8496 26.3792 23.9661 25.821 24.9004 25.1602C25.7663 24.6589 26.5638 24.1917 27.293 23.7588C28.0221 23.3258 28.7285 22.8587 29.4121 22.3574L30.9844 21.5029C31.1667 21.389 31.3604 21.2865 31.5654 21.1953C31.7933 21.1042 32.0326 21.013 32.2832 20.9219C32.6934 20.5801 33.0807 20.3066 33.4453 20.1016C33.8327 19.8737 34.1517 19.6003 34.4023 19.2812C34.8581 18.9167 35.3138 18.4495 35.7695 17.8799C36.2253 17.3102 36.6582 16.8203 37.0684 16.4102C37.2962 16.3874 37.4329 16.3076 37.4785 16.1709C37.5241 16.057 37.6608 16 37.8887 16C38.276 15.4759 38.7204 15.0316 39.2217 14.667C39.7458 14.2796 40.1445 13.8353 40.418 13.334C40.6686 12.9466 40.8395 12.582 40.9307 12.2402C41.0446 11.8529 41.2155 11.4427 41.4434 11.0098C41.3522 10.668 41.432 10.292 41.6826 9.88184C41.9333 9.47168 42.013 9.11849 41.9219 8.82227C41.8079 8.45768 41.6257 8.17285 41.375 7.96777C41.1016 7.73991 40.8965 7.47786 40.7598 7.18164C40.6686 6.79427 40.5661 6.52083 40.4521 6.36133C40.361 6.20182 40.2585 5.97396 40.1445 5.67773C40.0534 5.63216 39.9622 5.58659 39.8711 5.54102C39.8027 5.49544 39.7344 5.44987 39.666 5.4043C39.5521 5.31315 39.3242 5.29036 38.9824 5.33594C38.7546 5.22201 38.4469 5.18783 38.0596 5.2334C37.8773 5.25618 37.6836 5.26758 37.4785 5.26758C37.2962 5.24479 37.1139 5.22201 36.9316 5.19922ZM40.2812 35.8926C40.5775 35.7331 40.9421 35.3913 41.375 34.8672C41.8079 34.3203 42.2295 33.7962 42.6396 33.2949C43.0498 32.7708 43.3574 32.4746 43.5625 32.4062C43.6992 32.1784 43.8245 31.9847 43.9385 31.8252C44.0524 31.6657 44.2233 31.5176 44.4512 31.3809C44.8158 30.7201 45.2943 30.1618 45.8867 29.7061C46.502 29.2275 47.0716 28.7148 47.5957 28.168C48.0286 27.9857 48.4616 27.7806 48.8945 27.5527C49.3503 27.3249 49.7946 27.0628 50.2275 26.7666C51.1162 26.1742 52.1074 25.8665 53.2012 25.8438C53.7025 26.0716 54.1924 26.14 54.6709 26.0488C55.1266 25.9577 55.571 26.0716 56.0039 26.3906C56.2546 26.8236 56.4596 27.0856 56.6191 27.1768C56.7786 27.2679 56.9154 27.3932 57.0293 27.5527C57.2116 28.1224 57.3483 28.4984 57.4395 28.6807C57.5534 28.863 57.6217 29.0566 57.6445 29.2617C57.6673 29.6035 57.6901 29.8997 57.7129 30.1504C57.7357 30.3783 57.7585 30.5719 57.7812 30.7314C57.804 31.0277 57.804 31.3125 57.7812 31.5859C57.6445 32.748 57.4167 33.9102 57.0977 35.0723C57.0521 35.209 57.0065 35.3457 56.9609 35.4824C56.9154 35.6191 56.8698 35.7673 56.8242 35.9268C56.7331 36.223 56.6191 36.485 56.4824 36.7129C56.1406 37.1458 55.9014 37.499 55.7646 37.7725C55.5596 38.137 55.4115 38.3763 55.3203 38.4902C55.0469 38.7637 54.7848 39.0143 54.5342 39.2422C54.3063 39.4701 54.0898 39.6751 53.8848 39.8574C53.6797 39.9714 53.4746 40.0967 53.2695 40.2334C53.0645 40.3473 52.8594 40.4727 52.6543 40.6094C52.2669 40.86 51.8112 41.0423 51.2871 41.1562L50.6719 41.5322C50.4668 41.6689 50.2389 41.7487 49.9883 41.7715C49.5781 42.0677 49.1224 42.307 48.6211 42.4893C48.3932 42.5804 48.154 42.6715 47.9033 42.7627C47.6755 42.8538 47.4362 42.9564 47.1855 43.0703C46.8438 43.207 46.5475 43.3665 46.2969 43.5488C46.0462 43.7311 45.7272 43.9134 45.3398 44.0957C45.1348 44.1641 44.8044 44.2438 44.3486 44.335C43.9157 44.4033 43.6081 44.4831 43.4258 44.5742C43.6536 45.0299 43.7448 45.5996 43.6992 46.2832C43.6764 46.9212 43.7904 47.4909 44.041 47.9922C44.6335 48.1289 45.2829 48.2314 45.9893 48.2998C46.6956 48.3682 47.3678 48.3568 48.0059 48.2656C48.1198 48.2428 48.2337 48.2087 48.3477 48.1631C48.4844 48.1175 48.6211 48.0719 48.7578 48.0264C48.8945 47.9808 49.0312 47.9352 49.168 47.8896C49.3047 47.8441 49.4414 47.8099 49.5781 47.7871C50.0794 47.696 50.5693 47.582 51.0479 47.4453C51.5264 47.3086 51.9479 47.1263 52.3125 46.8984C53.6341 46.4427 54.9102 45.8275 56.1406 45.0527C57.3711 44.278 58.4421 43.4349 59.3535 42.5234C59.9004 42.1589 60.5042 41.6576 61.165 41.0195C61.8258 40.3815 62.3385 39.7891 62.7031 39.2422C63.3867 38.513 63.9906 37.9434 64.5146 37.5332C65.0387 37.123 65.5286 36.9408 65.9844 36.9863C66.349 36.9863 66.7021 37.2028 67.0439 37.6357C67.3857 38.0687 67.3516 38.5358 66.9414 39.0371C66.5085 39.3105 66.0299 39.7207 65.5059 40.2676C65.0046 40.8145 64.4805 41.2018 63.9336 41.4297C63.5462 41.6803 63.0335 42.1816 62.3955 42.9336C61.7803 43.64 61.2676 44.1868 60.8574 44.5742C60.7663 44.6654 60.6637 44.7679 60.5498 44.8818C60.4359 44.9958 60.2992 45.1097 60.1396 45.2236C59.8434 45.4515 59.6042 45.6908 59.4219 45.9414C58.7155 46.5339 58.0319 47.0352 57.3711 47.4453C57.1204 47.3542 56.9154 47.3997 56.7559 47.582C56.5508 47.8327 56.3685 48.015 56.209 48.1289C56.1406 48.1745 56.0723 48.2201 56.0039 48.2656C55.9355 48.3112 55.8558 48.3568 55.7646 48.4023C55.6735 48.4479 55.5938 48.4935 55.5254 48.5391C55.457 48.5846 55.3887 48.6302 55.3203 48.6758C54.9557 48.9948 54.557 49.3138 54.124 49.6328C53.6911 49.9518 53.2467 50.2253 52.791 50.4531C52.3353 50.7266 51.8796 50.9772 51.4238 51.2051C50.9681 51.4557 50.5124 51.6722 50.0566 51.8545C49.6009 52.0368 49.1452 52.2533 48.6895 52.5039C48.2565 52.7546 47.8236 53.028 47.3906 53.3242L46.6387 53.4268C46.5247 53.4495 46.4108 53.4609 46.2969 53.4609C46.1829 53.4837 46.069 53.5065 45.9551 53.5293C45.7044 53.6204 45.4652 53.666 45.2373 53.666C45.0094 53.666 44.7246 53.6204 44.3828 53.5293C42.8789 53.1191 41.6484 52.39 40.6914 51.3418C40.5547 51.2051 40.4066 51.0798 40.2471 50.9658C40.1104 50.8291 39.9622 50.7038 39.8027 50.5898C39.4382 50.3164 39.1875 50.0658 39.0508 49.8379C38.8457 49.4961 38.6406 48.9606 38.4355 48.2314C38.2077 47.5023 38.014 46.7617 37.8545 46.0098C37.695 45.235 37.6152 44.6426 37.6152 44.2324C37.752 43.959 37.9001 43.4919 38.0596 42.8311C38.2191 42.1475 38.3558 41.4753 38.4697 40.8145C38.5837 40.1309 38.6406 39.6523 38.6406 39.3789C38.7318 39.2878 38.9141 38.9915 39.1875 38.4902C39.4382 37.9661 39.6774 37.4421 39.9053 36.918C40.1559 36.3711 40.2812 36.0293 40.2812 35.8926ZM51.2871 31.5176C50.9681 31.9277 50.6491 32.3151 50.3301 32.6797C50.0111 33.0443 49.6465 33.3861 49.2363 33.7051C48.9629 34.2064 48.6439 34.6621 48.2793 35.0723C47.9147 35.4824 47.5501 35.8698 47.1855 36.2344C47.0033 36.599 46.7982 36.8838 46.5703 37.0889C46.3424 37.2939 46.0918 37.5104 45.8184 37.7383C45.5221 38.2396 45.1576 38.7181 44.7246 39.1738C44.2917 39.6296 44.2005 40.1536 44.4512 40.7461C44.9525 40.8372 45.4538 40.7689 45.9551 40.541C46.4564 40.3132 46.8893 40.1081 47.2539 39.9258C47.4362 39.8118 47.6185 39.7093 47.8008 39.6182C48.0059 39.527 48.1995 39.4359 48.3818 39.3447C48.5641 39.2536 48.7464 39.1624 48.9287 39.0713C49.111 38.9801 49.2819 38.8776 49.4414 38.7637L51.2188 36.9863C51.4922 36.7357 51.7656 36.4395 52.0391 36.0977C52.153 35.9382 52.2669 35.7786 52.3809 35.6191C52.5176 35.4368 52.6543 35.2546 52.791 35.0723C52.9049 34.571 53.0872 34.1038 53.3379 33.6709C53.6113 33.2152 53.7253 32.748 53.6797 32.2695C53.6569 32.0645 53.5771 31.8252 53.4404 31.5518C53.3037 31.2783 53.224 31.0618 53.2012 30.9023C52.7227 30.9023 52.3695 30.9821 52.1416 31.1416C52.0277 31.2327 51.891 31.3125 51.7314 31.3809C51.5947 31.4264 51.4466 31.472 51.2871 31.5176ZM72.1367 27.3477C72.5013 27.2565 72.7064 27.2451 72.752 27.3135C72.7975 27.3818 72.8887 27.416 73.0254 27.416C73.2077 27.6667 73.2305 28.0312 73.0938 28.5098C72.9342 29.2389 72.6152 29.9339 72.1367 30.5947C71.6582 31.2555 71.2936 31.9049 71.043 32.543C70.8835 32.862 70.7354 33.1468 70.5986 33.3975C70.4847 33.6253 70.3822 33.8304 70.291 34.0127C70.1999 34.1722 70.1087 34.3431 70.0176 34.5254C69.9492 34.7077 69.8809 34.89 69.8125 35.0723C69.5846 35.5736 69.3568 36.1318 69.1289 36.7471C68.901 37.3623 68.6732 37.9889 68.4453 38.627L68.0352 39.5156C67.8073 40.0169 67.625 40.4613 67.4883 40.8486C67.3516 41.236 67.2604 41.7259 67.2148 42.3184V44.1641C67.2604 44.4831 67.2946 44.8135 67.3174 45.1553C67.3402 45.4971 67.363 45.8503 67.3857 46.2148C67.4313 46.9668 67.5794 47.582 67.8301 48.0605C68.3997 47.7871 69.015 47.32 69.6758 46.6592C69.9948 46.3402 70.291 46.0553 70.5645 45.8047C70.8607 45.5312 71.1341 45.3034 71.3848 45.1211C71.7038 44.6654 72.057 44.2438 72.4443 43.8564C72.8545 43.4463 73.1849 43.002 73.4355 42.5234C73.9824 42.0677 74.347 41.4753 74.5293 40.7461C74.7572 40.4954 74.9736 40.2106 75.1787 39.8916C75.2926 39.7321 75.3952 39.584 75.4863 39.4473C75.6003 39.2878 75.7142 39.1283 75.8281 38.9688C76.1699 38.4902 76.4661 37.9206 76.7168 37.2598C76.8535 36.8724 76.9105 36.5078 76.8877 36.166C76.8649 35.9837 76.8535 35.8014 76.8535 35.6191C76.8535 35.4368 76.8535 35.2546 76.8535 35.0723C76.8763 34.6849 76.9447 34.2975 77.0586 33.9102C77.1497 33.5911 77.1725 33.2266 77.127 32.8164C77.1953 32.7025 77.2751 32.5088 77.3662 32.2354C77.4574 31.9619 77.5371 31.7454 77.6055 31.5859C77.6966 31.3581 77.8675 31.1074 78.1182 30.834C78.3688 30.5605 78.6081 30.3099 78.8359 30.082C78.9954 29.877 79.1436 29.6719 79.2803 29.4668C79.4398 29.2617 79.5879 29.0566 79.7246 28.8516C79.9753 28.4642 80.3171 28.1452 80.75 27.8945L81.5703 27.5527C81.9121 27.3932 82.1855 27.3021 82.3906 27.2793C82.7324 27.2337 83.1882 27.1312 83.7578 26.9717C84.3503 26.7894 84.806 26.7552 85.125 26.8691C85.3073 26.8919 85.4782 26.9945 85.6377 27.1768C85.7972 27.3135 85.9909 27.3021 86.2188 27.1426C86.5833 27.5299 86.7656 27.8717 86.7656 28.168C86.7656 28.4414 86.6745 28.7376 86.4922 29.0566C86.196 29.4896 86.0365 29.7516 86.0137 29.8428C85.9909 29.8883 85.9681 29.9453 85.9453 30.0137C85.9225 30.0592 85.8997 30.1048 85.877 30.1504C85.4668 30.834 85.0566 31.5859 84.6465 32.4062C84.2363 33.2266 83.8945 34.0013 83.6211 34.7305C84.0768 34.9583 84.6807 35.0609 85.4326 35.0381C86.1846 35.0153 86.8568 34.9355 87.4492 34.7988C87.5404 34.776 87.6201 34.7533 87.6885 34.7305C87.7796 34.7077 87.8708 34.6849 87.9619 34.6621C88.0531 34.6393 88.1328 34.6165 88.2012 34.5938C88.2923 34.571 88.3835 34.5482 88.4746 34.5254C88.7708 34.4342 89.2152 34.3545 89.8076 34.2861C90.2861 34.2178 90.7305 34.0924 91.1406 33.9102C91.6647 33.6367 91.9837 33.5 92.0977 33.5C92.2572 33.5 92.4167 33.4544 92.5762 33.3633C93.0091 33.2493 93.4079 33.1354 93.7725 33.0215C94.137 32.9076 94.4674 32.7936 94.7637 32.6797C94.9232 32.6341 95.0827 32.5885 95.2422 32.543C95.4017 32.4746 95.5612 32.3949 95.7207 32.3037C96.0397 32.1214 96.3359 32.0872 96.6094 32.2012C96.7005 32.2923 96.7347 32.4518 96.7119 32.6797C96.6891 32.8848 96.7461 33.1126 96.8828 33.3633C96.5182 33.6595 96.2448 33.7962 96.0625 33.7734C95.6979 33.9557 95.3219 34.1266 94.9346 34.2861C94.5472 34.4456 94.137 34.6051 93.7041 34.7646L91.2773 35.6191C90.7305 35.8698 90.3659 35.9723 90.1836 35.9268C90.0241 35.8812 89.819 35.9154 89.5684 36.0293C88.8164 36.3711 88.167 36.6217 87.6201 36.7812C87.1644 36.918 86.7656 37.0775 86.4238 37.2598C86.2415 37.3965 86.1162 37.499 86.0479 37.5674C85.9339 37.6813 85.7858 37.7611 85.6035 37.8066C84.8288 37.9434 84.168 38.0003 83.6211 37.9775C83.0514 37.9548 82.459 38.1029 81.8438 38.4219C81.707 38.6953 81.5247 39.0029 81.2969 39.3447C81.069 39.6865 80.8184 39.9714 80.5449 40.1992C80.3171 40.6549 80.0778 41.0423 79.8271 41.3613C79.5765 41.6803 79.2917 42.0221 78.9727 42.3867C78.5625 42.7513 78.1523 43.1387 77.7422 43.5488C77.332 43.959 76.9447 44.3464 76.5801 44.7109C75.9421 45.7591 75.2015 46.7275 74.3584 47.6162C73.5153 48.5049 72.638 49.3822 71.7266 50.248C71.4987 50.2708 71.2822 50.3734 71.0771 50.5557C70.9176 50.6924 70.7012 50.8177 70.4277 50.9316C70.1315 51.0228 69.8923 51.0911 69.71 51.1367C69.5505 51.2051 69.4479 51.2507 69.4023 51.2734C69.3112 51.2962 69.1745 51.3646 68.9922 51.4785C68.6732 51.6152 68.4339 51.7406 68.2744 51.8545C68.1377 51.9456 68.0352 52.0254 67.9668 52.0938C67.8529 52.1849 67.7161 52.2305 67.5566 52.2305C67.4427 52.2305 67.3288 52.3216 67.2148 52.5039C66.6452 52.39 66.3034 52.4583 66.1895 52.709C66.0072 52.709 65.8249 52.7318 65.6426 52.7773C65.5059 52.8229 65.3464 52.8229 65.1641 52.7773C65.0273 52.6634 64.9248 52.5609 64.8564 52.4697C64.7653 52.333 64.6855 52.2305 64.6172 52.1621C63.9336 51.8887 63.5234 51.5924 63.3867 51.2734C63.2272 50.9316 63.0221 50.681 62.7715 50.5215C62.5664 50.043 62.4411 49.4961 62.3955 48.8809C62.3727 48.6074 62.3499 48.334 62.3271 48.0605C62.3044 47.7643 62.2702 47.4681 62.2246 47.1719C62.2018 47.0807 62.179 47.001 62.1562 46.9326C62.1335 46.8415 62.1107 46.7503 62.0879 46.6592C62.0651 46.568 62.0423 46.4883 62.0195 46.4199C61.9967 46.3288 61.974 46.2376 61.9512 46.1465C61.86 45.7819 61.8258 45.4173 61.8486 45.0527C61.8714 44.7109 61.8145 44.3464 61.6777 43.959C61.9056 43.2298 61.9284 42.5234 61.7461 41.8398C61.8372 41.5208 61.9512 41.0993 62.0879 40.5752C62.2246 40.0511 62.3158 39.6068 62.3613 39.2422C62.4753 38.2852 62.6462 37.4876 62.874 36.8496C63.1247 36.2116 63.5007 35.4141 64.002 34.457C64.1842 34.0469 64.3893 33.6367 64.6172 33.2266C64.7311 33.0215 64.8451 32.8164 64.959 32.6113C65.0729 32.3835 65.1868 32.1556 65.3008 31.9277C65.4147 31.6999 65.5059 31.5176 65.5742 31.3809C65.6654 31.2214 65.7223 31.1074 65.7451 31.0391C65.8363 30.8796 65.9844 30.6289 66.1895 30.2871L66.5312 29.6719C66.668 29.444 66.8275 29.2389 67.0098 29.0566C67.3743 28.6921 67.7161 28.4072 68.0352 28.2021C68.3542 27.9971 68.7415 27.7806 69.1973 27.5527C69.6302 27.6439 70.1885 27.5641 70.8721 27.3135C71.5557 27.0628 71.9772 27.0742 72.1367 27.3477ZM104.266 16.752L104.949 16.957C105.04 17.071 105.086 17.2077 105.086 17.3672C105.086 17.4811 105.154 17.5951 105.291 17.709C105.2 18.1191 105.12 18.5407 105.052 18.9736C104.983 19.4066 104.949 19.8281 104.949 20.2383C104.949 20.3978 105.006 20.5573 105.12 20.7168C105.234 20.8763 105.291 21.013 105.291 21.127C105.063 21.651 104.892 21.9701 104.778 22.084C104.664 22.1979 104.607 22.3118 104.607 22.4258C104.38 22.5169 104.209 22.6536 104.095 22.8359C103.981 23.0182 103.787 23.1094 103.514 23.1094C103.423 23.2461 103.32 23.3486 103.206 23.417C103.069 23.5081 102.99 23.6335 102.967 23.793C102.215 24.112 101.395 24.0892 100.506 23.7246C100.255 23.2917 99.9362 22.9954 99.5488 22.8359C98.9564 21.9701 98.9336 20.9447 99.4805 19.7598C99.5716 19.5319 99.6742 19.2926 99.7881 19.042C99.902 18.7913 100.005 18.6204 100.096 18.5293C100.574 18.1875 100.939 17.9596 101.189 17.8457C101.281 17.8001 101.372 17.7546 101.463 17.709C101.577 17.6406 101.679 17.5723 101.771 17.5039C101.93 17.39 102.169 17.276 102.488 17.1621C102.625 17.1165 102.75 17.0938 102.864 17.0938C103.047 17.0938 103.217 17.0482 103.377 16.957C103.468 16.9342 103.548 16.9115 103.616 16.8887C103.707 16.8659 103.787 16.8431 103.855 16.8203C104.038 16.7747 104.174 16.752 104.266 16.752ZM94.0117 47.0352L94.3535 47.1719C94.7637 46.9896 95.265 46.9212 95.8574 46.9668C96.4727 47.0124 96.9512 46.9212 97.293 46.6934C97.5208 46.5111 97.6803 46.3743 97.7715 46.2832C97.9082 46.1465 98.0677 46.1009 98.25 46.1465C98.9792 45.873 99.5944 45.5996 100.096 45.3262C100.62 45.0527 101.167 44.8477 101.736 44.7109C102.101 44.5742 102.42 44.3691 102.693 44.0957C103.628 43.7995 104.414 43.3779 105.052 42.8311C105.713 42.2842 106.43 41.7031 107.205 41.0879C107.843 40.7233 108.379 40.4043 108.812 40.1309C109.244 39.8574 109.712 39.5156 110.213 39.1055C110.327 38.8548 110.452 38.6839 110.589 38.5928C110.703 38.5244 110.828 38.3763 110.965 38.1484C111.785 38.1484 112.241 38.4674 112.332 39.1055C112.104 39.6068 111.797 40.0169 111.409 40.3359C110.999 40.6777 110.646 41.0423 110.35 41.4297C109.985 41.6576 109.689 41.8626 109.461 42.0449C109.233 42.2272 109.005 42.5007 108.777 42.8652C108.755 42.8652 108.618 42.9678 108.367 43.1729C108.139 43.3779 108.003 43.4805 107.957 43.4805C107.592 43.9134 107.319 44.1755 107.137 44.2666C106.954 44.3577 106.635 44.597 106.18 44.9844C105.883 45.4857 105.473 45.8958 104.949 46.2148C103.969 47.1491 102.933 47.9352 101.839 48.5732C101.269 48.8923 100.734 49.2227 100.232 49.5645C99.7311 49.8835 99.2526 50.2025 98.7969 50.5215C98.569 50.6582 98.4095 50.7835 98.3184 50.8975C98.2272 51.0114 98.0677 51.1595 97.8398 51.3418C97.612 51.5241 97.2588 51.7064 96.7803 51.8887C96.3018 52.071 95.8802 52.2305 95.5156 52.3672C95.2194 52.5495 94.9688 52.6862 94.7637 52.7773C93.7383 52.8229 92.9635 52.6634 92.4395 52.2988C91.847 51.9798 91.3913 51.7292 91.0723 51.5469C90.7533 51.3646 90.4798 51.0684 90.252 50.6582C89.7279 50.4076 89.4202 49.986 89.3291 49.3936C89.2835 49.0745 89.2266 48.7669 89.1582 48.4707C89.0898 48.1745 89.0215 47.8783 88.9531 47.582C88.9076 47.3542 88.862 47.0921 88.8164 46.7959C88.7708 46.4997 88.7708 46.1921 88.8164 45.873C88.9303 45.349 88.9987 44.8135 89.0215 44.2666C89.0443 43.7653 89.1582 43.2754 89.3633 42.7969C89.5684 42.3411 89.6937 41.8398 89.7393 41.293C89.7848 40.7461 89.9102 40.2448 90.1152 39.7891C90.4115 39.3333 90.5368 39.0827 90.4912 39.0371C90.4684 39.0143 90.4798 38.946 90.5254 38.832L90.833 38.4219C90.9014 38.3307 91.0039 38.1712 91.1406 37.9434L91.5508 36.918C91.7559 36.5306 91.9609 36.2116 92.166 35.9609C92.3711 35.6875 92.5534 35.3001 92.7129 34.7988C92.8268 34.4798 92.9521 34.2292 93.0889 34.0469C93.18 33.9329 93.2598 33.819 93.3281 33.7051C93.4193 33.5684 93.5104 33.4316 93.6016 33.2949C93.7155 33.0671 93.8294 32.7822 93.9434 32.4404C93.9889 32.2809 94.0345 32.1328 94.0801 31.9961C94.1484 31.8366 94.2168 31.6771 94.2852 31.5176C94.4219 31.153 94.5928 30.7884 94.7979 30.4238C95.0029 30.0592 95.2194 29.6947 95.4473 29.3301C95.6296 28.9655 95.7891 28.6921 95.9258 28.5098C96.0625 28.3275 96.3359 28.2135 96.7461 28.168C96.9512 28.1224 97.1562 28.1338 97.3613 28.2021C97.612 28.2705 97.8398 28.2591 98.0449 28.168C98.6374 27.8945 99.0475 27.7578 99.2754 27.7578C99.5033 27.7578 99.6628 27.6895 99.7539 27.5527C100.232 27.5755 100.597 27.735 100.848 28.0312C101.098 28.3047 101.372 28.5781 101.668 28.8516C101.395 30.1732 101.087 31.1872 100.745 31.8936C100.403 32.5999 100.027 33.3405 99.6172 34.1152C99.3893 34.4798 99.1615 34.89 98.9336 35.3457C98.7057 35.8014 98.5007 36.2116 98.3184 36.5762C98.0905 37.0775 97.8512 37.5218 97.6006 37.9092C97.3044 38.3649 97.0879 38.8092 96.9512 39.2422L96.6436 39.8916C96.5068 40.165 96.4043 40.3815 96.3359 40.541C96.2904 40.7005 96.2334 40.86 96.165 41.0195C96.1195 41.1562 96.0511 41.2816 95.96 41.3955C95.8688 41.5094 95.7891 41.6348 95.7207 41.7715C95.6523 41.8854 95.584 41.9993 95.5156 42.1133C95.3789 42.3867 95.2422 42.6602 95.1055 42.9336C94.9688 43.207 94.8548 43.5033 94.7637 43.8223C94.5358 44.3236 94.3991 44.654 94.3535 44.8135C94.3307 44.859 94.3079 44.916 94.2852 44.9844C94.2624 45.0299 94.2396 45.0755 94.2168 45.1211C94.1257 45.6224 93.9889 46.0326 93.8066 46.3516C93.6243 46.6706 93.6927 46.8984 94.0117 47.0352ZM107.957 35.8926C108.253 35.7331 108.618 35.3913 109.051 34.8672C109.484 34.3203 109.905 33.7962 110.315 33.2949C110.726 32.7708 111.033 32.4746 111.238 32.4062C111.375 32.1784 111.5 31.9847 111.614 31.8252C111.728 31.6657 111.899 31.5176 112.127 31.3809C112.492 30.7201 112.97 30.1618 113.562 29.7061C114.178 29.2275 114.747 28.7148 115.271 28.168C115.704 27.9857 116.137 27.7806 116.57 27.5527C117.026 27.3249 117.47 27.0628 117.903 26.7666C118.792 26.1742 119.783 25.8665 120.877 25.8438C121.378 26.0716 121.868 26.14 122.347 26.0488C122.802 25.9577 123.247 26.0716 123.68 26.3906C123.93 26.8236 124.135 27.0856 124.295 27.1768C124.454 27.2679 124.591 27.3932 124.705 27.5527C124.887 28.1224 125.024 28.4984 125.115 28.6807C125.229 28.863 125.298 29.0566 125.32 29.2617C125.343 29.6035 125.366 29.8997 125.389 30.1504C125.411 30.3783 125.434 30.5719 125.457 30.7314C125.48 31.0277 125.48 31.3125 125.457 31.5859C125.32 32.748 125.092 33.9102 124.773 35.0723C124.728 35.209 124.682 35.3457 124.637 35.4824C124.591 35.6191 124.546 35.7673 124.5 35.9268C124.409 36.223 124.295 36.485 124.158 36.7129C123.816 37.1458 123.577 37.499 123.44 37.7725C123.235 38.137 123.087 38.3763 122.996 38.4902C122.723 38.7637 122.461 39.0143 122.21 39.2422C121.982 39.4701 121.766 39.6751 121.561 39.8574C121.355 39.9714 121.15 40.0967 120.945 40.2334C120.74 40.3473 120.535 40.4727 120.33 40.6094C119.943 40.86 119.487 41.0423 118.963 41.1562L118.348 41.5322C118.143 41.6689 117.915 41.7487 117.664 41.7715C117.254 42.0677 116.798 42.307 116.297 42.4893C116.069 42.5804 115.83 42.6715 115.579 42.7627C115.351 42.8538 115.112 42.9564 114.861 43.0703C114.52 43.207 114.223 43.3665 113.973 43.5488C113.722 43.7311 113.403 43.9134 113.016 44.0957C112.811 44.1641 112.48 44.2438 112.024 44.335C111.591 44.4033 111.284 44.4831 111.102 44.5742C111.329 45.0299 111.421 45.5996 111.375 46.2832C111.352 46.9212 111.466 47.4909 111.717 47.9922C112.309 48.1289 112.959 48.2314 113.665 48.2998C114.371 48.3682 115.044 48.3568 115.682 48.2656C115.796 48.2428 115.91 48.2087 116.023 48.1631C116.16 48.1175 116.297 48.0719 116.434 48.0264C116.57 47.9808 116.707 47.9352 116.844 47.8896C116.98 47.8441 117.117 47.8099 117.254 47.7871C117.755 47.696 118.245 47.582 118.724 47.4453C119.202 47.3086 119.624 47.1263 119.988 46.8984C121.31 46.4427 122.586 45.8275 123.816 45.0527C125.047 44.278 126.118 43.4349 127.029 42.5234C127.576 42.1589 128.18 41.6576 128.841 41.0195C129.502 40.3815 130.014 39.7891 130.379 39.2422C131.062 38.513 131.666 37.9434 132.19 37.5332C132.715 37.123 133.204 36.9408 133.66 36.9863C134.025 36.9863 134.378 37.2028 134.72 37.6357C135.062 38.0687 135.027 38.5358 134.617 39.0371C134.184 39.3105 133.706 39.7207 133.182 40.2676C132.68 40.8145 132.156 41.2018 131.609 41.4297C131.222 41.6803 130.709 42.1816 130.071 42.9336C129.456 43.64 128.943 44.1868 128.533 44.5742C128.442 44.6654 128.34 44.7679 128.226 44.8818C128.112 44.9958 127.975 45.1097 127.815 45.2236C127.519 45.4515 127.28 45.6908 127.098 45.9414C126.391 46.5339 125.708 47.0352 125.047 47.4453C124.796 47.3542 124.591 47.3997 124.432 47.582C124.227 47.8327 124.044 48.015 123.885 48.1289C123.816 48.1745 123.748 48.2201 123.68 48.2656C123.611 48.3112 123.532 48.3568 123.44 48.4023C123.349 48.4479 123.27 48.4935 123.201 48.5391C123.133 48.5846 123.064 48.6302 122.996 48.6758C122.632 48.9948 122.233 49.3138 121.8 49.6328C121.367 49.9518 120.923 50.2253 120.467 50.4531C120.011 50.7266 119.555 50.9772 119.1 51.2051C118.644 51.4557 118.188 51.6722 117.732 51.8545C117.277 52.0368 116.821 52.2533 116.365 52.5039C115.932 52.7546 115.499 53.028 115.066 53.3242L114.314 53.4268C114.201 53.4495 114.087 53.4609 113.973 53.4609C113.859 53.4837 113.745 53.5065 113.631 53.5293C113.38 53.6204 113.141 53.666 112.913 53.666C112.685 53.666 112.4 53.6204 112.059 53.5293C110.555 53.1191 109.324 52.39 108.367 51.3418C108.23 51.2051 108.082 51.0798 107.923 50.9658C107.786 50.8291 107.638 50.7038 107.479 50.5898C107.114 50.3164 106.863 50.0658 106.727 49.8379C106.521 49.4961 106.316 48.9606 106.111 48.2314C105.883 47.5023 105.69 46.7617 105.53 46.0098C105.371 45.235 105.291 44.6426 105.291 44.2324C105.428 43.959 105.576 43.4919 105.735 42.8311C105.895 42.1475 106.032 41.4753 106.146 40.8145C106.259 40.1309 106.316 39.6523 106.316 39.3789C106.408 39.2878 106.59 38.9915 106.863 38.4902C107.114 37.9661 107.353 37.4421 107.581 36.918C107.832 36.3711 107.957 36.0293 107.957 35.8926ZM118.963 31.5176C118.644 31.9277 118.325 32.3151 118.006 32.6797C117.687 33.0443 117.322 33.3861 116.912 33.7051C116.639 34.2064 116.32 34.6621 115.955 35.0723C115.59 35.4824 115.226 35.8698 114.861 36.2344C114.679 36.599 114.474 36.8838 114.246 37.0889C114.018 37.2939 113.768 37.5104 113.494 37.7383C113.198 38.2396 112.833 38.7181 112.4 39.1738C111.967 39.6296 111.876 40.1536 112.127 40.7461C112.628 40.8372 113.13 40.7689 113.631 40.541C114.132 40.3132 114.565 40.1081 114.93 39.9258C115.112 39.8118 115.294 39.7093 115.477 39.6182C115.682 39.527 115.875 39.4359 116.058 39.3447C116.24 39.2536 116.422 39.1624 116.604 39.0713C116.787 38.9801 116.958 38.8776 117.117 38.7637L118.895 36.9863C119.168 36.7357 119.441 36.4395 119.715 36.0977C119.829 35.9382 119.943 35.7786 120.057 35.6191C120.193 35.4368 120.33 35.2546 120.467 35.0723C120.581 34.571 120.763 34.1038 121.014 33.6709C121.287 33.2152 121.401 32.748 121.355 32.2695C121.333 32.0645 121.253 31.8252 121.116 31.5518C120.979 31.2783 120.9 31.0618 120.877 30.9023C120.398 30.9023 120.045 30.9821 119.817 31.1416C119.703 31.2327 119.567 31.3125 119.407 31.3809C119.271 31.4264 119.122 31.472 118.963 31.5176ZM134.686 46.1465C135.278 45.8958 135.825 45.5768 136.326 45.1895C136.691 44.6882 137.078 44.2096 137.488 43.7539C137.898 43.2982 138.331 42.8424 138.787 42.3867C138.924 42.25 139.061 42.1133 139.197 41.9766C139.334 41.8398 139.459 41.7031 139.573 41.5664C139.687 41.4297 139.812 41.293 139.949 41.1562C140.109 40.9967 140.268 40.8372 140.428 40.6777C140.542 40.5638 140.633 40.484 140.701 40.4385C140.77 40.3929 140.861 40.2904 140.975 40.1309C141.225 39.8118 141.43 39.5042 141.59 39.208C141.749 38.9346 141.977 38.627 142.273 38.2852C142.57 38.1257 142.866 37.875 143.162 37.5332C143.299 37.3737 143.436 37.2256 143.572 37.0889C143.709 36.9294 143.846 36.7812 143.982 36.6445L144.29 36.3711C144.336 36.3255 144.381 36.2799 144.427 36.2344C144.495 36.1888 144.552 36.1432 144.598 36.0977C144.734 35.9609 144.837 35.8014 144.905 35.6191C144.951 35.528 144.985 35.4368 145.008 35.3457C145.053 35.2546 145.099 35.1634 145.145 35.0723C145.555 34.3887 145.919 33.819 146.238 33.3633C147.241 32.8164 148.266 32.3379 149.314 31.9277C150.363 31.5176 151.365 31.3353 152.322 31.3809C152.368 31.4264 152.505 31.5176 152.732 31.6543C152.915 31.7682 153.051 31.9277 153.143 32.1328C153.37 32.4974 153.416 32.9303 153.279 33.4316C153.143 33.9329 152.915 34.2975 152.596 34.5254C152.231 35.5736 151.98 36.7585 151.844 38.0801C151.707 39.4017 151.661 40.6549 151.707 41.8398C151.593 41.9766 151.559 42.1702 151.604 42.4209C151.627 42.6488 151.57 42.8197 151.434 42.9336C151.616 43.2982 151.844 43.6628 152.117 44.0273C152.391 44.3919 152.778 44.5742 153.279 44.5742C153.826 44.4375 154.168 44.3691 154.305 44.3691C154.396 44.3691 154.51 44.3464 154.646 44.3008C154.874 44.1641 155.022 44.0615 155.091 43.9932C155.228 43.8564 155.353 43.7767 155.467 43.7539C155.604 43.526 155.695 43.3893 155.74 43.3438C155.786 43.2982 155.877 43.1842 156.014 43.002C156.515 42.3867 156.959 41.7943 157.347 41.2246L158.611 39.3789C158.748 39.151 158.873 38.946 158.987 38.7637C159.124 38.5586 159.238 38.3763 159.329 38.2168C159.443 38.0573 159.546 37.8636 159.637 37.6357C159.751 37.4079 159.865 37.1458 159.979 36.8496L160.286 36.1318C160.354 35.9723 160.457 35.7103 160.594 35.3457C160.708 35.0723 160.708 34.6963 160.594 34.2178C160.503 33.7393 160.503 33.3861 160.594 33.1582C160.822 32.862 160.936 32.5885 160.936 32.3379C161.255 31.8138 161.414 31.5176 161.414 31.4492C161.414 31.4036 161.437 31.3125 161.482 31.1758C161.574 31.0846 161.665 30.9821 161.756 30.8682C161.847 30.7542 161.893 30.6061 161.893 30.4238C162.645 29.6719 163.579 29.0794 164.695 28.6465C165.47 28.5098 166.188 28.3161 166.849 28.0654C167.464 27.8376 167.954 27.9173 168.318 28.3047C168.204 28.4414 168.227 28.5667 168.387 28.6807C168.523 28.7718 168.592 28.8971 168.592 29.0566C168.637 29.3073 168.626 29.4896 168.558 29.6035C168.489 29.7402 168.455 29.877 168.455 30.0137C168.182 30.515 168.022 30.7656 167.977 30.7656C167.931 30.7656 167.885 30.7884 167.84 30.834C167.771 30.9479 167.692 31.1644 167.601 31.4834C167.578 31.5973 167.544 31.7227 167.498 31.8594C167.452 31.9961 167.407 32.1328 167.361 32.2695C167.225 32.6341 167.065 33.0329 166.883 33.4658C166.701 33.8988 166.473 34.3203 166.199 34.7305C165.971 35.2773 165.937 35.6305 166.097 35.79C166.256 35.9495 166.336 36.1432 166.336 36.3711C166.473 36.485 166.621 36.5534 166.78 36.5762C166.94 36.599 167.088 36.6673 167.225 36.7812C167.407 36.918 167.532 37.0319 167.601 37.123C167.692 37.237 167.863 37.3509 168.113 37.4648C168.318 37.5104 168.512 37.5218 168.694 37.499C168.854 37.4762 169.116 37.4876 169.48 37.5332C169.845 37.5788 170.084 37.5788 170.198 37.5332C170.312 37.4876 170.483 37.3737 170.711 37.1914C171.235 36.918 171.543 36.7129 171.634 36.5762C171.702 36.485 171.805 36.3711 171.941 36.2344C172.146 36.1432 172.363 36.0977 172.591 36.0977C172.819 36.0977 173.012 36.0521 173.172 35.9609C173.673 35.7786 174.231 35.5508 174.847 35.2773C175.462 35.0039 176.02 34.7305 176.521 34.457C176.749 34.3659 176.966 34.2747 177.171 34.1836C177.376 34.0924 177.524 33.9329 177.615 33.7051C177.798 33.6595 177.923 33.6253 177.991 33.6025C178.037 33.5798 178.185 33.5684 178.436 33.5684C178.549 33.8418 178.663 34.0469 178.777 34.1836C178.914 34.3659 178.846 34.5938 178.572 34.8672C178.048 35.3913 177.444 35.847 176.761 36.2344C176.1 36.6217 175.496 37.1003 174.949 37.6699C174.676 37.7839 174.414 37.9092 174.163 38.0459C173.912 38.1598 173.673 38.2965 173.445 38.4561C173.012 38.7523 172.465 38.9915 171.805 39.1738C171.463 39.3789 171.167 39.5612 170.916 39.7207C170.665 39.8574 170.46 39.9827 170.301 40.0967C169.982 40.3245 169.708 40.4499 169.48 40.4727C169.07 40.4727 168.672 40.484 168.284 40.5068C167.92 40.5068 167.566 40.5182 167.225 40.541C166.974 40.5866 166.78 40.5638 166.644 40.4727C166.552 40.4271 166.336 40.3359 165.994 40.1992C165.379 40.0397 164.923 39.8118 164.627 39.5156C164.49 39.3789 164.354 39.2536 164.217 39.1396C164.08 39.0029 163.943 38.8776 163.807 38.7637C163.647 39.0143 163.488 39.2764 163.328 39.5498C163.191 39.8232 163.066 40.1081 162.952 40.4043C162.701 40.9967 162.394 41.498 162.029 41.9082C161.87 42.4095 161.688 42.7969 161.482 43.0703C161.255 43.3665 161.049 43.7767 160.867 44.3008C160.639 44.5514 160.423 44.8135 160.218 45.0869C160.035 45.3604 159.865 45.6566 159.705 45.9756C159.386 46.6136 158.976 47.1491 158.475 47.582C157.449 48.8809 156.105 49.9974 154.441 50.9316C154.145 50.8405 153.826 50.8861 153.484 51.0684C153.165 51.2507 152.892 51.2734 152.664 51.1367C151.707 51.3646 151.08 51.2962 150.784 50.9316C150.488 50.5671 150.18 50.3164 149.861 50.1797C149.451 49.5189 149.212 48.9492 149.144 48.4707C149.075 47.9922 148.973 47.4909 148.836 46.9668C148.745 46.6934 148.642 46.4541 148.528 46.249C148.437 46.0439 148.403 45.8275 148.426 45.5996C148.266 44.916 148.118 44.4261 147.981 44.1299C147.89 43.9476 147.811 43.7425 147.742 43.5146C147.697 43.2868 147.651 43.0475 147.605 42.7969C147.583 42.5918 147.56 42.3867 147.537 42.1816C147.537 41.9766 147.549 41.7715 147.571 41.5664C147.594 41.179 147.537 40.7461 147.4 40.2676C146.58 40.4043 146.067 40.6891 145.862 41.1221C145.657 41.555 145.372 41.8854 145.008 42.1133C144.848 42.5918 144.598 42.9678 144.256 43.2412C143.96 43.4691 143.686 43.8451 143.436 44.3691C142.934 44.6426 142.49 45.0072 142.103 45.4629C141.692 45.9414 141.248 46.3743 140.77 46.7617C140.359 47.0124 140.052 47.2402 139.847 47.4453C139.664 47.6276 139.471 47.7643 139.266 47.8555C139.129 48.0833 138.947 48.2998 138.719 48.5049C138.559 48.6416 138.331 48.8581 138.035 49.1543C137.739 49.4505 137.534 49.667 137.42 49.8037C137.215 50.0316 137.01 50.2253 136.805 50.3848C136.622 50.6126 136.451 50.7835 136.292 50.8975C136.132 51.0114 135.984 51.1139 135.848 51.2051C135.665 51.3418 135.529 51.4671 135.438 51.5811C135.301 51.7633 135.187 51.8659 135.096 51.8887C134.777 52.0938 134.492 52.2646 134.241 52.4014C133.991 52.5609 133.774 52.6976 133.592 52.8115C133.227 53.0166 132.908 53.0508 132.635 52.9141C132.27 53.0052 131.928 52.9482 131.609 52.7432C131.29 52.5381 130.994 52.3444 130.721 52.1621C130.607 52.0026 130.493 51.8431 130.379 51.6836C130.265 51.5469 130.151 51.4102 130.037 51.2734C129.832 51.0228 129.673 50.7038 129.559 50.3164C129.285 49.9518 129.035 49.5303 128.807 49.0518C128.579 48.5732 128.374 48.0833 128.191 47.582C128.169 46.6478 128.1 45.9642 127.986 45.5312C127.895 45.1439 127.872 44.6882 127.918 44.1641C127.941 43.64 128.112 43.1501 128.431 42.6943C128.75 42.2386 128.989 41.7943 129.148 41.3613C129.126 40.974 129.194 40.7005 129.354 40.541C129.536 40.3587 129.604 40.1309 129.559 39.8574C129.946 38.8092 130.379 37.9775 130.857 37.3623C131.313 36.7699 131.655 36.0977 131.883 35.3457C132.111 34.571 132.396 33.8988 132.737 33.3291C133.056 32.7822 133.341 32.1328 133.592 31.3809C133.797 30.9935 133.945 30.6517 134.036 30.3555C134.127 30.0137 134.298 29.6491 134.549 29.2617C134.731 29.0794 134.856 28.9427 134.925 28.8516C134.993 28.7604 135.118 28.6465 135.301 28.5098C135.688 28.3958 136.007 28.2363 136.258 28.0312C136.508 27.8262 136.827 27.6667 137.215 27.5527C137.488 27.4616 137.75 27.416 138.001 27.416C138.206 27.416 138.423 27.3477 138.65 27.2109C139.22 26.8464 139.619 26.6413 139.847 26.5957C140.029 26.5729 140.245 26.5046 140.496 26.3906C140.815 26.6641 141.066 26.9489 141.248 27.2451C141.43 27.5413 141.476 27.9173 141.385 28.373C141.089 28.6693 140.929 28.8857 140.906 29.0225C140.883 29.182 140.815 29.3301 140.701 29.4668C140.587 29.6491 140.451 29.8086 140.291 29.9453C140.132 30.082 139.995 30.2415 139.881 30.4238C139.835 30.515 139.79 30.6061 139.744 30.6973C139.721 30.7656 139.687 30.834 139.642 30.9023C139.55 31.0846 139.471 31.2214 139.402 31.3125L139.095 31.5859C138.958 31.7227 138.855 31.8366 138.787 31.9277C138.673 32.0417 138.605 32.1556 138.582 32.2695C138.559 32.4062 138.491 32.543 138.377 32.6797C138.24 32.8848 138.024 33.0898 137.728 33.2949C137.522 33.4544 137.352 33.6367 137.215 33.8418C137.146 34.0469 137.067 34.3773 136.976 34.833C136.953 35.0153 136.919 35.209 136.873 35.4141C136.827 35.5964 136.782 35.7786 136.736 35.9609C136.577 36.4622 136.326 37.0433 135.984 37.7041C135.597 38.4561 135.324 39.0599 135.164 39.5156C135.118 39.7207 135.073 39.9258 135.027 40.1309C135.005 40.3359 134.97 40.5296 134.925 40.7119C134.902 40.8942 134.868 41.0879 134.822 41.293C134.777 41.4753 134.731 41.6576 134.686 41.8398C134.64 42.0221 134.572 42.1816 134.48 42.3184C134.389 42.4551 134.321 42.5918 134.275 42.7285C134.048 43.3665 133.922 44.0501 133.899 44.7793C133.877 45.5085 134.139 45.9642 134.686 46.1465ZM177.205 42.3184C177.433 42.2956 177.615 42.193 177.752 42.0107C177.843 41.8968 178.003 41.7487 178.23 41.5664C178.299 41.5208 178.367 41.4753 178.436 41.4297C178.504 41.3841 178.584 41.3385 178.675 41.293C178.766 41.2474 178.846 41.2018 178.914 41.1562C178.982 41.1107 179.051 41.0651 179.119 41.0195C179.712 40.5866 180.224 40.1309 180.657 39.6523C181.09 39.1966 181.58 38.7637 182.127 38.3535C182.423 38.0117 182.719 37.6927 183.016 37.3965C183.335 37.0775 183.642 36.7699 183.938 36.4736C184.508 35.9268 185.066 35.2773 185.613 34.5254C186.342 33.9785 187.026 33.3861 187.664 32.748C188.097 32.4746 188.45 32.2126 188.724 31.9619C188.997 31.7113 189.373 31.4492 189.852 31.1758C190.079 30.9023 190.33 30.6061 190.604 30.2871C190.877 29.9681 191.196 29.6947 191.561 29.4668C191.948 29.0794 192.347 28.806 192.757 28.6465C193.167 28.487 193.566 28.2135 193.953 27.8262C194.637 27.4616 195.252 27.4046 195.799 27.6553C196.346 27.9059 196.779 28.2135 197.098 28.5781C197.257 28.9883 197.531 29.4212 197.918 29.877C197.964 29.9453 198.009 30.0137 198.055 30.082C198.1 30.1504 198.146 30.2074 198.191 30.2529C198.283 30.3441 198.328 30.515 198.328 30.7656C198.328 31.2897 198.26 31.8138 198.123 32.3379C198.055 32.5885 197.986 32.8392 197.918 33.0898C197.872 33.3405 197.827 33.5911 197.781 33.8418C197.736 34.1608 197.701 34.4798 197.679 34.7988C197.656 35.0951 197.633 35.4027 197.61 35.7217C197.588 36.3141 197.485 36.9408 197.303 37.6016C197.553 37.9661 197.77 38.3535 197.952 38.7637C198.134 39.1966 198.351 39.5384 198.602 39.7891C198.761 39.7663 198.966 39.584 199.217 39.2422C199.331 39.151 199.445 39.0713 199.559 39.0029C199.695 38.9118 199.843 38.8206 200.003 38.7295C200.322 38.5472 200.584 38.3535 200.789 38.1484C200.971 37.9661 201.142 37.7952 201.302 37.6357C201.461 37.4762 201.621 37.3281 201.78 37.1914C202.122 36.8952 202.43 36.5762 202.703 36.2344C202.863 36.0749 203.022 35.9268 203.182 35.79C203.341 35.6305 203.501 35.4824 203.66 35.3457C203.82 35.209 203.979 35.0723 204.139 34.9355C204.321 34.776 204.503 34.6165 204.686 34.457C204.868 34.2747 205.039 34.0924 205.198 33.9102C205.358 33.7051 205.517 33.5114 205.677 33.3291C205.836 33.1468 205.996 32.9645 206.155 32.7822C206.315 32.5771 206.486 32.3835 206.668 32.2012C206.827 31.9961 206.976 31.8708 207.112 31.8252C207.272 31.7568 207.397 31.6087 207.488 31.3809C207.83 31.2214 208.138 30.9707 208.411 30.6289C208.662 30.3099 209.015 30.082 209.471 29.9453C209.926 29.8997 210.223 29.8997 210.359 29.9453C210.496 29.9909 210.701 30.1504 210.975 30.4238C211.202 30.5833 211.373 30.8112 211.487 31.1074C211.601 31.4036 211.772 31.6315 212 31.791C212.41 32.6113 212.729 33.1126 212.957 33.2949C213.117 33.6595 213.151 34.0241 213.06 34.3887L212.752 35.4824C212.729 35.7559 212.706 35.9837 212.684 36.166C212.661 36.3255 212.638 36.4508 212.615 36.542C212.592 36.6331 212.57 36.7243 212.547 36.8154C212.524 36.9066 212.501 37.0091 212.479 37.123C212.205 38.7181 211.795 40.2676 211.248 41.7715C211.271 42.0905 211.362 42.4209 211.521 42.7627C211.658 43.0361 211.704 43.4349 211.658 43.959C211.932 44.0046 212.194 44.0046 212.444 43.959C212.695 43.9134 212.911 43.8678 213.094 43.8223C214.051 43.4349 214.962 42.9336 215.828 42.3184C216.421 41.8626 217.036 41.4183 217.674 40.9854C218.335 40.5296 218.95 40.0853 219.52 39.6523C219.725 39.4928 219.907 39.3219 220.066 39.1396C220.226 38.9574 220.408 38.7865 220.613 38.627C221.069 38.2624 221.513 37.9661 221.946 37.7383C222.379 37.5104 222.824 37.2826 223.279 37.0547C223.507 36.918 223.689 36.7812 223.826 36.6445C223.963 36.5078 224.122 36.3483 224.305 36.166C224.533 35.9382 224.852 35.6989 225.262 35.4482C225.672 35.1976 226.059 34.9811 226.424 34.7988C227.062 34.776 227.392 34.8786 227.415 35.1064L227.518 35.7559C226.925 36.166 226.367 36.5876 225.843 37.0205C225.319 37.4535 224.783 37.8978 224.236 38.3535C224.1 38.4447 223.974 38.5244 223.86 38.5928C223.746 38.6611 223.576 38.7409 223.348 38.832C223.165 38.9688 223.04 39.0941 222.972 39.208C222.903 39.3219 222.755 39.4473 222.527 39.584C222.391 39.6979 222.254 39.8118 222.117 39.9258C221.98 40.0169 221.844 40.1195 221.707 40.2334C221.434 40.4385 221.183 40.6549 220.955 40.8828C220.636 41.1107 220.34 41.3385 220.066 41.5664C219.793 41.7943 219.542 42.0221 219.314 42.25C219.064 42.5007 218.859 42.7513 218.699 43.002C218.562 43.2298 218.335 43.4805 218.016 43.7539C217.788 43.8451 217.594 43.959 217.435 44.0957L216.922 44.5059C216.831 44.7793 216.762 45.0186 216.717 45.2236C216.694 45.4059 216.557 45.6224 216.307 45.873C215.942 46.1921 215.726 46.4085 215.657 46.5225C215.589 46.6364 215.486 46.7617 215.35 46.8984C215.258 46.9668 215.099 47.0465 214.871 47.1377C214.78 47.1605 214.689 47.1947 214.598 47.2402C214.507 47.2858 214.415 47.3314 214.324 47.377C214.119 47.4909 213.914 47.6504 213.709 47.8555C213.618 47.9466 213.515 48.0378 213.401 48.1289C213.31 48.2201 213.208 48.3112 213.094 48.4023C212.911 48.5163 212.741 48.6188 212.581 48.71C212.422 48.8011 212.285 48.8923 212.171 48.9834C211.989 49.1201 211.658 49.2454 211.18 49.3594C210.701 49.6784 210.359 49.8265 210.154 49.8037C210.018 49.7809 209.79 49.7923 209.471 49.8379C209.357 49.8835 209.254 49.8379 209.163 49.7012C209.072 49.5645 208.947 49.4961 208.787 49.4961C208.491 49.2227 208.263 49.1087 208.104 49.1543C207.921 49.1999 207.762 49.1771 207.625 49.0859C207.169 48.5618 206.941 48.1745 206.941 47.9238C206.941 47.7871 206.93 47.6504 206.907 47.5137C206.907 47.3542 206.896 47.1947 206.873 47.0352C206.782 46.3516 206.691 45.6566 206.6 44.9502C206.508 44.2438 206.44 43.5033 206.395 42.7285C206.395 42.4095 206.429 42.1133 206.497 41.8398C206.588 41.498 206.645 41.2018 206.668 40.9512C206.668 40.8372 206.645 40.6663 206.6 40.4385C206.554 40.2106 206.531 40.0625 206.531 39.9941C206.577 39.6068 206.645 39.265 206.736 38.9688C206.827 38.6953 206.85 38.3763 206.805 38.0117C206.508 38.3535 206.246 38.6497 206.019 38.9004C205.791 39.1283 205.597 39.3219 205.438 39.4814C205.278 39.641 205.118 39.8005 204.959 39.96C204.822 40.1195 204.686 40.2904 204.549 40.4727C203.842 40.8828 203.25 41.2816 202.771 41.6689C202.27 42.0791 201.655 42.4095 200.926 42.6602C200.607 42.9792 200.288 43.2868 199.969 43.583C199.673 43.8564 199.376 44.1185 199.08 44.3691C198.784 44.6198 198.476 44.8932 198.157 45.1895C197.861 45.4629 197.553 45.7591 197.234 46.0781C196.482 47.0579 195.662 47.7871 194.773 48.2656C194.454 48.3568 194.204 48.4137 194.021 48.4365C193.839 48.4593 193.657 48.4023 193.475 48.2656C192.518 47.7188 191.948 47.0124 191.766 46.1465C191.583 45.2806 191.606 44.3236 191.834 43.2754C191.629 42.8424 191.652 42.2272 191.902 41.4297C192.176 40.6094 192.221 40.0169 192.039 39.6523C192.107 39.3105 192.187 38.9688 192.278 38.627C192.369 38.2624 192.472 37.8978 192.586 37.5332C192.7 37.1686 192.791 36.8154 192.859 36.4736C192.951 36.109 193.019 35.7559 193.064 35.4141C193.292 35.0951 193.326 34.8444 193.167 34.6621C193.007 34.4798 192.859 34.3203 192.723 34.1836C191.948 34.6393 191.207 35.1748 190.501 35.79C189.795 36.4053 189.077 37.0319 188.348 37.6699C188.165 37.8294 187.983 37.9889 187.801 38.1484C187.641 38.2852 187.47 38.4333 187.288 38.5928C187.129 38.7523 186.958 38.9118 186.775 39.0713C186.593 39.208 186.411 39.3561 186.229 39.5156L185.135 40.4385C184.747 40.7575 184.428 41.0879 184.178 41.4297C183.882 41.8398 183.642 42.1133 183.46 42.25L183.016 42.5918C182.811 42.7057 182.628 42.8424 182.469 43.002C182.378 43.0931 182.241 43.207 182.059 43.3438C181.922 43.4577 181.74 43.5602 181.512 43.6514L180.896 43.8906C180.623 44.0729 180.338 44.3122 180.042 44.6084C179.746 44.9046 179.484 45.1667 179.256 45.3945C179.074 45.5768 178.868 45.7591 178.641 45.9414C178.39 46.1465 178.208 46.3288 178.094 46.4883C177.82 46.8757 177.49 47.2858 177.103 47.7188C176.943 47.901 176.772 48.0947 176.59 48.2998C176.43 48.4821 176.271 48.6758 176.111 48.8809C176.089 49.0859 175.963 49.3024 175.735 49.5303L175.086 50.1797C174.995 50.2708 174.904 50.3734 174.812 50.4873C174.721 50.5785 174.619 50.681 174.505 50.7949C174.323 51 174.106 51.1595 173.855 51.2734L173.377 51.376C173.126 51.4215 172.944 51.4785 172.83 51.5469C172.693 51.5924 172.557 51.638 172.42 51.6836C172.26 51.752 172.101 51.8203 171.941 51.8887C171.645 52.0254 171.303 52.071 170.916 52.0254L170.096 51.9229C169.891 51.9001 169.663 51.7975 169.412 51.6152C169.412 51.2507 169.298 51 169.07 50.8633C169.184 50.248 169.332 49.7012 169.515 49.2227C169.697 48.7214 169.845 48.1973 169.959 47.6504C170.301 47.1719 170.563 46.6592 170.745 46.1123C170.927 45.5654 171.167 45.0072 171.463 44.4375C171.668 43.8678 171.907 43.2754 172.181 42.6602L172.898 41.0195C172.99 40.7461 173.069 40.484 173.138 40.2334C173.229 39.9827 173.309 39.7435 173.377 39.5156C173.514 39.0371 173.696 38.627 173.924 38.2852C174.22 37.8066 174.38 37.4648 174.402 37.2598C174.904 36.6673 175.154 36.0521 175.154 35.4141C175.405 35.1406 175.587 34.7533 175.701 34.252C175.815 33.7734 175.952 33.3405 176.111 32.9531C176.202 32.7708 176.282 32.6113 176.351 32.4746C176.419 32.3379 176.476 32.1556 176.521 31.9277C176.567 31.6315 176.578 31.415 176.556 31.2783C176.533 31.096 176.59 30.8796 176.727 30.6289C176.818 30.515 176.909 30.4124 177 30.3213C177.091 30.2301 177.182 30.139 177.273 30.0479C177.365 29.9567 177.456 29.8656 177.547 29.7744C177.638 29.6833 177.729 29.5807 177.82 29.4668C178.025 29.444 178.185 29.3301 178.299 29.125C178.413 28.9427 178.549 28.806 178.709 28.7148C179.21 28.5553 179.495 28.4414 179.563 28.373C179.655 28.2819 179.712 28.2363 179.734 28.2363L180.76 27.7236C180.828 27.6781 180.896 27.6439 180.965 27.6211C181.056 27.5755 181.147 27.5299 181.238 27.4844C181.329 27.4388 181.409 27.4046 181.478 27.3818C181.546 27.359 181.603 27.3363 181.648 27.3135C181.694 27.2907 181.751 27.2679 181.819 27.2451C181.888 27.2223 181.967 27.1882 182.059 27.1426C182.173 27.0286 182.355 26.8919 182.605 26.7324C182.856 26.5729 183.038 26.4362 183.152 26.3223C183.608 26.5046 183.995 26.7894 184.314 27.1768C184.633 27.5641 184.725 28.0768 184.588 28.7148C184.542 28.9427 184.474 29.1592 184.383 29.3643C184.292 29.5693 184.201 29.763 184.109 29.9453C184.041 30.1048 183.984 30.3213 183.938 30.5947C183.893 30.8682 183.836 31.0618 183.768 31.1758C183.449 31.7454 183.243 32.167 183.152 32.4404C183.038 32.7822 182.924 33.0671 182.811 33.2949C182.628 33.5911 182.469 33.8874 182.332 34.1836C182.195 34.5482 182.07 34.8444 181.956 35.0723C181.842 35.3001 181.671 35.528 181.443 35.7559C181.261 35.9837 181.124 36.1432 181.033 36.2344C180.874 36.3939 180.737 36.5762 180.623 36.7812C180.464 36.9863 180.304 37.2028 180.145 37.4307C179.985 37.6585 179.826 37.8978 179.666 38.1484C179.37 38.627 179.028 39.0827 178.641 39.5156L177.923 40.8828C177.695 41.3158 177.456 41.7943 177.205 42.3184ZM254.451 31.2441C254.679 31.2669 254.827 31.3581 254.896 31.5176C254.964 31.6543 255.089 31.7227 255.271 31.7227C255.363 32.1556 255.271 32.4632 254.998 32.6455C254.725 32.805 254.633 33.0671 254.725 33.4316C254.314 33.7051 253.813 33.876 253.221 33.9443C252.605 34.0127 252.15 34.252 251.854 34.6621C251.056 35.0495 250.224 35.2887 249.358 35.3799C248.925 35.4255 248.47 35.4938 247.991 35.585C247.535 35.6533 247.068 35.7331 246.59 35.8242C246.089 36.166 245.781 36.3483 245.667 36.3711C245.507 36.3939 245.337 36.4622 245.154 36.5762C244.676 36.3939 244.197 36.3027 243.719 36.3027C243.24 36.3027 242.739 36.2344 242.215 36.0977C241.964 36.1888 241.702 36.2344 241.429 36.2344C241.155 36.2344 240.893 36.2799 240.643 36.3711C240.46 36.7812 240.369 37.1914 240.369 37.6016C240.369 38.0345 240.301 38.4447 240.164 38.832L239.754 39.6523L239.651 40.3018C239.606 40.5752 239.549 40.7917 239.48 40.9512C239.389 41.0879 239.287 41.2474 239.173 41.4297C239.059 41.612 239.002 41.8171 239.002 42.0449C238.683 42.4551 238.455 42.8766 238.318 43.3096C238.182 43.8109 237.931 44.2096 237.566 44.5059C237.43 44.9844 237.213 45.349 236.917 45.5996C236.621 45.873 236.336 46.1921 236.062 46.5566C235.561 47.2402 235.117 47.8327 234.729 48.334C234.342 48.8353 233.829 49.2682 233.191 49.6328C232.964 49.9974 232.69 50.248 232.371 50.3848C232.143 50.6126 231.961 50.8405 231.824 51.0684L230.457 51.8887C229.91 52.2305 229.386 52.4583 228.885 52.5723C228.11 52.7546 227.358 52.7318 226.629 52.5039C225.9 52.276 225.216 51.957 224.578 51.5469C224.145 51.5924 223.815 51.5127 223.587 51.3076C223.359 51.1253 223.051 50.9772 222.664 50.8633C222.163 50.4076 221.616 49.9974 221.023 49.6328C220.408 49.2454 219.975 48.7441 219.725 48.1289L219.417 46.625C219.326 46.1693 219.223 45.7135 219.109 45.2578C219.018 44.8704 219.007 44.4375 219.075 43.959C219.144 43.5488 219.155 43.0931 219.109 42.5918C219.109 42.3411 219.109 42.1133 219.109 41.9082C219.109 41.6803 219.098 41.4867 219.075 41.3271C219.052 40.9854 219.155 40.5638 219.383 40.0625C219.52 39.7663 219.633 39.4928 219.725 39.2422C219.816 38.9915 219.884 38.7751 219.93 38.5928C219.975 38.4105 220.021 38.2396 220.066 38.0801C220.112 37.8978 220.158 37.7383 220.203 37.6016C220.271 37.4876 220.34 37.3737 220.408 37.2598C220.477 37.123 220.545 36.9863 220.613 36.8496C220.682 36.7129 220.75 36.5876 220.818 36.4736C220.91 36.3369 221.001 36.2116 221.092 36.0977C221.365 35.6875 221.684 35.2773 222.049 34.8672C222.413 34.457 222.778 34.0697 223.143 33.7051C223.393 33.3633 223.644 33.0671 223.895 32.8164C224.305 32.4062 224.692 32.0645 225.057 31.791C225.421 31.5176 225.831 31.153 226.287 30.6973C226.378 30.5605 226.492 30.4466 226.629 30.3555L227.039 30.082C227.495 29.8086 227.916 29.5807 228.304 29.3984C228.691 29.2161 229.135 29.0111 229.637 28.7832C230.07 28.5781 230.423 28.4528 230.696 28.4072C230.879 28.3617 231.061 28.3275 231.243 28.3047C231.448 28.2591 231.665 28.2135 231.893 28.168H232.713C232.964 28.168 233.191 28.1224 233.396 28.0312C233.26 27.6667 233.419 27.416 233.875 27.2793C234.331 27.1426 234.673 27.097 234.9 27.1426C235.356 27.1426 235.721 27.2451 235.994 27.4502C236.268 27.6553 236.518 27.8945 236.746 28.168C237.202 28.487 237.703 28.9655 238.25 29.6035C238.364 29.7174 238.478 29.7858 238.592 29.8086C238.706 29.8314 238.82 29.8997 238.934 30.0137C239.116 30.2871 239.241 30.5378 239.31 30.7656C239.378 31.0391 239.526 31.2897 239.754 31.5176C239.891 31.6087 240.027 31.7227 240.164 31.8594C240.301 31.9961 240.392 32.1784 240.438 32.4062C240.916 32.5885 241.349 32.7253 241.736 32.8164C241.941 32.9076 242.181 32.9303 242.454 32.8848C242.705 32.8392 242.99 32.8392 243.309 32.8848C243.514 32.9076 243.719 32.9645 243.924 33.0557C244.106 33.124 244.311 33.1582 244.539 33.1582C244.881 33.1354 245.257 33.0443 245.667 32.8848C246.054 32.748 246.499 32.7253 247 32.8164C247.684 32.9759 248.401 32.9076 249.153 32.6113C249.905 32.2923 250.669 32.0872 251.443 31.9961C251.671 31.9961 251.831 31.9847 251.922 31.9619C252.013 31.9391 252.173 31.9277 252.4 31.9277C252.628 31.7454 252.924 31.6087 253.289 31.5176C253.654 31.4264 254.041 31.3353 254.451 31.2441ZM234.9 33.2949C234.445 32.8848 234.183 32.6227 234.114 32.5088C234.023 32.3721 233.943 32.2923 233.875 32.2695C233.67 32.0645 233.442 31.9505 233.191 31.9277C233.055 31.9049 232.918 31.8822 232.781 31.8594C232.667 31.8366 232.553 31.8138 232.439 31.791C231.71 31.6543 231.106 31.734 230.628 32.0303C230.4 32.1898 230.161 32.3379 229.91 32.4746C229.682 32.6113 229.454 32.748 229.227 32.8848C228.497 33.3405 227.859 33.9102 227.312 34.5938C227.176 34.8216 227.028 35.0723 226.868 35.3457C226.709 35.6191 226.583 35.9154 226.492 36.2344C226.31 36.599 226.15 36.9294 226.014 37.2256C225.877 37.5218 225.763 37.875 225.672 38.2852C225.444 38.7181 225.307 39.0941 225.262 39.4131C225.239 39.5726 225.216 39.7207 225.193 39.8574C225.171 39.9714 225.148 40.0853 225.125 40.1992C225.102 40.4271 225.068 40.6663 225.022 40.917C224.977 41.1449 224.931 41.3841 224.886 41.6348C224.772 42.2044 224.715 42.6374 224.715 42.9336C224.76 43.0703 224.829 43.2526 224.92 43.4805C225.011 43.7083 225.102 43.8678 225.193 43.959C225.285 44.1868 225.387 44.4375 225.501 44.7109C225.615 44.9844 225.717 45.1895 225.809 45.3262C226.059 45.6452 226.355 45.8503 226.697 45.9414C226.88 45.987 227.073 46.0439 227.278 46.1123C227.483 46.1579 227.7 46.2148 227.928 46.2832C228.429 46.5566 228.771 46.6706 228.953 46.625C229.181 46.5794 229.318 46.5566 229.363 46.5566C229.979 46.4427 230.503 46.1921 230.936 45.8047C231.323 45.4401 231.779 45.1211 232.303 44.8477C232.485 44.5742 232.667 44.2894 232.85 43.9932C233.055 43.6969 233.271 43.4007 233.499 43.1045C233.727 42.7855 233.932 42.4779 234.114 42.1816C234.319 41.8626 234.513 41.5436 234.695 41.2246C234.809 41.0879 234.923 40.8828 235.037 40.6094C235.083 40.4954 235.128 40.3929 235.174 40.3018C235.219 40.1878 235.265 40.0853 235.311 39.9941C235.63 39.6068 235.778 39.4017 235.755 39.3789C235.732 39.3561 235.743 39.2878 235.789 39.1738C236.085 38.4902 236.222 37.9661 236.199 37.6016C236.176 37.237 236.176 36.8724 236.199 36.5078C236.085 36.2572 235.983 35.9951 235.892 35.7217C235.8 35.4482 235.709 35.1634 235.618 34.8672C235.436 34.252 235.197 33.7279 234.9 33.2949ZM268.055 31.9961L267.986 32.543C268.032 32.7025 267.986 32.9759 267.85 33.3633C267.622 33.6367 267.485 33.9329 267.439 34.252C267.348 34.4342 267.269 34.5938 267.2 34.7305C267.132 34.8672 267.075 35.0495 267.029 35.2773C266.938 35.5508 266.904 35.8698 266.927 36.2344C266.95 36.4167 266.95 36.599 266.927 36.7812C266.927 36.9408 266.915 37.1003 266.893 37.2598C266.801 37.7611 266.733 38.251 266.688 38.7295C266.642 39.208 266.596 39.6979 266.551 40.1992C266.551 40.7005 266.505 41.2702 266.414 41.9082C266.323 42.5462 266.232 43.1159 266.141 43.6172C266.346 43.9818 266.46 44.3236 266.482 44.6426C266.505 44.9844 266.665 45.2806 266.961 45.5312C267.872 45.3945 268.602 45.1781 269.148 44.8818C269.695 44.5856 270.219 44.1641 270.721 43.6172C271.085 43.4577 271.37 43.2982 271.575 43.1387C271.757 42.9792 272.02 42.7969 272.361 42.5918L272.908 42.0449C273.455 41.7487 273.763 41.5664 273.831 41.498C273.877 41.4525 273.934 41.4069 274.002 41.3613C274.093 41.3158 274.184 41.2702 274.275 41.2246C275.05 40.7233 275.643 40.1992 276.053 39.6523C276.395 39.3789 276.679 39.0941 276.907 38.7979C277.09 38.5472 277.443 38.3079 277.967 38.0801C278.263 37.7155 278.593 37.4079 278.958 37.1572C279.323 36.9066 279.653 36.599 279.949 36.2344C280.2 36.2344 280.382 36.2799 280.496 36.3711C280.564 36.4167 280.633 36.4622 280.701 36.5078C280.792 36.5534 280.883 36.599 280.975 36.6445C281.111 37.0091 281.134 37.3851 281.043 37.7725C280.952 38.1598 280.792 38.513 280.564 38.832C280.337 39.1283 280.223 39.3105 280.223 39.3789C280.223 39.4245 280.2 39.4701 280.154 39.5156C280.018 39.6751 279.847 39.846 279.642 40.0283C279.437 40.1878 279.266 40.3587 279.129 40.541C278.901 40.9512 278.719 41.1562 278.582 41.1562C278.445 41.1562 278.331 41.2018 278.24 41.293C277.83 41.5436 277.545 41.7259 277.386 41.8398C277.203 41.9993 276.941 42.1816 276.6 42.3867C276.121 42.6374 275.825 42.8197 275.711 42.9336C275.597 43.0475 275.506 43.1159 275.438 43.1387C274.891 43.7539 274.355 44.2666 273.831 44.6768C273.353 45.0413 272.84 45.554 272.293 46.2148C272.111 46.3516 271.928 46.4883 271.746 46.625C271.564 46.7617 271.404 46.944 271.268 47.1719C270.857 47.4453 270.527 47.7188 270.276 47.9922C270.026 48.2656 269.741 48.5846 269.422 48.9492C269.148 49.0859 268.852 49.2796 268.533 49.5303C268.146 49.8265 267.804 50.043 267.508 50.1797C267.394 50.248 267.2 50.3506 266.927 50.4873C266.699 50.6012 266.482 50.6582 266.277 50.6582C265.753 50.7493 265.252 50.7038 264.773 50.5215C264.34 50.362 263.908 50.2253 263.475 50.1113C263.292 49.8379 263.064 49.61 262.791 49.4277C262.381 48.9264 262.085 48.334 261.902 47.6504C261.72 46.9668 261.538 46.2376 261.355 45.4629C260.945 45.7363 260.604 46.0326 260.33 46.3516C260.057 46.6934 259.646 46.9896 259.1 47.2402C258.644 47.6732 258.177 48.1061 257.698 48.5391C257.22 48.9492 256.718 49.348 256.194 49.7354C255.693 50.1227 255.18 50.5329 254.656 50.9658C254.132 51.376 253.608 51.7975 253.084 52.2305C252.719 52.5951 252.469 52.7318 252.332 52.6406C251.922 53.1419 251.193 53.3014 250.145 53.1191C249.78 52.9368 249.37 52.7773 248.914 52.6406C248.595 52.5495 248.23 52.4128 247.82 52.2305C247.046 52.0938 246.396 51.752 245.872 51.2051C245.348 50.6582 244.904 50.0202 244.539 49.291C244.402 48.9036 244.3 48.5618 244.231 48.2656C244.209 48.1061 244.174 47.9352 244.129 47.7529C244.083 47.5706 244.038 47.377 243.992 47.1719C243.969 46.7845 243.901 46.4769 243.787 46.249C243.696 45.9984 243.696 45.7591 243.787 45.5312C243.696 45.4173 243.673 45.2692 243.719 45.0869C243.764 44.859 243.787 44.6882 243.787 44.5742C243.742 43.9362 243.799 43.2526 243.958 42.5234C244.118 41.7943 244.334 41.1335 244.607 40.541C244.744 40.3132 244.926 40.0853 245.154 39.8574C245.268 39.7207 245.337 39.584 245.359 39.4473C245.382 39.3333 245.451 39.2194 245.564 39.1055C245.678 38.9688 245.815 38.832 245.975 38.6953C246.202 38.513 246.362 38.3763 246.453 38.2852C246.567 38.1257 246.681 37.9775 246.795 37.8408C246.932 37.6813 247.08 37.5446 247.239 37.4307C247.399 37.3167 247.547 37.1914 247.684 37.0547C247.82 36.918 247.957 36.7812 248.094 36.6445C248.253 36.485 248.379 36.3255 248.47 36.166C248.584 35.9837 248.755 35.847 248.982 35.7559C249.165 35.4368 249.37 35.1748 249.598 34.9697C249.826 34.7646 250.076 34.5482 250.35 34.3203C251.124 33.3861 252.081 32.5885 253.221 31.9277C254.383 31.2669 255.408 30.5378 256.297 29.7402C256.616 29.6035 256.889 29.444 257.117 29.2617C257.345 29.0794 257.573 28.8971 257.801 28.7148C258.37 28.2135 258.986 28.054 259.646 28.2363L261.424 28.7148C261.88 29.125 262.324 29.5352 262.757 29.9453C263.19 30.3555 263.566 30.8112 263.885 31.3125C264.044 31.2897 264.215 31.2783 264.397 31.2783C264.58 31.2555 264.773 31.2555 264.979 31.2783C265.389 31.3239 265.822 31.2897 266.277 31.1758C266.414 31.1758 266.551 31.1416 266.688 31.0732C266.824 31.0049 266.938 30.9707 267.029 30.9707C267.713 31.1986 268.055 31.5404 268.055 31.9961ZM259.031 33.0215C257.801 33.6139 256.684 34.3089 255.682 35.1064C254.679 35.904 253.722 36.7585 252.811 37.6699C252.697 37.7839 252.571 37.8978 252.435 38.0117C252.321 38.1029 252.207 38.2054 252.093 38.3193C251.979 38.4105 251.865 38.513 251.751 38.627C251.637 38.7409 251.535 38.8548 251.443 38.9688C251.261 39.1966 251.09 39.4701 250.931 39.7891C250.771 40.1081 250.623 40.4043 250.486 40.6777C250.441 40.7689 250.395 40.86 250.35 40.9512C250.304 41.0195 250.258 41.0765 250.213 41.1221C250.167 41.1676 250.122 41.2246 250.076 41.293C250.031 41.3613 249.985 41.4297 249.939 41.498C249.848 41.7259 249.814 41.9538 249.837 42.1816C249.86 42.3411 249.871 42.5918 249.871 42.9336V43.6172C249.871 43.7539 249.894 43.9818 249.939 44.3008C250.076 44.8021 250.145 45.3034 250.145 45.8047C250.145 46.1693 250.179 46.6136 250.247 47.1377C250.315 47.6618 250.486 48.015 250.76 48.1973C251.056 48.3796 251.341 48.4251 251.614 48.334C251.933 48.2201 252.195 48.1517 252.4 48.1289C253.995 46.8984 255.499 45.611 256.912 44.2666C258.325 42.9222 259.578 41.4069 260.672 39.7207C260.581 38.6042 260.569 37.4535 260.638 36.2686C260.706 35.152 260.604 34.1152 260.33 33.1582C260.148 33.0443 259.931 33.0101 259.681 33.0557C259.498 33.0785 259.282 33.0671 259.031 33.0215ZM278.787 45.8047C279.812 44.916 280.781 43.9248 281.692 42.8311C282.148 42.307 282.615 41.7715 283.094 41.2246C283.572 40.6777 284.074 40.1309 284.598 39.584C284.826 39.3561 285.053 39.0827 285.281 38.7637C285.509 38.4447 285.737 38.1029 285.965 37.7383C286.147 37.4648 286.375 37.2028 286.648 36.9521C286.945 36.6787 287.173 36.4395 287.332 36.2344C287.469 36.0065 287.64 35.8242 287.845 35.6875C287.959 35.6191 288.061 35.5508 288.152 35.4824C288.266 35.3913 288.38 35.3001 288.494 35.209C288.722 34.9811 288.927 34.7874 289.109 34.6279C289.292 34.4684 289.497 34.2975 289.725 34.1152C289.93 33.9557 290.123 33.7962 290.306 33.6367C290.511 33.4544 290.704 33.2835 290.887 33.124C291.251 32.7822 291.684 32.4974 292.186 32.2695C292.459 32.224 292.664 32.1214 292.801 31.9619C292.892 31.848 293.051 31.6771 293.279 31.4492C293.553 31.4948 293.758 31.472 293.895 31.3809C293.986 31.3353 294.077 31.2897 294.168 31.2441C294.282 31.1986 294.396 31.153 294.51 31.1074C295.148 31.2441 295.66 31.4948 296.048 31.8594C296.435 32.224 296.811 32.5885 297.176 32.9531C297.495 33.0898 297.745 33.2152 297.928 33.3291C298.11 33.443 298.292 33.5684 298.475 33.7051C298.657 34.0697 298.816 34.4115 298.953 34.7305C299.09 35.0495 299.158 35.4141 299.158 35.8242C299.158 36.0065 299.135 36.2799 299.09 36.6445C299.067 36.7812 299.044 36.918 299.021 37.0547C298.999 37.1914 298.976 37.3281 298.953 37.4648C298.771 38.0117 298.702 38.3079 298.748 38.3535C298.794 38.3991 298.816 38.4674 298.816 38.5586C298.862 38.9688 298.737 39.3447 298.44 39.6865C298.144 40.0511 298.064 40.4499 298.201 40.8828C298.247 41.0651 298.19 41.4069 298.03 41.9082C297.871 42.4095 297.814 42.7513 297.859 42.9336C297.951 43.1842 297.996 43.5374 297.996 43.9932C297.996 44.4489 298.11 44.7565 298.338 44.916C298.816 45.0983 299.135 45.1895 299.295 45.1895H299.773C300.32 44.916 301.004 44.4489 301.824 43.7881C302.645 43.1273 303.26 42.569 303.67 42.1133C303.898 41.931 304.114 41.7487 304.319 41.5664C304.524 41.3841 304.718 41.2132 304.9 41.0537C305.333 40.6663 305.835 40.3359 306.404 40.0625C306.997 39.6523 307.361 39.3675 307.498 39.208L308.387 38.2168C308.523 38.0801 308.694 37.9434 308.899 37.8066C309.104 37.6699 309.298 37.5104 309.48 37.3281C309.845 36.9635 310.21 36.7129 310.574 36.5762H311.36C311.679 36.5762 311.896 36.6673 312.01 36.8496C312.101 37.2142 312.101 37.5332 312.01 37.8066C311.919 38.0801 311.805 38.3307 311.668 38.5586C311.508 38.8092 311.303 39.0599 311.053 39.3105C310.87 39.6523 310.665 39.9486 310.438 40.1992C310.324 40.3132 310.198 40.4385 310.062 40.5752C309.948 40.6891 309.822 40.8258 309.686 40.9854C309.412 41.3044 309.093 41.5436 308.729 41.7031C308.615 41.8398 308.501 41.9652 308.387 42.0791C308.296 42.193 308.193 42.307 308.079 42.4209L307.43 43.0703C307.179 43.321 306.974 43.5716 306.814 43.8223C306.655 44.0729 306.45 44.3236 306.199 44.5742C305.949 44.7793 305.698 44.9844 305.447 45.1895C305.219 45.3945 304.98 45.5882 304.729 45.7705C304.251 46.1351 303.807 46.5794 303.396 47.1035C303.191 47.1947 303.009 47.2972 302.85 47.4111C302.758 47.4795 302.599 47.582 302.371 47.7188C301.801 47.8783 301.22 48.2087 300.628 48.71C300.058 49.2113 299.466 49.6784 298.851 50.1113C298.258 50.5215 297.632 50.7038 296.971 50.6582C296.469 50.8861 296.036 50.8975 295.672 50.6924C295.307 50.4873 294.943 50.2708 294.578 50.043C294.077 49.724 293.598 49.3594 293.143 48.9492C292.687 48.5391 292.413 47.9694 292.322 47.2402C292.231 46.0553 292.368 44.9388 292.732 43.8906C293.12 42.8197 293.393 41.7715 293.553 40.7461C293.553 40.6322 293.621 40.222 293.758 39.5156C293.917 38.7865 293.94 38.3079 293.826 38.0801C293.758 37.9889 293.701 37.8294 293.655 37.6016C293.632 37.3737 293.439 37.1458 293.074 36.918C292.869 36.804 292.778 36.7812 292.801 36.8496C292.824 36.9408 292.641 36.9863 292.254 36.9863C291.867 37.123 291.548 37.3053 291.297 37.5332C291.16 37.6471 291.012 37.7611 290.853 37.875C290.716 37.9889 290.568 38.1029 290.408 38.2168C289.998 38.6953 289.485 39.151 288.87 39.584C288.323 39.9714 287.833 40.4499 287.4 41.0195C287.036 41.4297 286.694 41.8398 286.375 42.25C286.102 42.6146 285.737 43.0247 285.281 43.4805C284.005 44.9388 282.752 46.2832 281.521 47.5137C281.362 47.696 281.202 47.8783 281.043 48.0605C280.906 48.2428 280.77 48.4251 280.633 48.6074C280.496 48.7897 280.348 48.972 280.188 49.1543C280.052 49.3366 279.904 49.5189 279.744 49.7012C279.197 50.3848 278.605 51.0456 277.967 51.6836C277.693 52.1393 277.306 52.5723 276.805 52.9824C276.303 53.3926 275.802 53.6888 275.301 53.8711C275.164 53.7799 275.016 53.7799 274.856 53.8711C274.697 53.9622 274.549 54.0078 274.412 54.0078C274.139 53.8939 273.922 53.8027 273.763 53.7344C273.603 53.6888 273.501 53.6546 273.455 53.6318C273.364 53.5863 273.296 53.4837 273.25 53.3242C272.794 53.0508 272.623 52.6064 272.737 51.9912C272.851 51.376 272.954 50.8405 273.045 50.3848C273.273 49.3594 273.546 48.334 273.865 47.3086C274.184 46.2832 274.537 45.2692 274.925 44.2666C275.312 43.264 275.665 42.2614 275.984 41.2588C276.303 40.2562 276.577 39.265 276.805 38.2852C277.033 37.5104 277.26 36.7926 277.488 36.1318C277.716 35.471 277.99 34.776 278.309 34.0469C278.65 33.3177 278.867 32.6683 278.958 32.0986C279.049 31.529 279.266 30.8796 279.607 30.1504C279.812 29.7858 279.972 29.444 280.086 29.125C280.223 28.7376 280.359 28.3958 280.496 28.0996C281.02 27.1654 281.499 26.0374 281.932 24.7158C282.387 23.3714 282.866 22.1751 283.367 21.127C283.914 19.6686 284.484 18.2559 285.076 16.8887C285.669 15.5215 286.329 14.1771 287.059 12.8555C287.492 11.1009 288.198 9.46029 289.178 7.93359C289.633 7.34115 289.941 6.86263 290.101 6.49805C290.306 6.04232 290.499 5.70052 290.682 5.47266C291.229 4.81185 291.844 4.29915 292.527 3.93457C293.188 3.56999 293.781 3.05729 294.305 2.39648C294.692 2.21419 295.045 2.07747 295.364 1.98633C295.547 1.94076 295.717 1.89518 295.877 1.84961C296.036 1.78125 296.196 1.71289 296.355 1.64453C296.492 1.78125 296.561 2.05469 296.561 2.46484C296.652 2.46484 296.674 2.60156 296.629 2.875C296.583 3.14844 296.583 3.3763 296.629 3.55859C296.629 4.19661 296.572 4.65234 296.458 4.92578L296.15 5.67773C296.105 6.04232 296.082 6.28158 296.082 6.39551C296.082 6.55501 296.059 6.7487 296.014 6.97656C295.877 7.40951 295.82 7.64876 295.843 7.69434C295.866 7.73991 295.877 7.81966 295.877 7.93359C295.877 8.02474 295.854 8.22982 295.809 8.54883C295.763 8.86784 295.74 9.0957 295.74 9.23242C295.717 9.68815 295.592 10.2122 295.364 10.8047C295.182 11.306 295.011 11.8073 294.852 12.3086C294.578 12.6276 294.419 12.8783 294.373 13.0605C294.327 13.2428 294.236 13.3568 294.1 13.4023C293.963 13.7897 293.826 14.1771 293.689 14.5645C293.576 14.929 293.462 15.2936 293.348 15.6582C293.12 16.3646 292.778 17.0482 292.322 17.709C292.163 18.1875 291.924 18.6774 291.604 19.1787C291.445 19.4066 291.297 19.6458 291.16 19.8965C291.046 20.1243 290.932 20.3522 290.818 20.5801L290.511 21.2295C290.374 21.5029 290.271 21.7194 290.203 21.8789C289.884 22.4714 289.554 23.0752 289.212 23.6904C288.87 24.3057 288.471 24.8639 288.016 25.3652C287.195 27.097 286.329 28.8402 285.418 30.5947C284.507 32.3493 283.618 34.0469 282.752 35.6875C282.592 35.9382 282.456 36.1774 282.342 36.4053C282.228 36.6104 282.137 36.804 282.068 36.9863C281.954 37.237 281.875 37.5218 281.829 37.8408C281.784 38.1143 281.658 38.3535 281.453 38.5586C281.385 38.7637 281.316 38.9688 281.248 39.1738C281.18 39.3561 281.123 39.5384 281.077 39.7207C280.986 40.0853 280.815 40.4271 280.564 40.7461C280.405 41.6348 280.12 42.4893 279.71 43.3096C279.323 44.0843 279.015 44.916 278.787 45.8047Z" fill="black"/>
</svg>
